<svg width="1366" height="768" viewBox="0 0 1366 768" fill="none" xmlns="http://www.w3.org/2000/svg">
<g clip-path="url(#clip0_116_667)">
<rect width="1366" height="768" fill="#3F95A1"/>
<rect x="245" y="54" width="876" height="59.3741" fill="white"/>
<g filter="url(#filter0_dddddd_116_667)">
<rect x="245" y="151.158" width="876" height="484.842" fill="white"/>
<rect x="245.5" y="151.658" width="875" height="483.842" stroke="#EAEAEA"/>
</g>
<path d="M295.017 99.6101L287.232 92.1748M291.438 82.5176C291.438 90.0695 285.027 96.1916 277.12 96.1916C269.213 96.1916 262.803 90.0695 262.803 82.5176C262.803 74.9656 269.213 68.8435 277.12 68.8435C285.027 68.8435 291.438 74.9656 291.438 82.5176Z" stroke="#1E1E1E" stroke-width="4" stroke-linecap="round" stroke-linejoin="round"/>
<mask id="path-5-inside-1_116_667" fill="white">
<path d="M462 674H632V732H462V674Z"/>
</mask>
<path d="M462 674H632V732H462V674Z" fill="#2C2C2C"/>
<path d="M462 674V673H461V674H462ZM632 674H633V673H632V674ZM632 732V733H633V732H632ZM462 732H461V733H462V732ZM462 674V675H632V674V673H462V674ZM632 674H631V732H632H633V674H632ZM632 732V731H462V732V733H632V732ZM462 732H463V674H462H461V732H462Z" fill="#2C2C2C" mask="url(#path-5-inside-1_116_667)"/>
<path d="M523.909 709V697.364H525.318V702.545H531.523V697.364H532.932V709H531.523V703.795H525.318V709H523.909ZM538.139 709.205C537.586 709.205 537.084 709.1 536.634 708.892C536.183 708.68 535.825 708.375 535.56 707.977C535.295 707.576 535.162 707.091 535.162 706.523C535.162 706.023 535.26 705.617 535.457 705.307C535.654 704.992 535.918 704.746 536.247 704.568C536.577 704.39 536.94 704.258 537.338 704.17C537.74 704.08 538.143 704.008 538.548 703.955C539.079 703.886 539.509 703.835 539.838 703.801C540.171 703.763 540.414 703.701 540.565 703.614C540.721 703.527 540.798 703.375 540.798 703.159V703.114C540.798 702.553 540.645 702.117 540.338 701.807C540.035 701.496 539.575 701.341 538.957 701.341C538.317 701.341 537.815 701.481 537.452 701.761C537.088 702.042 536.832 702.341 536.685 702.659L535.412 702.205C535.639 701.674 535.942 701.261 536.321 700.966C536.704 700.667 537.12 700.458 537.571 700.341C538.026 700.22 538.473 700.159 538.912 700.159C539.192 700.159 539.514 700.193 539.878 700.261C540.245 700.326 540.599 700.46 540.94 700.665C541.285 700.869 541.571 701.178 541.798 701.591C542.026 702.004 542.139 702.557 542.139 703.25V709H540.798V707.818H540.73C540.639 708.008 540.488 708.21 540.276 708.426C540.063 708.642 539.781 708.826 539.429 708.977C539.077 709.129 538.647 709.205 538.139 709.205ZM538.344 708C538.874 708 539.321 707.896 539.685 707.688C540.052 707.479 540.329 707.21 540.514 706.881C540.704 706.551 540.798 706.205 540.798 705.841V704.614C540.741 704.682 540.616 704.744 540.423 704.801C540.234 704.854 540.014 704.902 539.764 704.943C539.518 704.981 539.277 705.015 539.043 705.045C538.812 705.072 538.624 705.095 538.48 705.114C538.132 705.159 537.806 705.233 537.503 705.335C537.204 705.434 536.961 705.583 536.776 705.784C536.594 705.981 536.503 706.25 536.503 706.591C536.503 707.057 536.675 707.409 537.02 707.648C537.368 707.883 537.81 708 538.344 708ZM544.587 712.273V700.273H545.882V701.659H546.041C546.14 701.508 546.276 701.314 546.45 701.08C546.628 700.841 546.882 700.629 547.212 700.443C547.545 700.254 547.996 700.159 548.564 700.159C549.299 700.159 549.946 700.343 550.507 700.71C551.068 701.078 551.505 701.598 551.82 702.273C552.134 702.947 552.291 703.742 552.291 704.659C552.291 705.583 552.134 706.384 551.82 707.062C551.505 707.737 551.07 708.259 550.513 708.631C549.956 708.998 549.314 709.182 548.587 709.182C548.026 709.182 547.577 709.089 547.24 708.903C546.903 708.714 546.643 708.5 546.462 708.261C546.28 708.019 546.14 707.818 546.041 707.659H545.928V712.273H544.587ZM545.905 704.636C545.905 705.295 546.001 705.877 546.195 706.381C546.388 706.881 546.67 707.273 547.041 707.557C547.412 707.837 547.867 707.977 548.405 707.977C548.965 707.977 549.433 707.83 549.808 707.534C550.187 707.235 550.471 706.833 550.661 706.33C550.854 705.822 550.95 705.258 550.95 704.636C550.95 704.023 550.856 703.47 550.666 702.977C550.481 702.481 550.198 702.089 549.82 701.801C549.445 701.509 548.973 701.364 548.405 701.364C547.859 701.364 547.401 701.502 547.03 701.778C546.659 702.051 546.378 702.434 546.189 702.926C546 703.415 545.905 703.985 545.905 704.636ZM559.837 705.432V700.273H561.178V709H559.837V707.523H559.746C559.541 707.966 559.223 708.343 558.791 708.653C558.359 708.96 557.814 709.114 557.155 709.114C556.609 709.114 556.125 708.994 555.7 708.756C555.276 708.513 554.943 708.15 554.7 707.665C554.458 707.176 554.337 706.561 554.337 705.818V700.273H555.678V705.727C555.678 706.364 555.856 706.871 556.212 707.25C556.571 707.629 557.03 707.818 557.587 707.818C557.92 707.818 558.259 707.733 558.604 707.562C558.952 707.392 559.244 707.131 559.479 706.778C559.717 706.426 559.837 705.977 559.837 705.432ZM569.815 702.227L568.611 702.568C568.535 702.367 568.423 702.172 568.276 701.983C568.132 701.79 567.935 701.631 567.685 701.506C567.435 701.381 567.115 701.318 566.724 701.318C566.19 701.318 565.745 701.441 565.389 701.688C565.037 701.93 564.861 702.239 564.861 702.614C564.861 702.947 564.982 703.21 565.224 703.403C565.467 703.597 565.846 703.758 566.361 703.886L567.656 704.205C568.437 704.394 569.018 704.684 569.401 705.074C569.783 705.46 569.974 705.958 569.974 706.568C569.974 707.068 569.83 707.515 569.543 707.909C569.259 708.303 568.861 708.614 568.349 708.841C567.838 709.068 567.243 709.182 566.565 709.182C565.675 709.182 564.938 708.989 564.355 708.602C563.772 708.216 563.402 707.652 563.247 706.909L564.52 706.591C564.641 707.061 564.87 707.413 565.207 707.648C565.548 707.883 565.993 708 566.543 708C567.168 708 567.664 707.867 568.031 707.602C568.402 707.333 568.588 707.011 568.588 706.636C568.588 706.333 568.482 706.08 568.27 705.875C568.058 705.667 567.732 705.511 567.293 705.409L565.838 705.068C565.039 704.879 564.452 704.585 564.077 704.188C563.705 703.786 563.52 703.284 563.52 702.682C563.52 702.189 563.658 701.754 563.935 701.375C564.215 700.996 564.596 700.699 565.077 700.483C565.562 700.267 566.111 700.159 566.724 700.159C567.588 700.159 568.266 700.348 568.759 700.727C569.255 701.106 569.607 701.606 569.815 702.227Z" fill="#F5F5F5"/>
<mask id="path-8-inside-2_116_667" fill="white">
<path d="M1153 580H1333V640H1153V580Z"/>
</mask>
<path d="M1153 580H1333V640H1153V580Z" fill="#2C2C2C"/>
<path d="M1153 580V579H1152V580H1153ZM1333 580H1334V579H1333V580ZM1333 640V641H1334V640H1333ZM1153 640H1152V641H1153V640ZM1153 580V581H1333V580V579H1153V580ZM1333 580H1332V640H1333H1334V580H1333ZM1333 640V639H1153V640V641H1333V640ZM1153 640H1154V580H1153H1152V640H1153Z" fill="#2C2C2C" mask="url(#path-8-inside-2_116_667)"/>
<path d="M1222.91 616V604.364H1226.98C1227.79 604.364 1228.46 604.504 1228.98 604.784C1229.51 605.061 1229.9 605.434 1230.16 605.903C1230.42 606.369 1230.55 606.886 1230.55 607.455C1230.55 607.955 1230.46 608.367 1230.28 608.693C1230.1 609.019 1229.87 609.277 1229.59 609.466C1229.3 609.655 1228.99 609.795 1228.66 609.886V610C1229.02 610.023 1229.37 610.148 1229.73 610.375C1230.09 610.602 1230.39 610.928 1230.64 611.352C1230.88 611.777 1231 612.295 1231 612.909C1231 613.492 1230.87 614.017 1230.6 614.483C1230.34 614.949 1229.92 615.318 1229.35 615.591C1228.77 615.864 1228.03 616 1227.11 616H1222.91ZM1224.32 614.75H1227.11C1228.03 614.75 1228.69 614.572 1229.07 614.216C1229.46 613.856 1229.66 613.42 1229.66 612.909C1229.66 612.515 1229.56 612.152 1229.36 611.818C1229.16 611.481 1228.87 611.212 1228.5 611.011C1228.13 610.807 1227.69 610.705 1227.18 610.705H1224.32V614.75ZM1224.32 609.477H1226.93C1227.36 609.477 1227.74 609.394 1228.08 609.227C1228.42 609.061 1228.7 608.826 1228.9 608.523C1229.1 608.22 1229.2 607.864 1229.2 607.455C1229.2 606.943 1229.03 606.509 1228.67 606.153C1228.31 605.794 1227.75 605.614 1226.98 605.614H1224.32V609.477ZM1235.7 616.205C1235.15 616.205 1234.65 616.1 1234.2 615.892C1233.75 615.68 1233.39 615.375 1233.12 614.977C1232.86 614.576 1232.72 614.091 1232.72 613.523C1232.72 613.023 1232.82 612.617 1233.02 612.307C1233.22 611.992 1233.48 611.746 1233.81 611.568C1234.14 611.39 1234.5 611.258 1234.9 611.17C1235.3 611.08 1235.71 611.008 1236.11 610.955C1236.64 610.886 1237.07 610.835 1237.4 610.801C1237.73 610.763 1237.98 610.701 1238.13 610.614C1238.28 610.527 1238.36 610.375 1238.36 610.159V610.114C1238.36 609.553 1238.21 609.117 1237.9 608.807C1237.6 608.496 1237.14 608.341 1236.52 608.341C1235.88 608.341 1235.38 608.481 1235.01 608.761C1234.65 609.042 1234.39 609.341 1234.25 609.659L1232.97 609.205C1233.2 608.674 1233.5 608.261 1233.88 607.966C1234.27 607.667 1234.68 607.458 1235.13 607.341C1235.59 607.22 1236.04 607.159 1236.47 607.159C1236.75 607.159 1237.08 607.193 1237.44 607.261C1237.81 607.326 1238.16 607.46 1238.5 607.665C1238.85 607.869 1239.13 608.178 1239.36 608.591C1239.59 609.004 1239.7 609.557 1239.7 610.25V616H1238.36V614.818H1238.29C1238.2 615.008 1238.05 615.21 1237.84 615.426C1237.63 615.642 1237.34 615.826 1236.99 615.977C1236.64 616.129 1236.21 616.205 1235.7 616.205ZM1235.91 615C1236.44 615 1236.88 614.896 1237.25 614.688C1237.61 614.479 1237.89 614.21 1238.08 613.881C1238.27 613.551 1238.36 613.205 1238.36 612.841V611.614C1238.3 611.682 1238.18 611.744 1237.99 611.801C1237.8 611.854 1237.58 611.902 1237.33 611.943C1237.08 611.981 1236.84 612.015 1236.61 612.045C1236.37 612.072 1236.19 612.095 1236.04 612.114C1235.69 612.159 1235.37 612.233 1235.07 612.335C1234.77 612.434 1234.52 612.583 1234.34 612.784C1234.16 612.981 1234.07 613.25 1234.07 613.591C1234.07 614.057 1234.24 614.409 1234.58 614.648C1234.93 614.883 1235.37 615 1235.91 615ZM1242.7 619.273C1242.47 619.273 1242.27 619.254 1242.09 619.216C1241.91 619.182 1241.79 619.148 1241.72 619.114L1242.06 617.932C1242.39 618.015 1242.68 618.045 1242.93 618.023C1243.18 618 1243.4 617.888 1243.59 617.688C1243.79 617.491 1243.97 617.17 1244.13 616.727L1244.38 616.045L1241.15 607.273H1242.61L1245.02 614.227H1245.11L1247.52 607.273H1248.97L1245.27 617.273C1245.1 617.723 1244.9 618.097 1244.65 618.392C1244.4 618.691 1244.12 618.913 1243.79 619.057C1243.47 619.201 1243.11 619.273 1242.7 619.273ZM1253.05 616.205C1252.49 616.205 1251.99 616.1 1251.54 615.892C1251.09 615.68 1250.73 615.375 1250.47 614.977C1250.2 614.576 1250.07 614.091 1250.07 613.523C1250.07 613.023 1250.17 612.617 1250.36 612.307C1250.56 611.992 1250.82 611.746 1251.15 611.568C1251.48 611.39 1251.85 611.258 1252.24 611.17C1252.65 611.08 1253.05 611.008 1253.45 610.955C1253.98 610.886 1254.41 610.835 1254.74 610.801C1255.08 610.763 1255.32 610.701 1255.47 610.614C1255.63 610.527 1255.7 610.375 1255.7 610.159V610.114C1255.7 609.553 1255.55 609.117 1255.24 608.807C1254.94 608.496 1254.48 608.341 1253.86 608.341C1253.22 608.341 1252.72 608.481 1252.36 608.761C1251.99 609.042 1251.74 609.341 1251.59 609.659L1250.32 609.205C1250.55 608.674 1250.85 608.261 1251.23 607.966C1251.61 607.667 1252.03 607.458 1252.48 607.341C1252.93 607.22 1253.38 607.159 1253.82 607.159C1254.1 607.159 1254.42 607.193 1254.78 607.261C1255.15 607.326 1255.51 607.46 1255.85 607.665C1256.19 607.869 1256.48 608.178 1256.7 608.591C1256.93 609.004 1257.05 609.557 1257.05 610.25V616H1255.7V614.818H1255.64C1255.55 615.008 1255.39 615.21 1255.18 615.426C1254.97 615.642 1254.69 615.826 1254.34 615.977C1253.98 616.129 1253.55 616.205 1253.05 616.205ZM1253.25 615C1253.78 615 1254.23 614.896 1254.59 614.688C1254.96 614.479 1255.23 614.21 1255.42 613.881C1255.61 613.551 1255.7 613.205 1255.7 612.841V611.614C1255.65 611.682 1255.52 611.744 1255.33 611.801C1255.14 611.854 1254.92 611.902 1254.67 611.943C1254.42 611.981 1254.18 612.015 1253.95 612.045C1253.72 612.072 1253.53 612.095 1253.39 612.114C1253.04 612.159 1252.71 612.233 1252.41 612.335C1252.11 612.434 1251.87 612.583 1251.68 612.784C1251.5 612.981 1251.41 613.25 1251.41 613.591C1251.41 614.057 1251.58 614.409 1251.93 614.648C1252.27 614.883 1252.72 615 1253.25 615ZM1259.49 616V607.273H1260.79V608.591H1260.88C1261.04 608.159 1261.33 607.809 1261.74 607.54C1262.16 607.271 1262.63 607.136 1263.15 607.136C1263.25 607.136 1263.37 607.138 1263.52 607.142C1263.67 607.146 1263.78 607.152 1263.86 607.159V608.523C1263.81 608.511 1263.71 608.494 1263.54 608.472C1263.38 608.445 1263.22 608.432 1263.04 608.432C1262.61 608.432 1262.24 608.521 1261.9 608.699C1261.57 608.873 1261.31 609.116 1261.12 609.426C1260.93 609.733 1260.83 610.083 1260.83 610.477V616H1259.49Z" fill="#F5F5F5"/>
<mask id="path-11-inside-3_116_667" fill="white">
<path d="M245 672H430V732H245V672Z"/>
</mask>
<path d="M245 672H430V732H245V672Z" fill="#2C2C2C"/>
<path d="M245 672V671H244V672H245ZM430 672H431V671H430V672ZM430 732V733H431V732H430ZM245 732H244V733H245V732ZM245 672V673H430V672V671H245V672ZM430 672H429V732H430H431V672H430ZM430 732V731H245V732V733H430V732ZM245 732H246V672H245H244V732H245Z" fill="#2C2C2C" mask="url(#path-11-inside-3_116_667)"/>
<path d="M325.773 700H324.364C324.28 699.595 324.134 699.239 323.926 698.932C323.722 698.625 323.472 698.367 323.176 698.159C322.884 697.947 322.561 697.788 322.205 697.682C321.848 697.576 321.477 697.523 321.091 697.523C320.386 697.523 319.748 697.701 319.176 698.057C318.608 698.413 318.155 698.938 317.818 699.631C317.485 700.324 317.318 701.174 317.318 702.182C317.318 703.189 317.485 704.04 317.818 704.733C318.155 705.426 318.608 705.951 319.176 706.307C319.748 706.663 320.386 706.841 321.091 706.841C321.477 706.841 321.848 706.788 322.205 706.682C322.561 706.576 322.884 706.419 323.176 706.21C323.472 705.998 323.722 705.739 323.926 705.432C324.134 705.121 324.28 704.765 324.364 704.364H325.773C325.667 704.958 325.473 705.491 325.193 705.96C324.913 706.43 324.564 706.83 324.148 707.159C323.731 707.485 323.263 707.733 322.744 707.903C322.229 708.074 321.678 708.159 321.091 708.159C320.098 708.159 319.216 707.917 318.443 707.432C317.67 706.947 317.063 706.258 316.619 705.364C316.176 704.47 315.955 703.409 315.955 702.182C315.955 700.955 316.176 699.894 316.619 699C317.063 698.106 317.67 697.417 318.443 696.932C319.216 696.447 320.098 696.205 321.091 696.205C321.678 696.205 322.229 696.29 322.744 696.46C323.263 696.631 323.731 696.881 324.148 697.21C324.564 697.536 324.913 697.934 325.193 698.403C325.473 698.869 325.667 699.402 325.773 700ZM331.527 708.182C330.686 708.182 329.961 707.996 329.351 707.625C328.745 707.25 328.277 706.727 327.947 706.057C327.622 705.383 327.459 704.598 327.459 703.705C327.459 702.811 327.622 702.023 327.947 701.341C328.277 700.655 328.735 700.121 329.322 699.739C329.913 699.352 330.603 699.159 331.391 699.159C331.845 699.159 332.294 699.235 332.737 699.386C333.18 699.538 333.584 699.784 333.947 700.125C334.311 700.462 334.601 700.909 334.817 701.466C335.033 702.023 335.141 702.708 335.141 703.523V704.091H328.413V702.932H333.777C333.777 702.439 333.679 702 333.482 701.614C333.288 701.227 333.012 700.922 332.652 700.699C332.296 700.475 331.875 700.364 331.391 700.364C330.857 700.364 330.394 700.496 330.004 700.761C329.618 701.023 329.321 701.364 329.112 701.784C328.904 702.205 328.8 702.655 328.8 703.136V703.909C328.8 704.568 328.913 705.127 329.141 705.585C329.372 706.04 329.692 706.386 330.101 706.625C330.51 706.86 330.985 706.977 331.527 706.977C331.879 706.977 332.197 706.928 332.482 706.83C332.769 706.727 333.018 706.576 333.226 706.375C333.434 706.17 333.595 705.917 333.709 705.614L335.004 705.977C334.868 706.417 334.639 706.803 334.317 707.136C333.995 707.466 333.597 707.723 333.124 707.909C332.65 708.091 332.118 708.182 331.527 708.182ZM340.976 699.273V700.409H336.453V699.273H340.976ZM337.771 697.182H339.112V705.5C339.112 705.879 339.167 706.163 339.277 706.352C339.391 706.538 339.535 706.663 339.709 706.727C339.887 706.788 340.074 706.818 340.271 706.818C340.419 706.818 340.54 706.811 340.635 706.795C340.73 706.777 340.805 706.761 340.862 706.75L341.135 707.955C341.044 707.989 340.917 708.023 340.754 708.057C340.591 708.095 340.385 708.114 340.135 708.114C339.756 708.114 339.385 708.032 339.021 707.869C338.661 707.706 338.362 707.458 338.124 707.125C337.889 706.792 337.771 706.371 337.771 705.864V697.182ZM345.561 708.205C345.008 708.205 344.506 708.1 344.055 707.892C343.605 707.68 343.247 707.375 342.982 706.977C342.716 706.576 342.584 706.091 342.584 705.523C342.584 705.023 342.682 704.617 342.879 704.307C343.076 703.992 343.339 703.746 343.669 703.568C343.999 703.39 344.362 703.258 344.76 703.17C345.161 703.08 345.565 703.008 345.97 702.955C346.5 702.886 346.93 702.835 347.26 702.801C347.593 702.763 347.836 702.701 347.987 702.614C348.143 702.527 348.22 702.375 348.22 702.159V702.114C348.22 701.553 348.067 701.117 347.76 700.807C347.457 700.496 346.997 700.341 346.379 700.341C345.739 700.341 345.237 700.481 344.874 700.761C344.51 701.042 344.254 701.341 344.107 701.659L342.834 701.205C343.061 700.674 343.364 700.261 343.743 699.966C344.125 699.667 344.542 699.458 344.993 699.341C345.447 699.22 345.894 699.159 346.334 699.159C346.614 699.159 346.936 699.193 347.3 699.261C347.667 699.326 348.021 699.46 348.362 699.665C348.707 699.869 348.993 700.178 349.22 700.591C349.447 701.004 349.561 701.557 349.561 702.25V708H348.22V706.818H348.152C348.061 707.008 347.91 707.21 347.697 707.426C347.485 707.642 347.203 707.826 346.851 707.977C346.499 708.129 346.069 708.205 345.561 708.205ZM345.766 707C346.296 707 346.743 706.896 347.107 706.688C347.474 706.479 347.75 706.21 347.936 705.881C348.125 705.551 348.22 705.205 348.22 704.841V703.614C348.163 703.682 348.038 703.744 347.845 703.801C347.656 703.854 347.436 703.902 347.186 703.943C346.94 703.981 346.699 704.015 346.464 704.045C346.233 704.072 346.046 704.095 345.902 704.114C345.554 704.159 345.228 704.233 344.925 704.335C344.625 704.434 344.383 704.583 344.197 704.784C344.016 704.981 343.925 705.25 343.925 705.591C343.925 706.057 344.097 706.409 344.442 706.648C344.79 706.883 345.232 707 345.766 707ZM353.259 704.818L353.236 703.159H353.509L357.327 699.273H358.986L354.918 703.386H354.804L353.259 704.818ZM352.009 708V696.364H353.349V708H352.009ZM357.554 708L354.145 703.682L355.099 702.75L359.259 708H357.554Z" fill="#F5F5F5"/>
<path d="M0 -1H227V767H0V-1Z" fill="#0C4E57"/>
<circle cx="48" cy="286" r="33" fill="#3C909B"/>
<rect x="1153" y="324" width="180" height="60" fill="white"/>
<rect x="1153" y="409" width="180" height="60" fill="white"/>
<rect x="1153" y="499" width="180" height="60" fill="white"/>
<path d="M43.0251 223.35V217.983C43.0251 216.618 44.138 215.509 45.5168 215.5H50.5674C51.9528 215.5 53.0759 216.612 53.0759 217.983V217.983V223.367C53.0756 224.526 54.0099 225.473 55.1803 225.5H58.5474C61.904 225.5 64.625 222.806 64.625 219.483V219.483V204.216C64.6071 202.909 63.9871 201.681 62.9415 200.883L51.426 191.699C49.4086 190.1 46.5409 190.1 44.5235 191.699L33.0585 200.899C32.009 201.695 31.3879 202.924 31.375 204.233V219.483C31.375 222.806 34.096 225.5 37.4526 225.5H40.8197C42.0191 225.5 42.9915 224.537 42.9915 223.35V223.35" stroke="white" stroke-width="2" stroke-linecap="round" stroke-linejoin="round"/>
<path d="M89.5 199.96C90.98 199.96 92.2733 200.253 93.38 200.84C94.4867 201.427 95.34 202.253 95.94 203.32C96.5533 204.373 96.86 205.593 96.86 206.98C96.86 208.353 96.5533 209.573 95.94 210.64C95.34 211.707 94.48 212.533 93.36 213.12C92.2533 213.707 90.9667 214 89.5 214H84.24V199.96H89.5ZM89.28 211.04C90.5733 211.04 91.58 210.687 92.3 209.98C93.02 209.273 93.38 208.273 93.38 206.98C93.38 205.687 93.02 204.68 92.3 203.96C91.58 203.24 90.5733 202.88 89.28 202.88H87.66V211.04H89.28ZM98.0913 208.4C98.0913 207.253 98.3046 206.247 98.7313 205.38C99.1713 204.513 99.7646 203.847 100.511 203.38C101.258 202.913 102.091 202.68 103.011 202.68C103.798 202.68 104.485 202.84 105.071 203.16C105.671 203.48 106.131 203.9 106.451 204.42V202.84H109.871V214H106.451V212.42C106.118 212.94 105.651 213.36 105.051 213.68C104.465 214 103.778 214.16 102.991 214.16C102.085 214.16 101.258 213.927 100.511 213.46C99.7646 212.98 99.1713 212.307 98.7313 211.44C98.3046 210.56 98.0913 209.547 98.0913 208.4ZM106.451 208.42C106.451 207.567 106.211 206.893 105.731 206.4C105.265 205.907 104.691 205.66 104.011 205.66C103.331 205.66 102.751 205.907 102.271 206.4C101.805 206.88 101.571 207.547 101.571 208.4C101.571 209.253 101.805 209.933 102.271 210.44C102.751 210.933 103.331 211.18 104.011 211.18C104.691 211.18 105.265 210.933 105.731 210.44C106.211 209.947 106.451 209.273 106.451 208.42ZM116.885 214.16C115.912 214.16 115.045 213.993 114.285 213.66C113.525 213.327 112.925 212.873 112.485 212.3C112.045 211.713 111.799 211.06 111.745 210.34H115.125C115.165 210.727 115.345 211.04 115.665 211.28C115.985 211.52 116.379 211.64 116.845 211.64C117.272 211.64 117.599 211.56 117.825 211.4C118.065 211.227 118.185 211.007 118.185 210.74C118.185 210.42 118.019 210.187 117.685 210.04C117.352 209.88 116.812 209.707 116.065 209.52C115.265 209.333 114.599 209.14 114.065 208.94C113.532 208.727 113.072 208.4 112.685 207.96C112.299 207.507 112.105 206.9 112.105 206.14C112.105 205.5 112.279 204.92 112.625 204.4C112.985 203.867 113.505 203.447 114.185 203.14C114.879 202.833 115.699 202.68 116.645 202.68C118.045 202.68 119.145 203.027 119.945 203.72C120.759 204.413 121.225 205.333 121.345 206.48H118.185C118.132 206.093 117.959 205.787 117.665 205.56C117.385 205.333 117.012 205.22 116.545 205.22C116.145 205.22 115.839 205.3 115.625 205.46C115.412 205.607 115.305 205.813 115.305 206.08C115.305 206.4 115.472 206.64 115.805 206.8C116.152 206.96 116.685 207.12 117.405 207.28C118.232 207.493 118.905 207.707 119.425 207.92C119.945 208.12 120.399 208.453 120.785 208.92C121.185 209.373 121.392 209.987 121.405 210.76C121.405 211.413 121.219 212 120.845 212.52C120.485 213.027 119.959 213.427 119.265 213.72C118.585 214.013 117.792 214.16 116.885 214.16ZM130.358 202.72C131.638 202.72 132.664 203.147 133.438 204C134.211 204.84 134.598 206 134.598 207.48V214H131.198V207.94C131.198 207.193 131.004 206.613 130.618 206.2C130.231 205.787 129.711 205.58 129.058 205.58C128.404 205.58 127.884 205.787 127.498 206.2C127.111 206.613 126.918 207.193 126.918 207.94V214H123.498V199.2H126.918V204.34C127.264 203.847 127.738 203.453 128.338 203.16C128.938 202.867 129.611 202.72 130.358 202.72ZM140.394 204.42C140.714 203.9 141.174 203.48 141.774 203.16C142.374 202.84 143.061 202.68 143.834 202.68C144.754 202.68 145.588 202.913 146.334 203.38C147.081 203.847 147.668 204.513 148.094 205.38C148.534 206.247 148.754 207.253 148.754 208.4C148.754 209.547 148.534 210.56 148.094 211.44C147.668 212.307 147.081 212.98 146.334 213.46C145.588 213.927 144.754 214.16 143.834 214.16C143.048 214.16 142.361 214.007 141.774 213.7C141.188 213.38 140.728 212.96 140.394 212.44V214H136.974V199.2H140.394V204.42ZM145.274 208.4C145.274 207.547 145.034 206.88 144.554 206.4C144.088 205.907 143.508 205.66 142.814 205.66C142.134 205.66 141.554 205.907 141.074 206.4C140.608 206.893 140.374 207.567 140.374 208.42C140.374 209.273 140.608 209.947 141.074 210.44C141.554 210.933 142.134 211.18 142.814 211.18C143.494 211.18 144.074 210.933 144.554 210.44C145.034 209.933 145.274 209.253 145.274 208.4ZM155.629 214.16C154.535 214.16 153.549 213.927 152.669 213.46C151.802 212.993 151.115 212.327 150.609 211.46C150.115 210.593 149.869 209.58 149.869 208.42C149.869 207.273 150.122 206.267 150.629 205.4C151.135 204.52 151.829 203.847 152.709 203.38C153.589 202.913 154.575 202.68 155.669 202.68C156.762 202.68 157.749 202.913 158.629 203.38C159.509 203.847 160.202 204.52 160.709 205.4C161.215 206.267 161.469 207.273 161.469 208.42C161.469 209.567 161.209 210.58 160.689 211.46C160.182 212.327 159.482 212.993 158.589 213.46C157.709 213.927 156.722 214.16 155.629 214.16ZM155.629 211.2C156.282 211.2 156.835 210.96 157.289 210.48C157.755 210 157.989 209.313 157.989 208.42C157.989 207.527 157.762 206.84 157.309 206.36C156.869 205.88 156.322 205.64 155.669 205.64C155.002 205.64 154.449 205.88 154.009 206.36C153.569 206.827 153.349 207.513 153.349 208.42C153.349 209.313 153.562 210 153.989 210.48C154.429 210.96 154.975 211.2 155.629 211.2ZM162.603 208.4C162.603 207.253 162.816 206.247 163.243 205.38C163.683 204.513 164.276 203.847 165.023 203.38C165.77 202.913 166.603 202.68 167.523 202.68C168.31 202.68 168.996 202.84 169.583 203.16C170.183 203.48 170.643 203.9 170.963 204.42V202.84H174.383V214H170.963V212.42C170.63 212.94 170.163 213.36 169.563 213.68C168.976 214 168.29 214.16 167.503 214.16C166.596 214.16 165.77 213.927 165.023 213.46C164.276 212.98 163.683 212.307 163.243 211.44C162.816 210.56 162.603 209.547 162.603 208.4ZM170.963 208.42C170.963 207.567 170.723 206.893 170.243 206.4C169.776 205.907 169.203 205.66 168.523 205.66C167.843 205.66 167.263 205.907 166.783 206.4C166.316 206.88 166.083 207.547 166.083 208.4C166.083 209.253 166.316 209.933 166.783 210.44C167.263 210.933 167.843 211.18 168.523 211.18C169.203 211.18 169.776 210.933 170.243 210.44C170.723 209.947 170.963 209.273 170.963 208.42ZM180.277 204.7C180.677 204.087 181.177 203.607 181.777 203.26C182.377 202.9 183.044 202.72 183.777 202.72V206.34H182.837C181.984 206.34 181.344 206.527 180.917 206.9C180.491 207.26 180.277 207.9 180.277 208.82V214H176.857V202.84H180.277V204.7ZM184.732 208.4C184.732 207.253 184.945 206.247 185.372 205.38C185.812 204.513 186.405 203.847 187.152 203.38C187.899 202.913 188.732 202.68 189.652 202.68C190.385 202.68 191.052 202.833 191.652 203.14C192.265 203.447 192.745 203.86 193.092 204.38V199.2H196.512V214H193.092V212.4C192.772 212.933 192.312 213.36 191.712 213.68C191.125 214 190.439 214.16 189.652 214.16C188.732 214.16 187.899 213.927 187.152 213.46C186.405 212.98 185.812 212.307 185.372 211.44C184.945 210.56 184.732 209.547 184.732 208.4ZM193.092 208.42C193.092 207.567 192.852 206.893 192.372 206.4C191.905 205.907 191.332 205.66 190.652 205.66C189.972 205.66 189.392 205.907 188.912 206.4C188.445 206.88 188.212 207.547 188.212 208.4C188.212 209.253 188.445 209.933 188.912 210.44C189.392 210.933 189.972 211.18 190.652 211.18C191.332 211.18 191.905 210.933 192.372 210.44C192.852 209.947 193.092 209.273 193.092 208.42Z" fill="white"/>
<g clip-path="url(#clip1_116_667)">
<path d="M63.0826 306.492C63.0818 306.926 62.8999 307.342 62.5768 307.649C62.2536 307.957 61.8155 308.129 61.3585 308.13H34.6397C34.1828 308.129 33.7446 307.957 33.4215 307.649C33.0983 307.342 32.9164 306.926 32.9157 306.492V279.871H63.0826V306.492ZM61.3612 267.871C61.8178 267.872 62.2553 268.044 62.578 268.352C62.9006 268.659 63.0821 269.075 63.0826 269.509V279H32.9157V269.509C32.9161 269.074 33.098 268.658 33.4212 268.351C33.7444 268.044 34.1827 267.871 34.6397 267.871H61.3612ZM61.5544 267.003H34.4465C33.7985 267.003 33.1772 267.248 32.7186 267.683C32.2601 268.119 32.0017 268.709 32 269.325V306.492C32.0017 307.156 32.2804 307.793 32.7752 308.263C33.27 308.733 33.9404 308.997 34.6397 308.998H61.3612C62.0608 308.997 62.7314 308.732 63.2261 308.262C63.7207 307.792 63.9991 307.154 64 306.489V269.325C63.9986 268.709 63.7404 268.119 63.282 267.684C62.8235 267.248 62.2023 267.003 61.5544 267.003Z" fill="white"/>
<path d="M35.5062 270.473C35.5065 270.374 35.5478 270.278 35.6213 270.208C35.6948 270.138 35.7945 270.098 35.8988 270.097H60.0995C60.2043 270.097 60.3047 270.137 60.3788 270.207C60.4528 270.278 60.4945 270.373 60.4948 270.473V276.398C60.4945 276.497 60.4528 276.593 60.3788 276.663C60.3047 276.734 60.2043 276.773 60.0995 276.774H35.8988C35.794 276.774 35.6934 276.734 35.6193 276.664C35.5452 276.593 35.5036 276.498 35.5036 276.398V270.473H35.5062ZM34.5906 276.398C34.591 276.728 34.7289 277.044 34.9741 277.278C35.2193 277.511 35.5517 277.643 35.8988 277.644H60.0995C60.447 277.644 60.7801 277.512 61.0257 277.279C61.2713 277.045 61.4093 276.728 61.4096 276.398V270.473C61.4093 270.142 61.2713 269.826 61.0257 269.592C60.7801 269.358 60.447 269.227 60.0995 269.226H35.8988C35.5513 269.227 35.2181 269.358 34.9724 269.592C34.7266 269.826 34.5884 270.142 34.5879 270.473V276.398H34.5906Z" fill="white"/>
<path d="M35.5062 281.776H38.9561V285.055H35.5062V281.776ZM35.3086 285.926H39.1537C39.3434 285.926 39.5254 285.854 39.6595 285.727C39.7937 285.599 39.8691 285.426 39.8691 285.246V281.59C39.8691 281.41 39.7937 281.237 39.6595 281.109C39.5254 280.982 39.3434 280.91 39.1537 280.91H35.3086C35.1189 280.91 34.9369 280.982 34.8028 281.109C34.6686 281.237 34.5933 281.41 34.5933 281.59V285.246C34.5933 285.426 34.6686 285.599 34.8028 285.727C34.9369 285.854 35.1189 285.926 35.3086 285.926Z" fill="white"/>
<path d="M42.6858 281.776H46.1348V285.055H42.6858V281.776ZM42.4873 285.926H46.3324C46.5221 285.926 46.7041 285.854 46.8383 285.727C46.9724 285.599 47.0478 285.426 47.0478 285.246V281.59C47.0478 281.41 46.9724 281.237 46.8383 281.109C46.7041 280.982 46.5221 280.91 46.3324 280.91H42.4873C42.2976 280.91 42.1157 280.982 41.9815 281.109C41.8473 281.237 41.772 281.41 41.772 281.59V285.246C41.772 285.426 41.8473 285.599 41.9815 285.727C42.1157 285.854 42.2976 285.926 42.4873 285.926Z" fill="white"/>
<path d="M49.8653 281.776H53.3151V285.055H49.8653V281.776ZM49.6695 285.926H53.5145C53.7043 285.926 53.8862 285.854 54.0204 285.727C54.1545 285.599 54.2299 285.426 54.2299 285.246V281.59C54.2299 281.41 54.1545 281.237 54.0204 281.109C53.8862 280.982 53.7043 280.91 53.5145 280.91H49.6695C49.4797 280.91 49.2978 280.982 49.1636 281.109C49.0295 281.237 48.9541 281.41 48.9541 281.59V285.246C48.9541 285.426 49.0295 285.599 49.1636 285.727C49.2978 285.854 49.4797 285.926 49.6695 285.926Z" fill="white"/>
<path d="M57.045 281.776H60.4948V285.055H57.045V281.776ZM56.8465 285.926H60.6915C60.8813 285.926 61.0632 285.854 61.1974 285.727C61.3315 285.599 61.4069 285.426 61.4069 285.246V281.59C61.4069 281.41 61.3315 281.237 61.1974 281.109C61.0632 280.982 60.8813 280.91 60.6915 280.91H56.8465C56.6567 280.91 56.4748 280.982 56.3406 281.109C56.2065 281.237 56.1311 281.41 56.1311 281.59V285.246C56.1311 285.426 56.2065 285.599 56.3406 285.727C56.4748 285.854 56.6567 285.926 56.8465 285.926Z" fill="white"/>
<path d="M35.5062 288.435H38.9561V291.714H35.5062V288.435ZM35.3086 292.585H39.1537C39.3434 292.585 39.5254 292.513 39.6595 292.385C39.7937 292.258 39.8691 292.085 39.8691 291.905V288.249C39.8691 288.069 39.7937 287.896 39.6595 287.768C39.5254 287.641 39.3434 287.569 39.1537 287.569H35.3086C35.1189 287.569 34.9369 287.641 34.8028 287.768C34.6686 287.896 34.5933 288.069 34.5933 288.249V291.905C34.5933 292.085 34.6686 292.258 34.8028 292.385C34.9369 292.513 35.1189 292.585 35.3086 292.585Z" fill="white"/>
<path d="M42.6858 288.435H46.1348V291.714H42.6858V288.435ZM42.4873 292.585H46.3324C46.5221 292.585 46.7041 292.513 46.8383 292.385C46.9724 292.258 47.0478 292.085 47.0478 291.905V288.249C47.0478 288.069 46.9724 287.896 46.8383 287.768C46.7041 287.641 46.5221 287.569 46.3324 287.569H42.4873C42.2976 287.569 42.1157 287.641 41.9815 287.768C41.8473 287.896 41.772 288.069 41.772 288.249V291.905C41.772 292.085 41.8473 292.258 41.9815 292.385C42.1157 292.513 42.2976 292.585 42.4873 292.585Z" fill="white"/>
<path d="M49.8653 288.435H53.3151V291.714H49.8653V288.435ZM49.6695 292.585H53.5145C53.7043 292.585 53.8862 292.513 54.0204 292.385C54.1545 292.258 54.2299 292.085 54.2299 291.905V288.249C54.2299 288.069 54.1545 287.896 54.0204 287.768C53.8862 287.641 53.7043 287.569 53.5145 287.569H49.6695C49.4797 287.569 49.2978 287.641 49.1636 287.768C49.0295 287.896 48.9541 288.069 48.9541 288.249V291.905C48.9541 292.085 49.0295 292.258 49.1636 292.385C49.2978 292.513 49.4797 292.585 49.6695 292.585Z" fill="white"/>
<path d="M57.045 288.435H60.4948V291.714H57.045V288.435ZM56.8465 292.585H60.6915C60.8813 292.585 61.0632 292.513 61.1974 292.385C61.3315 292.258 61.4069 292.085 61.4069 291.905V288.249C61.4069 288.069 61.3315 287.896 61.1974 287.768C61.0632 287.641 60.8813 287.569 60.6915 287.569H56.8465C56.6567 287.569 56.4748 287.641 56.3406 287.768C56.2065 287.896 56.1311 288.069 56.1311 288.249V291.905C56.1311 292.085 56.2065 292.258 56.3406 292.385C56.4748 292.513 56.6567 292.585 56.8465 292.585Z" fill="white"/>
<path d="M35.5062 295.094H38.9561V298.371H35.5062V295.094ZM35.3086 299.244H39.1537C39.3434 299.244 39.5254 299.173 39.6595 299.045C39.7937 298.918 39.8691 298.745 39.8691 298.564V294.909C39.8691 294.728 39.7937 294.555 39.6595 294.428C39.5254 294.3 39.3434 294.229 39.1537 294.229H35.3086C35.1189 294.229 34.9369 294.3 34.8028 294.428C34.6686 294.555 34.5933 294.728 34.5933 294.909V298.564C34.5933 298.745 34.6686 298.918 34.8028 299.045C34.9369 299.173 35.1189 299.244 35.3086 299.244Z" fill="white"/>
<path d="M42.6858 295.094H46.1348V298.371H42.6858V295.094ZM42.4873 299.244H46.3324C46.5221 299.244 46.7041 299.173 46.8383 299.045C46.9724 298.918 47.0478 298.745 47.0478 298.564V294.909C47.0478 294.728 46.9724 294.555 46.8383 294.428C46.7041 294.3 46.5221 294.229 46.3324 294.229H42.4873C42.2976 294.229 42.1157 294.3 41.9815 294.428C41.8473 294.555 41.772 294.728 41.772 294.909V298.564C41.772 298.745 41.8473 298.918 41.9815 299.045C42.1157 299.173 42.2976 299.244 42.4873 299.244Z" fill="white"/>
<path d="M49.8653 295.094H53.3151V298.371H49.8653V295.094ZM49.6695 299.244H53.5145C53.7043 299.244 53.8862 299.173 54.0204 299.045C54.1545 298.918 54.2299 298.745 54.2299 298.564V294.909C54.2299 294.728 54.1545 294.555 54.0204 294.428C53.8862 294.3 53.7043 294.229 53.5145 294.229H49.6695C49.4797 294.229 49.2978 294.3 49.1636 294.428C49.0295 294.555 48.9541 294.728 48.9541 294.909V298.564C48.9541 298.745 49.0295 298.918 49.1636 299.045C49.2978 299.173 49.4797 299.244 49.6695 299.244Z" fill="white"/>
<path d="M35.5062 301.754H38.9561V305.033H35.5062V301.754ZM35.3086 305.904H39.1537C39.3434 305.904 39.5254 305.832 39.6595 305.705C39.7937 305.577 39.8691 305.404 39.8691 305.224V301.568C39.8691 301.388 39.7937 301.215 39.6595 301.088C39.5254 300.96 39.3434 300.888 39.1537 300.888H35.3086C35.1189 300.888 34.9369 300.96 34.8028 301.088C34.6686 301.215 34.5933 301.388 34.5933 301.568V305.224C34.5933 305.404 34.6686 305.577 34.8028 305.705C34.9369 305.832 35.1189 305.904 35.3086 305.904Z" fill="white"/>
<path d="M42.6858 301.754H46.1348V305.033H42.6858V301.754ZM42.4873 305.904H46.3324C46.5221 305.904 46.7041 305.832 46.8383 305.705C46.9724 305.577 47.0478 305.404 47.0478 305.224V301.568C47.0478 301.388 46.9724 301.215 46.8383 301.088C46.7041 300.96 46.5221 300.888 46.3324 300.888H42.4873C42.2976 300.888 42.1157 300.96 41.9815 301.088C41.8473 301.215 41.772 301.388 41.772 301.568V305.224C41.772 305.404 41.8473 305.577 41.9815 305.705C42.1157 305.832 42.2976 305.904 42.4873 305.904Z" fill="white"/>
<path d="M49.8653 301.754H53.3151V305.033H49.8653V301.754ZM49.6695 305.904H53.5145C53.7043 305.904 53.8862 305.832 54.0204 305.705C54.1545 305.577 54.2299 305.404 54.2299 305.224V301.568C54.2299 301.388 54.1545 301.215 54.0204 301.088C53.8862 300.96 53.7043 300.888 53.5145 300.888H49.6695C49.4797 300.888 49.2978 300.96 49.1636 301.088C49.0295 301.215 48.9541 301.388 48.9541 301.568V305.224C48.9541 305.404 49.0295 305.577 49.1636 305.705C49.2978 305.832 49.4797 305.904 49.6695 305.904Z" fill="white"/>
<path d="M57.0448 295.094H60.4947V305.033H57.0448V295.094ZM57.0064 305.904H60.5331C60.7656 305.904 60.9885 305.816 61.1528 305.659C61.3171 305.503 61.4094 305.291 61.4094 305.07V295.056C61.4092 294.835 61.3168 294.623 61.1525 294.467C60.9882 294.311 60.7654 294.223 60.5331 294.223H57.0064C56.7739 294.223 56.5511 294.311 56.3867 294.467C56.2222 294.623 56.1296 294.835 56.1292 295.056V305.07C56.1294 305.291 56.2219 305.503 56.3863 305.659C56.5508 305.816 56.7738 305.904 57.0064 305.904Z" fill="white"/>
</g>
<path d="M92.38 295L87.66 288.8V295H84.24V280.96H87.66V287.12L92.34 280.96H96.36L90.92 287.84L96.56 295H92.38ZM97.5053 289.4C97.5053 288.253 97.7186 287.247 98.1453 286.38C98.5853 285.513 99.1786 284.847 99.9253 284.38C100.672 283.913 101.505 283.68 102.425 283.68C103.212 283.68 103.899 283.84 104.485 284.16C105.085 284.48 105.545 284.9 105.865 285.42V283.84H109.285V295H105.865V293.42C105.532 293.94 105.065 294.36 104.465 294.68C103.879 295 103.192 295.16 102.405 295.16C101.499 295.16 100.672 294.927 99.9253 294.46C99.1786 293.98 98.5853 293.307 98.1453 292.44C97.7186 291.56 97.5053 290.547 97.5053 289.4ZM105.865 289.42C105.865 288.567 105.625 287.893 105.145 287.4C104.679 286.907 104.105 286.66 103.425 286.66C102.745 286.66 102.165 286.907 101.685 287.4C101.219 287.88 100.985 288.547 100.985 289.4C100.985 290.253 101.219 290.933 101.685 291.44C102.165 291.933 102.745 292.18 103.425 292.18C104.105 292.18 104.679 291.933 105.145 291.44C105.625 290.947 105.865 290.273 105.865 289.42ZM116.3 295.16C115.326 295.16 114.46 294.993 113.7 294.66C112.94 294.327 112.34 293.873 111.9 293.3C111.46 292.713 111.213 292.06 111.16 291.34H114.54C114.58 291.727 114.76 292.04 115.08 292.28C115.4 292.52 115.793 292.64 116.26 292.64C116.686 292.64 117.013 292.56 117.24 292.4C117.48 292.227 117.6 292.007 117.6 291.74C117.6 291.42 117.433 291.187 117.1 291.04C116.766 290.88 116.226 290.707 115.48 290.52C114.68 290.333 114.013 290.14 113.48 289.94C112.946 289.727 112.486 289.4 112.1 288.96C111.713 288.507 111.52 287.9 111.52 287.14C111.52 286.5 111.693 285.92 112.04 285.4C112.4 284.867 112.92 284.447 113.6 284.14C114.293 283.833 115.113 283.68 116.06 283.68C117.46 283.68 118.56 284.027 119.36 284.72C120.173 285.413 120.64 286.333 120.76 287.48H117.6C117.546 287.093 117.373 286.787 117.08 286.56C116.8 286.333 116.426 286.22 115.96 286.22C115.56 286.22 115.253 286.3 115.04 286.46C114.826 286.607 114.72 286.813 114.72 287.08C114.72 287.4 114.886 287.64 115.22 287.8C115.566 287.96 116.1 288.12 116.82 288.28C117.646 288.493 118.32 288.707 118.84 288.92C119.36 289.12 119.813 289.453 120.2 289.92C120.6 290.373 120.806 290.987 120.82 291.76C120.82 292.413 120.633 293 120.26 293.52C119.9 294.027 119.373 294.427 118.68 294.72C118 295.013 117.206 295.16 116.3 295.16ZM124.632 282.68C124.032 282.68 123.539 282.507 123.152 282.16C122.779 281.8 122.592 281.36 122.592 280.84C122.592 280.307 122.779 279.867 123.152 279.52C123.539 279.16 124.032 278.98 124.632 278.98C125.219 278.98 125.699 279.16 126.072 279.52C126.459 279.867 126.652 280.307 126.652 280.84C126.652 281.36 126.459 281.8 126.072 282.16C125.699 282.507 125.219 282.68 124.632 282.68ZM126.332 283.84V295H122.912V283.84H126.332ZM132.23 285.7C132.63 285.087 133.13 284.607 133.73 284.26C134.33 283.9 134.997 283.72 135.73 283.72V287.34H134.79C133.937 287.34 133.297 287.527 132.87 287.9C132.444 288.26 132.23 288.9 132.23 289.82V295H128.81V283.84H132.23V285.7Z" fill="white"/>
<g clip-path="url(#clip2_116_667)">
<path d="M27.987 391.006H58.3597H58.409H58.4584H58.5016H58.5448H58.5879H58.6311H58.6743H58.7175L58.7545 390.975H58.7915L58.8347 390.938L68.704 381.251L68.7471 381.201C68.767 381.181 68.7836 381.158 68.7965 381.133L68.8335 381.078C68.8302 381.061 68.8302 381.045 68.8335 381.028V380.991C68.8335 380.991 68.8335 380.96 68.8335 380.942V380.898C68.8335 380.898 68.8335 380.898 68.8335 380.855C68.8335 380.812 68.8335 380.818 68.8335 380.806C68.8365 380.773 68.8365 380.74 68.8335 380.707V380.633V349.995C68.8335 349.732 68.7297 349.48 68.5448 349.294C68.3599 349.107 68.1089 349.002 67.8466 349H37.6404H37.5972H37.5478H37.5047H37.4553H37.4121H37.369H37.3319H37.2888L37.2456 349.031H37.2086L37.1654 349.074L27.2961 358.768L27.2468 358.817L27.1912 358.885L27.1542 358.941V358.978V359.021C27.1542 359.021 27.1542 359.021 27.1542 359.064V359.108V359.157C27.1569 359.169 27.1569 359.182 27.1542 359.194C27.1571 359.213 27.1571 359.231 27.1542 359.25C27.1542 359.25 27.1542 359.312 27.1542 359.342C27.1509 359.365 27.1509 359.388 27.1542 359.41V389.746C27.1137 389.884 27.1039 390.029 27.1253 390.172C27.1467 390.314 27.1988 390.45 27.2782 390.57C27.3575 390.69 27.462 390.791 27.5844 390.866C27.7068 390.942 27.8442 390.99 27.987 391.006ZM57.1816 389.029H28.9492V360.671H38.3435V375.944L40.9466 374.133L42.9451 375.944L44.9066 374.053L47.9599 375.944V360.671H57.2124L57.1816 389.029ZM59.1739 360.09L67.0447 352.108V379.91L59.1739 387.658V360.09ZM57.7552 358.694H49.1196L56.7066 350.983H65.3422L57.7552 358.694ZM38.2325 350.983H46.9853L39.1701 358.694H30.4049L38.2325 350.983Z" fill="white"/>
</g>
<path d="M92.74 369.8C93.5533 369.973 94.2067 370.38 94.7 371.02C95.1933 371.647 95.44 372.367 95.44 373.18C95.44 374.353 95.0267 375.287 94.2 375.98C93.3867 376.66 92.2467 377 90.78 377H84.24V362.96H90.56C91.9867 362.96 93.1 363.287 93.9 363.94C94.7133 364.593 95.12 365.48 95.12 366.6C95.12 367.427 94.9 368.113 94.46 368.66C94.0333 369.207 93.46 369.587 92.74 369.8ZM87.66 368.64H89.9C90.46 368.64 90.8867 368.52 91.18 368.28C91.4867 368.027 91.64 367.66 91.64 367.18C91.64 366.7 91.4867 366.333 91.18 366.08C90.8867 365.827 90.46 365.7 89.9 365.7H87.66V368.64ZM90.18 374.24C90.7533 374.24 91.1933 374.113 91.5 373.86C91.82 373.593 91.98 373.213 91.98 372.72C91.98 372.227 91.8133 371.84 91.48 371.56C91.16 371.28 90.7133 371.14 90.14 371.14H87.66V374.24H90.18ZM96.7436 371.4C96.7436 370.253 96.9569 369.247 97.3836 368.38C97.8236 367.513 98.4169 366.847 99.1636 366.38C99.9103 365.913 100.744 365.68 101.664 365.68C102.45 365.68 103.137 365.84 103.724 366.16C104.324 366.48 104.784 366.9 105.104 367.42V365.84H108.524V377H105.104V375.42C104.77 375.94 104.304 376.36 103.704 376.68C103.117 377 102.43 377.16 101.644 377.16C100.737 377.16 99.9103 376.927 99.1636 376.46C98.4169 375.98 97.8236 375.307 97.3836 374.44C96.9569 373.56 96.7436 372.547 96.7436 371.4ZM105.104 371.42C105.104 370.567 104.864 369.893 104.384 369.4C103.917 368.907 103.344 368.66 102.664 368.66C101.984 368.66 101.404 368.907 100.924 369.4C100.457 369.88 100.224 370.547 100.224 371.4C100.224 372.253 100.457 372.933 100.924 373.44C101.404 373.933 101.984 374.18 102.664 374.18C103.344 374.18 103.917 373.933 104.384 373.44C104.864 372.947 105.104 372.273 105.104 371.42ZM114.418 367.7C114.818 367.087 115.318 366.607 115.918 366.26C116.518 365.9 117.184 365.72 117.918 365.72V369.34H116.978C116.124 369.34 115.484 369.527 115.058 369.9C114.631 370.26 114.418 370.9 114.418 371.82V377H110.998V365.84H114.418V367.7ZM118.873 371.4C118.873 370.253 119.086 369.247 119.513 368.38C119.953 367.513 120.546 366.847 121.293 366.38C122.039 365.913 122.873 365.68 123.793 365.68C124.579 365.68 125.266 365.84 125.853 366.16C126.453 366.48 126.913 366.9 127.233 367.42V365.84H130.653V377H127.233V375.42C126.899 375.94 126.433 376.36 125.833 376.68C125.246 377 124.559 377.16 123.773 377.16C122.866 377.16 122.039 376.927 121.293 376.46C120.546 375.98 119.953 375.307 119.513 374.44C119.086 373.56 118.873 372.547 118.873 371.4ZM127.233 371.42C127.233 370.567 126.993 369.893 126.513 369.4C126.046 368.907 125.473 368.66 124.793 368.66C124.113 368.66 123.533 368.907 123.053 369.4C122.586 369.88 122.353 370.547 122.353 371.4C122.353 372.253 122.586 372.933 123.053 373.44C123.533 373.933 124.113 374.18 124.793 374.18C125.473 374.18 126.046 373.933 126.513 373.44C126.993 372.947 127.233 372.273 127.233 371.42ZM139.927 365.72C141.233 365.72 142.273 366.147 143.047 367C143.833 367.84 144.227 369 144.227 370.48V377H140.827V370.94C140.827 370.193 140.633 369.613 140.247 369.2C139.86 368.787 139.34 368.58 138.687 368.58C138.033 368.58 137.513 368.787 137.127 369.2C136.74 369.613 136.547 370.193 136.547 370.94V377H133.127V365.84H136.547V367.32C136.893 366.827 137.36 366.44 137.947 366.16C138.533 365.867 139.193 365.72 139.927 365.72ZM150.843 365.68C151.63 365.68 152.317 365.84 152.903 366.16C153.503 366.48 153.963 366.9 154.283 367.42V365.84H157.703V376.98C157.703 378.007 157.497 378.933 157.083 379.76C156.683 380.6 156.063 381.267 155.223 381.76C154.397 382.253 153.363 382.5 152.123 382.5C150.47 382.5 149.13 382.107 148.103 381.32C147.077 380.547 146.49 379.493 146.343 378.16H149.723C149.83 378.587 150.083 378.92 150.483 379.16C150.883 379.413 151.377 379.54 151.963 379.54C152.67 379.54 153.23 379.333 153.643 378.92C154.07 378.52 154.283 377.873 154.283 376.98V375.4C153.95 375.92 153.49 376.347 152.903 376.68C152.317 377 151.63 377.16 150.843 377.16C149.923 377.16 149.09 376.927 148.343 376.46C147.597 375.98 147.003 375.307 146.563 374.44C146.137 373.56 145.923 372.547 145.923 371.4C145.923 370.253 146.137 369.247 146.563 368.38C147.003 367.513 147.597 366.847 148.343 366.38C149.09 365.913 149.923 365.68 150.843 365.68ZM154.283 371.42C154.283 370.567 154.043 369.893 153.563 369.4C153.097 368.907 152.523 368.66 151.843 368.66C151.163 368.66 150.583 368.907 150.103 369.4C149.637 369.88 149.403 370.547 149.403 371.4C149.403 372.253 149.637 372.933 150.103 373.44C150.583 373.933 151.163 374.18 151.843 374.18C152.523 374.18 153.097 373.933 153.563 373.44C154.043 372.947 154.283 372.273 154.283 371.42Z" fill="white"/>
<g clip-path="url(#clip3_116_667)">
<path d="M38.8145 436.832H35.84C35.5746 436.832 35.3117 436.888 35.0665 436.998C34.8213 437.108 34.5988 437.27 34.4117 437.474C34.2246 437.678 34.0768 437.92 33.9767 438.186C33.8766 438.452 33.8263 438.738 33.8287 439.025V470.837C33.8299 471.411 34.0414 471.961 34.4168 472.367C34.7921 472.772 35.3008 473 35.8311 473H59.2549C59.7852 473 60.2938 472.772 60.6692 472.367C61.0446 471.961 61.2561 471.411 61.2573 470.837V439.025C61.2573 438.74 61.2055 438.458 61.1048 438.195C61.0042 437.932 60.8567 437.693 60.6708 437.492C60.4848 437.29 60.2641 437.131 60.0212 437.022C59.7782 436.913 59.5178 436.857 59.2549 436.857H56.2804C56.2681 436.296 56.0578 435.762 55.6928 435.364C55.3279 434.966 54.836 434.735 54.3184 434.717H52.3921C52.2671 433.951 51.897 433.256 51.3467 432.755C50.7963 432.254 50.1008 431.979 49.3819 431.977H46.1431C45.4247 431.979 44.7298 432.254 44.1802 432.756C43.6306 433.257 43.2614 433.951 43.1373 434.717H40.7721C40.259 434.736 39.7714 434.964 39.4079 435.357C39.0445 435.749 38.8324 436.277 38.8145 436.832ZM56.2267 440.155H57.6736V468.246H37.4124V440.155H38.8996C39.015 440.601 39.2599 440.994 39.598 441.277C39.936 441.56 40.3493 441.718 40.7765 441.727H54.3228C54.7547 441.724 55.1741 441.569 55.5176 441.286C55.8611 441.002 56.11 440.605 56.2267 440.155ZM59.8552 439.001V470.812C59.854 470.975 59.7935 471.13 59.6869 471.245C59.5804 471.359 59.4364 471.423 59.2862 471.423H35.84C35.6903 471.423 35.5468 471.359 35.4409 471.244C35.3351 471.13 35.2756 470.974 35.2756 470.812V439.025C35.275 438.945 35.2892 438.865 35.3174 438.79C35.3455 438.716 35.3871 438.648 35.4396 438.591C35.4921 438.534 35.5546 438.489 35.6233 438.459C35.6921 438.428 35.7657 438.413 35.84 438.414H38.81V438.622H36.7001C36.51 438.622 36.3277 438.704 36.1933 438.85C36.0589 438.995 35.9834 439.193 35.9834 439.398V469.047C35.9828 469.149 36.0009 469.25 36.0367 469.344C36.0725 469.439 36.1253 469.525 36.192 469.597C36.2587 469.669 36.3379 469.726 36.4251 469.765C36.5124 469.804 36.6058 469.823 36.7001 469.823H58.3724C58.5625 469.823 58.7448 469.741 58.8792 469.595C59.0136 469.45 59.0891 469.252 59.0891 469.047V439.374C59.0891 439.168 59.0136 438.971 58.8792 438.825C58.7448 438.68 58.5625 438.598 58.3724 438.598H56.2984V438.39H59.2638C59.3403 438.389 59.416 438.405 59.4865 438.437C59.557 438.469 59.6208 438.516 59.674 438.575C59.7272 438.635 59.7687 438.705 59.796 438.782C59.8233 438.86 59.8358 438.942 59.8328 439.025L59.8552 439.001ZM40.2659 436.954C40.2532 436.783 40.3022 436.614 40.4025 436.482C40.5028 436.35 40.6465 436.265 40.8034 436.245H43.8361C44.0266 436.245 44.2094 436.164 44.3445 436.018C44.4796 435.873 44.5561 435.676 44.5573 435.469V435.266C44.5573 434.801 44.7276 434.355 45.0307 434.026C45.3338 433.696 45.7452 433.511 46.1745 433.51H49.4132C49.8429 433.511 50.2547 433.696 50.5586 434.025C50.8624 434.354 51.0336 434.8 51.0348 435.266V435.469C51.0348 435.675 51.1103 435.873 51.2448 436.018C51.3792 436.164 51.5615 436.245 51.7516 436.245H54.3497C54.5063 436.265 54.6496 436.35 54.7492 436.482C54.8487 436.615 54.8967 436.784 54.8828 436.954V437.609V439.462C54.8967 439.632 54.8487 439.801 54.7492 439.933C54.6496 440.065 54.5063 440.15 54.3497 440.17H40.781C40.6241 440.15 40.4804 440.065 40.3801 439.933C40.2798 439.801 40.2308 439.632 40.2435 439.462V436.949L40.2659 436.954Z" fill="white"/>
<path d="M47.8108 439.274C48.2256 439.274 48.6311 439.14 48.976 438.891C49.3209 438.641 49.5896 438.286 49.7481 437.871C49.9066 437.456 49.9479 436.999 49.8666 436.559C49.7854 436.118 49.5853 435.714 49.2916 435.397C48.998 435.079 48.624 434.863 48.2171 434.776C47.8101 434.689 47.3884 434.735 47.0054 434.908C46.6224 435.08 46.2953 435.372 46.0655 435.746C45.8357 436.12 45.7135 436.559 45.7144 437.008C45.7155 437.61 45.9369 438.186 46.33 438.61C46.723 439.035 47.2556 439.274 47.8108 439.274ZM47.8108 436.29C47.9421 436.289 48.0707 436.331 48.1804 436.409C48.29 436.487 48.3756 436.599 48.4265 436.73C48.4774 436.861 48.4911 437.006 48.4661 437.145C48.441 437.285 48.3782 437.413 48.2857 437.514C48.1931 437.615 48.075 437.684 47.9463 437.712C47.8176 437.74 47.684 437.726 47.5626 437.672C47.4412 437.618 47.3374 437.526 47.2644 437.408C47.1913 437.29 47.1523 437.151 47.1523 437.008C47.1523 436.819 47.2215 436.637 47.3449 436.502C47.4683 436.368 47.6358 436.292 47.8108 436.29Z" fill="white"/>
<path d="M38.5681 446.015C38.5681 446.221 38.6435 446.419 38.7778 446.566C38.9121 446.712 39.0943 446.795 39.2848 446.796H55.4696C55.6505 446.78 55.8194 446.692 55.9425 446.547C56.0657 446.403 56.1341 446.214 56.1341 446.017C56.1341 445.821 56.0657 445.632 55.9425 445.487C55.8194 445.343 55.6505 445.254 55.4696 445.239H39.2848C39.0948 445.239 38.9125 445.321 38.778 445.466C38.6436 445.612 38.5681 445.809 38.5681 446.015Z" fill="white"/>
<path d="M48.9877 450.628H39.2848C39.0948 450.628 38.9125 450.71 38.778 450.855C38.6436 451.001 38.5681 451.198 38.5681 451.404C38.5681 451.61 38.6436 451.807 38.778 451.953C38.9125 452.099 39.0948 452.18 39.2848 452.18H48.9877C49.1777 452.18 49.36 452.099 49.4945 451.953C49.6289 451.807 49.7044 451.61 49.7044 451.404C49.7044 451.198 49.6289 451.001 49.4945 450.855C49.36 450.71 49.1777 450.628 48.9877 450.628Z" fill="white"/>
<path d="M48.9877 456.536H39.2848C39.0948 456.536 38.9125 456.618 38.778 456.764C38.6436 456.909 38.5681 457.107 38.5681 457.313C38.5681 457.518 38.6436 457.716 38.778 457.861C38.9125 458.007 39.0948 458.089 39.2848 458.089H48.9877C49.1777 458.089 49.36 458.007 49.4945 457.861C49.6289 457.716 49.7044 457.518 49.7044 457.313C49.7044 457.107 49.6289 456.909 49.4945 456.764C49.36 456.618 49.1777 456.536 48.9877 456.536Z" fill="white"/>
<path d="M48.9877 462.445H39.2848C39.0948 462.445 38.9125 462.526 38.778 462.672C38.6436 462.818 38.5681 463.015 38.5681 463.221C38.5681 463.427 38.6436 463.624 38.778 463.77C38.9125 463.915 39.0948 463.997 39.2848 463.997H48.9877C49.1777 463.997 49.36 463.915 49.4945 463.77C49.6289 463.624 49.7044 463.427 49.7044 463.221C49.7044 463.015 49.6289 462.818 49.4945 462.672C49.36 462.526 49.1777 462.445 48.9877 462.445Z" fill="white"/>
<path d="M54.345 448.896L52.5218 450.953L52.0201 450.206C51.9035 450.052 51.7367 449.952 51.5542 449.928C51.3716 449.903 51.1873 449.955 51.0394 450.074C50.8915 450.192 50.7913 450.368 50.7595 450.564C50.7278 450.76 50.7669 450.962 50.8688 451.128L51.8722 452.631C51.9352 452.722 52.0154 452.796 52.1074 452.85C52.1994 452.903 52.301 452.935 52.4053 452.942H52.4501C52.5474 452.942 52.6437 452.921 52.7331 452.879C52.8225 452.837 52.903 452.776 52.9697 452.699L55.3797 449.973C55.4497 449.901 55.5053 449.814 55.5433 449.717C55.5813 449.621 55.6009 449.517 55.6009 449.412C55.6009 449.308 55.5813 449.204 55.5432 449.108C55.5052 449.011 55.4495 448.924 55.3796 448.852C55.3097 448.779 55.2269 448.723 55.1363 448.686C55.0458 448.649 54.9492 448.633 54.8525 448.637C54.7559 448.642 54.661 448.668 54.5738 448.713C54.4866 448.758 54.4087 448.822 54.345 448.901V448.896Z" fill="white"/>
<path d="M54.3452 455.057L52.522 457.118L52.0203 456.381C51.9665 456.294 51.8968 456.219 51.8155 456.161C51.7342 456.104 51.6429 456.065 51.5473 456.047C51.4516 456.028 51.3536 456.032 51.2591 456.056C51.1645 456.08 51.0755 456.124 50.9974 456.187C50.9194 456.249 50.8538 456.329 50.8048 456.419C50.7558 456.51 50.7243 456.611 50.7123 456.715C50.7003 456.819 50.708 456.925 50.7349 457.026C50.7619 457.127 50.8075 457.221 50.869 457.303L51.8724 458.782C51.9352 458.873 52.0153 458.948 52.1072 459.003C52.1992 459.057 52.3009 459.09 52.4055 459.098H52.4503C52.5472 459.098 52.6431 459.076 52.7323 459.036C52.8216 458.995 52.9023 458.935 52.9699 458.86L55.3799 456.134C55.4452 456.06 55.4965 455.973 55.5308 455.878C55.5652 455.783 55.5819 455.682 55.58 455.58C55.5781 455.478 55.5577 455.377 55.5199 455.284C55.4822 455.19 55.4277 455.106 55.3598 455.035C55.2918 454.964 55.2117 454.909 55.1239 454.872C55.0362 454.834 54.9425 454.816 54.8483 454.818C54.7541 454.82 54.6612 454.843 54.5748 454.883C54.4885 454.924 54.4105 454.983 54.3452 455.057Z" fill="white"/>
<path d="M54.3452 461.227L52.522 463.303L52.0203 462.566C51.9665 462.478 51.8968 462.404 51.8155 462.346C51.7342 462.289 51.6429 462.25 51.5473 462.231C51.4516 462.213 51.3536 462.216 51.2591 462.24C51.1645 462.265 51.0755 462.309 50.9974 462.372C50.9194 462.434 50.8538 462.513 50.8048 462.604C50.7558 462.695 50.7243 462.796 50.7123 462.9C50.7003 463.004 50.708 463.11 50.7349 463.211C50.7619 463.312 50.8075 463.406 50.869 463.488L51.8724 464.943C51.9352 465.034 52.0153 465.109 52.1072 465.163C52.1992 465.218 52.3009 465.25 52.4055 465.258H52.4503C52.5473 465.259 52.6435 465.239 52.7329 465.198C52.8223 465.157 52.903 465.097 52.9699 465.02L55.3799 462.294C55.4452 462.221 55.4965 462.134 55.5308 462.039C55.5652 461.944 55.5819 461.842 55.58 461.74C55.5781 461.638 55.5577 461.538 55.5199 461.444C55.4822 461.351 55.4277 461.266 55.3598 461.196C55.2918 461.125 55.2117 461.069 55.1239 461.032C55.0362 460.995 54.9425 460.977 54.8483 460.979C54.7541 460.981 54.6612 461.003 54.5748 461.044C54.4885 461.085 54.4105 461.144 54.3452 461.217V461.227Z" fill="white"/>
</g>
<path d="M87.66 456.36H92.14V459H84.24V444.96H87.66V456.36ZM93.0913 453.4C93.0913 452.253 93.3046 451.247 93.7313 450.38C94.1713 449.513 94.7646 448.847 95.5113 448.38C96.2579 447.913 97.0913 447.68 98.0113 447.68C98.7979 447.68 99.4846 447.84 100.071 448.16C100.671 448.48 101.131 448.9 101.451 449.42V447.84H104.871V459H101.451V457.42C101.118 457.94 100.651 458.36 100.051 458.68C99.4646 459 98.7779 459.16 97.9913 459.16C97.0846 459.16 96.2579 458.927 95.5113 458.46C94.7646 457.98 94.1713 457.307 93.7313 456.44C93.3046 455.56 93.0913 454.547 93.0913 453.4ZM101.451 453.42C101.451 452.567 101.211 451.893 100.731 451.4C100.265 450.907 99.6913 450.66 99.0113 450.66C98.3313 450.66 97.7513 450.907 97.2713 451.4C96.8046 451.88 96.5713 452.547 96.5713 453.4C96.5713 454.253 96.8046 454.933 97.2713 455.44C97.7513 455.933 98.3313 456.18 99.0113 456.18C99.6913 456.18 100.265 455.933 100.731 455.44C101.211 454.947 101.451 454.273 101.451 453.42ZM110.765 449.42C111.099 448.9 111.559 448.48 112.145 448.16C112.732 447.84 113.419 447.68 114.205 447.68C115.125 447.68 115.959 447.913 116.705 448.38C117.452 448.847 118.039 449.513 118.465 450.38C118.905 451.247 119.125 452.253 119.125 453.4C119.125 454.547 118.905 455.56 118.465 456.44C118.039 457.307 117.452 457.98 116.705 458.46C115.959 458.927 115.125 459.16 114.205 459.16C113.432 459.16 112.745 459 112.145 458.68C111.559 458.36 111.099 457.947 110.765 457.44V464.32H107.345V447.84H110.765V449.42ZM115.645 453.4C115.645 452.547 115.405 451.88 114.925 451.4C114.459 450.907 113.879 450.66 113.185 450.66C112.505 450.66 111.925 450.907 111.445 451.4C110.979 451.893 110.745 452.567 110.745 453.42C110.745 454.273 110.979 454.947 111.445 455.44C111.925 455.933 112.505 456.18 113.185 456.18C113.865 456.18 114.445 455.933 114.925 455.44C115.405 454.933 115.645 454.253 115.645 453.4ZM126 459.16C124.906 459.16 123.92 458.927 123.04 458.46C122.173 457.993 121.486 457.327 120.98 456.46C120.486 455.593 120.24 454.58 120.24 453.42C120.24 452.273 120.493 451.267 121 450.4C121.506 449.52 122.2 448.847 123.08 448.38C123.96 447.913 124.946 447.68 126.04 447.68C127.133 447.68 128.12 447.913 129 448.38C129.88 448.847 130.573 449.52 131.08 450.4C131.586 451.267 131.84 452.273 131.84 453.42C131.84 454.567 131.58 455.58 131.06 456.46C130.553 457.327 129.853 457.993 128.96 458.46C128.08 458.927 127.093 459.16 126 459.16ZM126 456.2C126.653 456.2 127.206 455.96 127.66 455.48C128.126 455 128.36 454.313 128.36 453.42C128.36 452.527 128.133 451.84 127.68 451.36C127.24 450.88 126.693 450.64 126.04 450.64C125.373 450.64 124.82 450.88 124.38 451.36C123.94 451.827 123.72 452.513 123.72 453.42C123.72 454.313 123.933 455 124.36 455.48C124.8 455.96 125.346 456.2 126 456.2ZM137.074 449.7C137.474 449.087 137.974 448.607 138.574 448.26C139.174 447.9 139.841 447.72 140.574 447.72V451.34H139.634C138.781 451.34 138.141 451.527 137.714 451.9C137.287 452.26 137.074 452.9 137.074 453.82V459H133.654V447.84H137.074V449.7ZM141.529 453.4C141.529 452.253 141.742 451.247 142.169 450.38C142.609 449.513 143.202 448.847 143.949 448.38C144.695 447.913 145.529 447.68 146.449 447.68C147.235 447.68 147.922 447.84 148.509 448.16C149.109 448.48 149.569 448.9 149.889 449.42V447.84H153.309V459H149.889V457.42C149.555 457.94 149.089 458.36 148.489 458.68C147.902 459 147.215 459.16 146.429 459.16C145.522 459.16 144.695 458.927 143.949 458.46C143.202 457.98 142.609 457.307 142.169 456.44C141.742 455.56 141.529 454.547 141.529 453.4ZM149.889 453.42C149.889 452.567 149.649 451.893 149.169 451.4C148.702 450.907 148.129 450.66 147.449 450.66C146.769 450.66 146.189 450.907 145.709 451.4C145.242 451.88 145.009 452.547 145.009 453.4C145.009 454.253 145.242 454.933 145.709 455.44C146.189 455.933 146.769 456.18 147.449 456.18C148.129 456.18 148.702 455.933 149.169 455.44C149.649 454.947 149.889 454.273 149.889 453.42ZM162.583 447.72C163.89 447.72 164.93 448.147 165.703 449C166.49 449.84 166.883 451 166.883 452.48V459H163.483V452.94C163.483 452.193 163.29 451.613 162.903 451.2C162.516 450.787 161.996 450.58 161.343 450.58C160.69 450.58 160.17 450.787 159.783 451.2C159.396 451.613 159.203 452.193 159.203 452.94V459H155.783V447.84H159.203V449.32C159.55 448.827 160.016 448.44 160.603 448.16C161.19 447.867 161.85 447.72 162.583 447.72Z" fill="white"/>
<path d="M47.9985 531.993C53.2437 531.993 57.4958 527.741 57.4958 522.496C57.4958 517.252 53.2437 513 47.9985 513C42.7533 513 38.5012 517.252 38.5012 522.496C38.5012 527.741 42.7533 531.993 47.9985 531.993Z" fill="white"/>
<path d="M64 546.896V548.526C63.1351 549.362 62.2071 550.13 61.2242 550.822C57.35 553.541 52.7318 555 47.9986 555C43.2655 555 38.6473 553.541 34.7731 550.822C33.7906 550.131 32.8634 549.363 32 548.528V546.898C32 540.836 38.7228 534.838 47.9986 534.838C57.4959 534.836 64 540.834 64 546.896Z" fill="white"/>
<path d="M87.6 526.96V535.36C87.6 536.2 87.8067 536.847 88.22 537.3C88.6333 537.753 89.24 537.98 90.04 537.98C90.84 537.98 91.4533 537.753 91.88 537.3C92.3067 536.847 92.52 536.2 92.52 535.36V526.96H95.94V535.34C95.94 536.593 95.6733 537.653 95.14 538.52C94.6067 539.387 93.8867 540.04 92.98 540.48C92.0867 540.92 91.0867 541.14 89.98 541.14C88.8733 541.14 87.88 540.927 87 540.5C86.1333 540.06 85.4467 539.407 84.94 538.54C84.4333 537.66 84.18 536.593 84.18 535.34V526.96H87.6ZM102.882 541.16C101.908 541.16 101.042 540.993 100.282 540.66C99.5216 540.327 98.9216 539.873 98.4816 539.3C98.0416 538.713 97.7949 538.06 97.7416 537.34H101.122C101.162 537.727 101.342 538.04 101.662 538.28C101.982 538.52 102.375 538.64 102.842 538.64C103.268 538.64 103.595 538.56 103.822 538.4C104.062 538.227 104.182 538.007 104.182 537.74C104.182 537.42 104.015 537.187 103.682 537.04C103.348 536.88 102.808 536.707 102.062 536.52C101.262 536.333 100.595 536.14 100.062 535.94C99.5282 535.727 99.0682 535.4 98.6816 534.96C98.2949 534.507 98.1016 533.9 98.1016 533.14C98.1016 532.5 98.2749 531.92 98.6216 531.4C98.9816 530.867 99.5016 530.447 100.182 530.14C100.875 529.833 101.695 529.68 102.642 529.68C104.042 529.68 105.142 530.027 105.942 530.72C106.755 531.413 107.222 532.333 107.342 533.48H104.182C104.128 533.093 103.955 532.787 103.662 532.56C103.382 532.333 103.008 532.22 102.542 532.22C102.142 532.22 101.835 532.3 101.622 532.46C101.408 532.607 101.302 532.813 101.302 533.08C101.302 533.4 101.468 533.64 101.802 533.8C102.148 533.96 102.682 534.12 103.402 534.28C104.228 534.493 104.902 534.707 105.422 534.92C105.942 535.12 106.395 535.453 106.782 535.92C107.182 536.373 107.388 536.987 107.402 537.76C107.402 538.413 107.215 539 106.842 539.52C106.482 540.027 105.955 540.427 105.262 540.72C104.582 541.013 103.788 541.16 102.882 541.16ZM120.014 535.24C120.014 535.56 119.994 535.893 119.954 536.24H112.214C112.267 536.933 112.487 537.467 112.874 537.84C113.274 538.2 113.761 538.38 114.334 538.38C115.187 538.38 115.781 538.02 116.114 537.3H119.754C119.567 538.033 119.227 538.693 118.734 539.28C118.254 539.867 117.647 540.327 116.914 540.66C116.181 540.993 115.361 541.16 114.454 541.16C113.361 541.16 112.387 540.927 111.534 540.46C110.681 539.993 110.014 539.327 109.534 538.46C109.054 537.593 108.814 536.58 108.814 535.42C108.814 534.26 109.047 533.247 109.514 532.38C109.994 531.513 110.661 530.847 111.514 530.38C112.367 529.913 113.347 529.68 114.454 529.68C115.534 529.68 116.494 529.907 117.334 530.36C118.174 530.813 118.827 531.46 119.294 532.3C119.774 533.14 120.014 534.12 120.014 535.24ZM116.514 534.34C116.514 533.753 116.314 533.287 115.914 532.94C115.514 532.593 115.014 532.42 114.414 532.42C113.841 532.42 113.354 532.587 112.954 532.92C112.567 533.253 112.327 533.727 112.234 534.34H116.514ZM125.238 531.7C125.638 531.087 126.138 530.607 126.738 530.26C127.338 529.9 128.005 529.72 128.738 529.72V533.34H127.798C126.945 533.34 126.305 533.527 125.878 533.9C125.451 534.26 125.238 534.9 125.238 535.82V541H121.818V529.84H125.238V531.7Z" fill="white"/>
</g>
<defs>
<filter id="filter0_dddddd_116_667" x="165" y="127.158" width="1036" height="644.842" filterUnits="userSpaceOnUse" color-interpolation-filters="sRGB">
<feFlood flood-opacity="0" result="BackgroundImageFix"/>
<feColorMatrix in="SourceAlpha" type="matrix" values="0 0 0 0 0 0 0 0 0 0 0 0 0 0 0 0 0 0 127 0" result="hardAlpha"/>
<feOffset dy="1.54966"/>
<feGaussianBlur stdDeviation="1.1069"/>
<feColorMatrix type="matrix" values="0 0 0 0 0 0 0 0 0 0 0 0 0 0 0 0 0 0 0.04 0"/>
<feBlend mode="normal" in2="BackgroundImageFix" result="effect1_dropShadow_116_667"/>
<feColorMatrix in="SourceAlpha" type="matrix" values="0 0 0 0 0 0 0 0 0 0 0 0 0 0 0 0 0 0 127 0" result="hardAlpha"/>
<feOffset dy="3.72406"/>
<feGaussianBlur stdDeviation="2.66004"/>
<feColorMatrix type="matrix" values="0 0 0 0 0 0 0 0 0 0 0 0 0 0 0 0 0 0 0.0287542 0"/>
<feBlend mode="normal" in2="effect1_dropShadow_116_667" result="effect2_dropShadow_116_667"/>
<feColorMatrix in="SourceAlpha" type="matrix" values="0 0 0 0 0 0 0 0 0 0 0 0 0 0 0 0 0 0 127 0" result="hardAlpha"/>
<feOffset dy="7.01207"/>
<feGaussianBlur stdDeviation="5.00862"/>
<feColorMatrix type="matrix" values="0 0 0 0 0 0 0 0 0 0 0 0 0 0 0 0 0 0 0.0238443 0"/>
<feBlend mode="normal" in2="effect2_dropShadow_116_667" result="effect3_dropShadow_116_667"/>
<feColorMatrix in="SourceAlpha" type="matrix" values="0 0 0 0 0 0 0 0 0 0 0 0 0 0 0 0 0 0 127 0" result="hardAlpha"/>
<feOffset dy="12.5083"/>
<feGaussianBlur stdDeviation="8.93452"/>
<feColorMatrix type="matrix" values="0 0 0 0 0 0 0 0 0 0 0 0 0 0 0 0 0 0 0.02 0"/>
<feBlend mode="normal" in2="effect3_dropShadow_116_667" result="effect4_dropShadow_116_667"/>
<feColorMatrix in="SourceAlpha" type="matrix" values="0 0 0 0 0 0 0 0 0 0 0 0 0 0 0 0 0 0 127 0" result="hardAlpha"/>
<feOffset dy="23.3955"/>
<feGaussianBlur stdDeviation="16.711"/>
<feColorMatrix type="matrix" values="0 0 0 0 0 0 0 0 0 0 0 0 0 0 0 0 0 0 0.0161557 0"/>
<feBlend mode="normal" in2="effect4_dropShadow_116_667" result="effect5_dropShadow_116_667"/>
<feColorMatrix in="SourceAlpha" type="matrix" values="0 0 0 0 0 0 0 0 0 0 0 0 0 0 0 0 0 0 127 0" result="hardAlpha"/>
<feOffset dy="56"/>
<feGaussianBlur stdDeviation="40"/>
<feColorMatrix type="matrix" values="0 0 0 0 0 0 0 0 0 0 0 0 0 0 0 0 0 0 0.0112458 0"/>
<feBlend mode="normal" in2="effect5_dropShadow_116_667" result="effect6_dropShadow_116_667"/>
<feBlend mode="normal" in="SourceGraphic" in2="effect6_dropShadow_116_667" result="shape"/>
</filter>
<clipPath id="clip0_116_667">
<rect width="1366" height="768" fill="white"/>
</clipPath>
<clipPath id="clip1_116_667">
<rect width="32" height="42" fill="white" transform="translate(32 267)"/>
</clipPath>
<clipPath id="clip2_116_667">
<rect width="42" height="42" fill="white" transform="translate(27 349)"/>
</clipPath>
<clipPath id="clip3_116_667">
<rect width="32" height="42" fill="white" transform="translate(32 431)"/>
</clipPath>
</defs>
</svg>
