<svg width="1366" height="768" viewBox="0 0 1366 768" fill="none" xmlns="http://www.w3.org/2000/svg">
<rect width="1366" height="768" fill="#03626F"/>
<rect width="224" height="768" fill="#0B3339"/>
<rect x="16" y="657" width="192" height="58" rx="20" fill="#03626F"/>
<rect x="16" y="35" width="192" height="58" rx="20" fill="#03626F"/>
<path d="M46.983 80.7733V75.0487C46.983 73.5927 48.1706 72.4095 49.6421 72.3998H55.0321C56.5105 72.3998 57.7091 73.5858 57.7091 75.0487V75.0487V80.7911C57.7087 82.0273 58.7059 83.0377 59.9549 83.0667H63.5482C67.1303 83.0667 70.0342 80.1933 70.0342 76.6488V76.6488V60.364C70.015 58.9695 69.3534 57.6601 68.2375 56.8083L55.9484 47.0126C53.7954 45.3069 50.735 45.3069 48.5821 47.0126L36.3468 56.8261C35.2267 57.6744 34.564 58.986 34.5502 60.3817V76.6488C34.5502 80.1933 37.454 83.0667 41.0361 83.0667H44.6294C45.9094 83.0667 46.9471 82.0399 46.9471 80.7733V80.7733" stroke="white" stroke-width="2" stroke-linecap="round" stroke-linejoin="round"/>
<path d="M92.5 56.96C93.98 56.96 95.2733 57.2533 96.38 57.84C97.4867 58.4267 98.34 59.2533 98.94 60.32C99.5533 61.3733 99.86 62.5933 99.86 63.98C99.86 65.3533 99.5533 66.5733 98.94 67.64C98.34 68.7067 97.48 69.5333 96.36 70.12C95.2533 70.7067 93.9667 71 92.5 71H87.24V56.96H92.5ZM92.28 68.04C93.5733 68.04 94.58 67.6867 95.3 66.98C96.02 66.2733 96.38 65.2733 96.38 63.98C96.38 62.6867 96.02 61.68 95.3 60.96C94.58 60.24 93.5733 59.88 92.28 59.88H90.66V68.04H92.28ZM101.091 65.4C101.091 64.2533 101.305 63.2467 101.731 62.38C102.171 61.5133 102.765 60.8467 103.511 60.38C104.258 59.9133 105.091 59.68 106.011 59.68C106.798 59.68 107.485 59.84 108.071 60.16C108.671 60.48 109.131 60.9 109.451 61.42V59.84H112.871V71H109.451V69.42C109.118 69.94 108.651 70.36 108.051 70.68C107.465 71 106.778 71.16 105.991 71.16C105.085 71.16 104.258 70.9267 103.511 70.46C102.765 69.98 102.171 69.3067 101.731 68.44C101.305 67.56 101.091 66.5467 101.091 65.4ZM109.451 65.42C109.451 64.5667 109.211 63.8933 108.731 63.4C108.265 62.9067 107.691 62.66 107.011 62.66C106.331 62.66 105.751 62.9067 105.271 63.4C104.805 63.88 104.571 64.5467 104.571 65.4C104.571 66.2533 104.805 66.9333 105.271 67.44C105.751 67.9333 106.331 68.18 107.011 68.18C107.691 68.18 108.265 67.9333 108.731 67.44C109.211 66.9467 109.451 66.2733 109.451 65.42ZM119.885 71.16C118.912 71.16 118.045 70.9933 117.285 70.66C116.525 70.3267 115.925 69.8733 115.485 69.3C115.045 68.7133 114.799 68.06 114.745 67.34H118.125C118.165 67.7267 118.345 68.04 118.665 68.28C118.985 68.52 119.379 68.64 119.845 68.64C120.272 68.64 120.599 68.56 120.825 68.4C121.065 68.2267 121.185 68.0067 121.185 67.74C121.185 67.42 121.019 67.1867 120.685 67.04C120.352 66.88 119.812 66.7067 119.065 66.52C118.265 66.3333 117.599 66.14 117.065 65.94C116.532 65.7267 116.072 65.4 115.685 64.96C115.299 64.5067 115.105 63.9 115.105 63.14C115.105 62.5 115.279 61.92 115.625 61.4C115.985 60.8667 116.505 60.4467 117.185 60.14C117.879 59.8333 118.699 59.68 119.645 59.68C121.045 59.68 122.145 60.0267 122.945 60.72C123.759 61.4133 124.225 62.3333 124.345 63.48H121.185C121.132 63.0933 120.959 62.7867 120.665 62.56C120.385 62.3333 120.012 62.22 119.545 62.22C119.145 62.22 118.839 62.3 118.625 62.46C118.412 62.6067 118.305 62.8133 118.305 63.08C118.305 63.4 118.472 63.64 118.805 63.8C119.152 63.96 119.685 64.12 120.405 64.28C121.232 64.4933 121.905 64.7067 122.425 64.92C122.945 65.12 123.399 65.4533 123.785 65.92C124.185 66.3733 124.392 66.9867 124.405 67.76C124.405 68.4133 124.219 69 123.845 69.52C123.485 70.0267 122.959 70.4267 122.265 70.72C121.585 71.0133 120.792 71.16 119.885 71.16ZM133.358 59.72C134.638 59.72 135.664 60.1467 136.438 61C137.211 61.84 137.598 63 137.598 64.48V71H134.198V64.94C134.198 64.1933 134.004 63.6133 133.618 63.2C133.231 62.7867 132.711 62.58 132.058 62.58C131.404 62.58 130.884 62.7867 130.498 63.2C130.111 63.6133 129.918 64.1933 129.918 64.94V71H126.498V56.2H129.918V61.34C130.264 60.8467 130.738 60.4533 131.338 60.16C131.938 59.8667 132.611 59.72 133.358 59.72ZM143.394 61.42C143.714 60.9 144.174 60.48 144.774 60.16C145.374 59.84 146.061 59.68 146.834 59.68C147.754 59.68 148.588 59.9133 149.334 60.38C150.081 60.8467 150.668 61.5133 151.094 62.38C151.534 63.2467 151.754 64.2533 151.754 65.4C151.754 66.5467 151.534 67.56 151.094 68.44C150.668 69.3067 150.081 69.98 149.334 70.46C148.588 70.9267 147.754 71.16 146.834 71.16C146.048 71.16 145.361 71.0067 144.774 70.7C144.188 70.38 143.728 69.96 143.394 69.44V71H139.974V56.2H143.394V61.42ZM148.274 65.4C148.274 64.5467 148.034 63.88 147.554 63.4C147.088 62.9067 146.508 62.66 145.814 62.66C145.134 62.66 144.554 62.9067 144.074 63.4C143.608 63.8933 143.374 64.5667 143.374 65.42C143.374 66.2733 143.608 66.9467 144.074 67.44C144.554 67.9333 145.134 68.18 145.814 68.18C146.494 68.18 147.074 67.9333 147.554 67.44C148.034 66.9333 148.274 66.2533 148.274 65.4ZM158.629 71.16C157.535 71.16 156.549 70.9267 155.669 70.46C154.802 69.9933 154.115 69.3267 153.609 68.46C153.115 67.5933 152.869 66.58 152.869 65.42C152.869 64.2733 153.122 63.2667 153.629 62.4C154.135 61.52 154.829 60.8467 155.709 60.38C156.589 59.9133 157.575 59.68 158.669 59.68C159.762 59.68 160.749 59.9133 161.629 60.38C162.509 60.8467 163.202 61.52 163.709 62.4C164.215 63.2667 164.469 64.2733 164.469 65.42C164.469 66.5667 164.209 67.58 163.689 68.46C163.182 69.3267 162.482 69.9933 161.589 70.46C160.709 70.9267 159.722 71.16 158.629 71.16ZM158.629 68.2C159.282 68.2 159.835 67.96 160.289 67.48C160.755 67 160.989 66.3133 160.989 65.42C160.989 64.5267 160.762 63.84 160.309 63.36C159.869 62.88 159.322 62.64 158.669 62.64C158.002 62.64 157.449 62.88 157.009 63.36C156.569 63.8267 156.349 64.5133 156.349 65.42C156.349 66.3133 156.562 67 156.989 67.48C157.429 67.96 157.975 68.2 158.629 68.2ZM165.603 65.4C165.603 64.2533 165.816 63.2467 166.243 62.38C166.683 61.5133 167.276 60.8467 168.023 60.38C168.77 59.9133 169.603 59.68 170.523 59.68C171.31 59.68 171.996 59.84 172.583 60.16C173.183 60.48 173.643 60.9 173.963 61.42V59.84H177.383V71H173.963V69.42C173.63 69.94 173.163 70.36 172.563 70.68C171.976 71 171.29 71.16 170.503 71.16C169.596 71.16 168.77 70.9267 168.023 70.46C167.276 69.98 166.683 69.3067 166.243 68.44C165.816 67.56 165.603 66.5467 165.603 65.4ZM173.963 65.42C173.963 64.5667 173.723 63.8933 173.243 63.4C172.776 62.9067 172.203 62.66 171.523 62.66C170.843 62.66 170.263 62.9067 169.783 63.4C169.316 63.88 169.083 64.5467 169.083 65.4C169.083 66.2533 169.316 66.9333 169.783 67.44C170.263 67.9333 170.843 68.18 171.523 68.18C172.203 68.18 172.776 67.9333 173.243 67.44C173.723 66.9467 173.963 66.2733 173.963 65.42ZM183.277 61.7C183.677 61.0867 184.177 60.6067 184.777 60.26C185.377 59.9 186.044 59.72 186.777 59.72V63.34H185.837C184.984 63.34 184.344 63.5267 183.917 63.9C183.491 64.26 183.277 64.9 183.277 65.82V71H179.857V59.84H183.277V61.7ZM187.732 65.4C187.732 64.2533 187.945 63.2467 188.372 62.38C188.812 61.5133 189.405 60.8467 190.152 60.38C190.899 59.9133 191.732 59.68 192.652 59.68C193.385 59.68 194.052 59.8333 194.652 60.14C195.265 60.4467 195.745 60.86 196.092 61.38V56.2H199.512V71H196.092V69.4C195.772 69.9333 195.312 70.36 194.712 70.68C194.125 71 193.439 71.16 192.652 71.16C191.732 71.16 190.899 70.9267 190.152 70.46C189.405 69.98 188.812 69.3067 188.372 68.44C187.945 67.56 187.732 66.5467 187.732 65.4ZM196.092 65.42C196.092 64.5667 195.852 63.8933 195.372 63.4C194.905 62.9067 194.332 62.66 193.652 62.66C192.972 62.66 192.392 62.9067 191.912 63.4C191.445 63.88 191.212 64.5467 191.212 65.4C191.212 66.2533 191.445 66.9333 191.912 67.44C192.392 67.9333 192.972 68.18 193.652 68.18C194.332 68.18 194.905 67.9333 195.372 67.44C195.852 66.9467 196.092 66.2733 196.092 65.42Z" fill="white"/>
<rect x="16" y="124" width="192" height="58" rx="20" fill="#03626F"/>
<g clip-path="url(#clip0_2221_297)">
<path d="M63.0826 171.491C63.0818 171.926 62.8999 172.342 62.5768 172.649C62.2536 172.956 61.8155 173.129 61.3585 173.13H34.6397C34.1828 173.129 33.7446 172.956 33.4215 172.649C33.0983 172.342 32.9164 171.926 32.9157 171.491V144.871H63.0826V171.491ZM61.3612 132.871C61.8178 132.872 62.2553 133.044 62.578 133.352C62.9006 133.659 63.0821 134.075 63.0826 134.509V144H32.9157V134.509C32.9161 134.074 33.098 133.658 33.4212 133.351C33.7444 133.043 34.1827 132.871 34.6397 132.871H61.3612ZM61.5544 132.003H34.4465C33.7985 132.003 33.1772 132.248 32.7186 132.683C32.2601 133.119 32.0017 133.709 32 134.325V171.491C32.0017 172.156 32.2804 172.793 32.7752 173.263C33.27 173.733 33.9404 173.997 34.6397 173.998H61.3612C62.0608 173.997 62.7314 173.732 63.2261 173.262C63.7207 172.792 63.9991 172.154 64 171.489V134.325C63.9986 133.709 63.7404 133.119 63.282 132.684C62.8235 132.248 62.2023 132.003 61.5544 132.003Z" fill="white"/>
<path d="M35.5062 135.473C35.5064 135.374 35.5478 135.278 35.6212 135.208C35.6947 135.138 35.7944 135.098 35.8987 135.097H60.0995C60.2042 135.097 60.3046 135.137 60.3787 135.207C60.4528 135.278 60.4945 135.373 60.4947 135.473V141.398C60.4945 141.497 60.4528 141.593 60.3787 141.663C60.3046 141.734 60.2042 141.773 60.0995 141.774H35.8987C35.7939 141.774 35.6934 141.734 35.6193 141.664C35.5451 141.593 35.5035 141.498 35.5035 141.398V135.473H35.5062ZM34.5905 141.398C34.591 141.728 34.7289 142.044 34.974 142.278C35.2192 142.511 35.5517 142.643 35.8987 142.644H60.0995C60.4469 142.644 60.78 142.512 61.0256 142.279C61.2712 142.045 61.4093 141.728 61.4095 141.398V135.473C61.4093 135.142 61.2712 134.826 61.0256 134.592C60.78 134.358 60.4469 134.227 60.0995 134.226H35.8987C35.5512 134.227 35.218 134.358 34.9723 134.592C34.7266 134.826 34.5883 135.142 34.5878 135.473V141.398H34.5905Z" fill="white"/>
<path d="M35.5062 146.776H38.956V150.055H35.5062V146.776ZM35.3086 150.926H39.1536C39.3434 150.926 39.5253 150.854 39.6595 150.727C39.7936 150.599 39.869 150.426 39.869 150.246V146.59C39.869 146.41 39.7936 146.237 39.6595 146.109C39.5253 145.982 39.3434 145.91 39.1536 145.91H35.3086C35.1188 145.91 34.9369 145.982 34.8027 146.109C34.6686 146.237 34.5932 146.41 34.5932 146.59V150.246C34.5932 150.426 34.6686 150.599 34.8027 150.727C34.9369 150.854 35.1188 150.926 35.3086 150.926Z" fill="white"/>
<path d="M42.6857 146.776H46.1347V150.055H42.6857V146.776ZM42.4872 150.926H46.3323C46.522 150.926 46.704 150.854 46.8381 150.727C46.9723 150.599 47.0477 150.426 47.0477 150.246V146.59C47.0477 146.41 46.9723 146.237 46.8381 146.109C46.704 145.982 46.522 145.91 46.3323 145.91H42.4872C42.2975 145.91 42.1155 145.982 41.9814 146.109C41.8472 146.237 41.7719 146.41 41.7719 146.59V150.246C41.7719 150.426 41.8472 150.599 41.9814 150.727C42.1155 150.854 42.2975 150.926 42.4872 150.926Z" fill="white"/>
<path d="M49.8653 146.776H53.3151V150.055H49.8653V146.776ZM49.6695 150.926H53.5145C53.7043 150.926 53.8862 150.854 54.0204 150.727C54.1545 150.599 54.2299 150.426 54.2299 150.246V146.59C54.2299 146.41 54.1545 146.237 54.0204 146.109C53.8862 145.982 53.7043 145.91 53.5145 145.91H49.6695C49.4797 145.91 49.2978 145.982 49.1636 146.109C49.0295 146.237 48.9541 146.41 48.9541 146.59V150.246C48.9541 150.426 49.0295 150.599 49.1636 150.727C49.2978 150.854 49.4797 150.926 49.6695 150.926Z" fill="white"/>
<path d="M57.0449 146.776H60.4947V150.055H57.0449V146.776ZM56.8463 150.926H60.6914C60.8812 150.926 61.0631 150.854 61.1973 150.727C61.3314 150.599 61.4068 150.426 61.4068 150.246V146.59C61.4068 146.41 61.3314 146.237 61.1973 146.109C61.0631 145.982 60.8812 145.91 60.6914 145.91H56.8463C56.6566 145.91 56.4747 145.982 56.3405 146.109C56.2063 146.237 56.131 146.41 56.131 146.59V150.246C56.131 150.426 56.2063 150.599 56.3405 150.727C56.4747 150.854 56.6566 150.926 56.8463 150.926Z" fill="white"/>
<path d="M35.5062 153.435H38.956V156.714H35.5062V153.435ZM35.3086 157.585H39.1536C39.3434 157.585 39.5253 157.513 39.6595 157.385C39.7936 157.258 39.869 157.085 39.869 156.904V153.249C39.869 153.069 39.7936 152.896 39.6595 152.768C39.5253 152.641 39.3434 152.569 39.1536 152.569H35.3086C35.1188 152.569 34.9369 152.641 34.8027 152.768C34.6686 152.896 34.5932 153.069 34.5932 153.249V156.904C34.5932 157.085 34.6686 157.258 34.8027 157.385C34.9369 157.513 35.1188 157.585 35.3086 157.585Z" fill="white"/>
<path d="M42.6857 153.435H46.1347V156.714H42.6857V153.435ZM42.4872 157.585H46.3323C46.522 157.585 46.704 157.513 46.8381 157.385C46.9723 157.258 47.0477 157.085 47.0477 156.904V153.249C47.0477 153.069 46.9723 152.896 46.8381 152.768C46.704 152.641 46.522 152.569 46.3323 152.569H42.4872C42.2975 152.569 42.1155 152.641 41.9814 152.768C41.8472 152.896 41.7719 153.069 41.7719 153.249V156.904C41.7719 157.085 41.8472 157.258 41.9814 157.385C42.1155 157.513 42.2975 157.585 42.4872 157.585Z" fill="white"/>
<path d="M49.8653 153.435H53.3151V156.714H49.8653V153.435ZM49.6695 157.585H53.5145C53.7043 157.585 53.8862 157.513 54.0204 157.385C54.1545 157.258 54.2299 157.085 54.2299 156.904V153.249C54.2299 153.069 54.1545 152.896 54.0204 152.768C53.8862 152.641 53.7043 152.569 53.5145 152.569H49.6695C49.4797 152.569 49.2978 152.641 49.1636 152.768C49.0295 152.896 48.9541 153.069 48.9541 153.249V156.904C48.9541 157.085 49.0295 157.258 49.1636 157.385C49.2978 157.513 49.4797 157.585 49.6695 157.585Z" fill="white"/>
<path d="M57.0449 153.435H60.4947V156.714H57.0449V153.435ZM56.8463 157.585H60.6914C60.8812 157.585 61.0631 157.513 61.1973 157.385C61.3314 157.258 61.4068 157.085 61.4068 156.904V153.249C61.4068 153.069 61.3314 152.896 61.1973 152.768C61.0631 152.641 60.8812 152.569 60.6914 152.569H56.8463C56.6566 152.569 56.4747 152.641 56.3405 152.768C56.2063 152.896 56.131 153.069 56.131 153.249V156.904C56.131 157.085 56.2063 157.258 56.3405 157.385C56.4747 157.513 56.6566 157.585 56.8463 157.585Z" fill="white"/>
<path d="M35.5062 160.094H38.956V163.371H35.5062V160.094ZM35.3086 164.244H39.1536C39.3434 164.244 39.5253 164.173 39.6595 164.045C39.7936 163.918 39.869 163.745 39.869 163.564V159.909C39.869 159.728 39.7936 159.555 39.6595 159.428C39.5253 159.3 39.3434 159.229 39.1536 159.229H35.3086C35.1188 159.229 34.9369 159.3 34.8027 159.428C34.6686 159.555 34.5932 159.728 34.5932 159.909V163.564C34.5932 163.745 34.6686 163.918 34.8027 164.045C34.9369 164.173 35.1188 164.244 35.3086 164.244Z" fill="white"/>
<path d="M42.6857 160.094H46.1347V163.371H42.6857V160.094ZM42.4872 164.244H46.3323C46.522 164.244 46.704 164.173 46.8381 164.045C46.9723 163.918 47.0477 163.745 47.0477 163.564V159.909C47.0477 159.728 46.9723 159.555 46.8381 159.428C46.704 159.3 46.522 159.229 46.3323 159.229H42.4872C42.2975 159.229 42.1155 159.3 41.9814 159.428C41.8472 159.555 41.7719 159.728 41.7719 159.909V163.564C41.7719 163.745 41.8472 163.918 41.9814 164.045C42.1155 164.173 42.2975 164.244 42.4872 164.244Z" fill="white"/>
<path d="M49.8653 160.094H53.3151V163.371H49.8653V160.094ZM49.6695 164.244H53.5145C53.7043 164.244 53.8862 164.173 54.0204 164.045C54.1545 163.918 54.2299 163.745 54.2299 163.564V159.909C54.2299 159.728 54.1545 159.555 54.0204 159.428C53.8862 159.3 53.7043 159.229 53.5145 159.229H49.6695C49.4797 159.229 49.2978 159.3 49.1636 159.428C49.0295 159.555 48.9541 159.728 48.9541 159.909V163.564C48.9541 163.745 49.0295 163.918 49.1636 164.045C49.2978 164.173 49.4797 164.244 49.6695 164.244Z" fill="white"/>
<path d="M35.5062 166.754H38.956V170.033H35.5062V166.754ZM35.3086 170.904H39.1536C39.3434 170.904 39.5253 170.832 39.6595 170.705C39.7936 170.577 39.869 170.404 39.869 170.224V166.568C39.869 166.388 39.7936 166.215 39.6595 166.088C39.5253 165.96 39.3434 165.888 39.1536 165.888H35.3086C35.1188 165.888 34.9369 165.96 34.8027 166.088C34.6686 166.215 34.5932 166.388 34.5932 166.568V170.224C34.5932 170.404 34.6686 170.577 34.8027 170.705C34.9369 170.832 35.1188 170.904 35.3086 170.904Z" fill="white"/>
<path d="M42.6857 166.754H46.1347V170.033H42.6857V166.754ZM42.4872 170.904H46.3323C46.522 170.904 46.704 170.832 46.8381 170.705C46.9723 170.577 47.0477 170.404 47.0477 170.224V166.568C47.0477 166.388 46.9723 166.215 46.8381 166.088C46.704 165.96 46.522 165.888 46.3323 165.888H42.4872C42.2975 165.888 42.1155 165.96 41.9814 166.088C41.8472 166.215 41.7719 166.388 41.7719 166.568V170.224C41.7719 170.404 41.8472 170.577 41.9814 170.705C42.1155 170.832 42.2975 170.904 42.4872 170.904Z" fill="white"/>
<path d="M49.8653 166.754H53.3151V170.033H49.8653V166.754ZM49.6695 170.904H53.5145C53.7043 170.904 53.8862 170.832 54.0204 170.705C54.1545 170.577 54.2299 170.404 54.2299 170.224V166.568C54.2299 166.388 54.1545 166.215 54.0204 166.088C53.8862 165.96 53.7043 165.888 53.5145 165.888H49.6695C49.4797 165.888 49.2978 165.96 49.1636 166.088C49.0295 166.215 48.9541 166.388 48.9541 166.568V170.224C48.9541 170.404 49.0295 170.577 49.1636 170.705C49.2978 170.832 49.4797 170.904 49.6695 170.904Z" fill="white"/>
<path d="M57.0449 160.094H60.4947V170.033H57.0449V160.094ZM57.0064 170.904H60.5332C60.7657 170.904 60.9886 170.816 61.1529 170.659C61.3172 170.503 61.4095 170.291 61.4095 170.07V160.056C61.4093 159.835 61.3169 159.623 61.1526 159.467C60.9883 159.311 60.7655 159.223 60.5332 159.223H57.0064C56.774 159.223 56.5512 159.311 56.3867 159.467C56.2223 159.623 56.1297 159.835 56.1292 160.056V170.07C56.1294 170.291 56.2219 170.503 56.3864 170.659C56.5509 170.816 56.7738 170.904 57.0064 170.904Z" fill="white"/>
</g>
<path d="M95.38 160L90.66 153.8V160H87.24V145.96H90.66V152.12L95.34 145.96H99.36L93.92 152.84L99.56 160H95.38ZM100.505 154.4C100.505 153.253 100.719 152.247 101.145 151.38C101.585 150.513 102.179 149.847 102.925 149.38C103.672 148.913 104.505 148.68 105.425 148.68C106.212 148.68 106.899 148.84 107.485 149.16C108.085 149.48 108.545 149.9 108.865 150.42V148.84H112.285V160H108.865V158.42C108.532 158.94 108.065 159.36 107.465 159.68C106.879 160 106.192 160.16 105.405 160.16C104.499 160.16 103.672 159.927 102.925 159.46C102.179 158.98 101.585 158.307 101.145 157.44C100.719 156.56 100.505 155.547 100.505 154.4ZM108.865 154.42C108.865 153.567 108.625 152.893 108.145 152.4C107.679 151.907 107.105 151.66 106.425 151.66C105.745 151.66 105.165 151.907 104.685 152.4C104.219 152.88 103.985 153.547 103.985 154.4C103.985 155.253 104.219 155.933 104.685 156.44C105.165 156.933 105.745 157.18 106.425 157.18C107.105 157.18 107.679 156.933 108.145 156.44C108.625 155.947 108.865 155.273 108.865 154.42ZM119.3 160.16C118.326 160.16 117.46 159.993 116.7 159.66C115.94 159.327 115.34 158.873 114.9 158.3C114.46 157.713 114.213 157.06 114.16 156.34H117.54C117.58 156.727 117.76 157.04 118.08 157.28C118.4 157.52 118.793 157.64 119.26 157.64C119.686 157.64 120.013 157.56 120.24 157.4C120.48 157.227 120.6 157.007 120.6 156.74C120.6 156.42 120.433 156.187 120.1 156.04C119.766 155.88 119.226 155.707 118.48 155.52C117.68 155.333 117.013 155.14 116.48 154.94C115.946 154.727 115.486 154.4 115.1 153.96C114.713 153.507 114.52 152.9 114.52 152.14C114.52 151.5 114.693 150.92 115.04 150.4C115.4 149.867 115.92 149.447 116.6 149.14C117.293 148.833 118.113 148.68 119.06 148.68C120.46 148.68 121.56 149.027 122.36 149.72C123.173 150.413 123.64 151.333 123.76 152.48H120.6C120.546 152.093 120.373 151.787 120.08 151.56C119.8 151.333 119.426 151.22 118.96 151.22C118.56 151.22 118.253 151.3 118.04 151.46C117.826 151.607 117.72 151.813 117.72 152.08C117.72 152.4 117.886 152.64 118.22 152.8C118.566 152.96 119.1 153.12 119.82 153.28C120.646 153.493 121.32 153.707 121.84 153.92C122.36 154.12 122.813 154.453 123.2 154.92C123.6 155.373 123.806 155.987 123.82 156.76C123.82 157.413 123.633 158 123.26 158.52C122.9 159.027 122.373 159.427 121.68 159.72C121 160.013 120.206 160.16 119.3 160.16ZM127.632 147.68C127.032 147.68 126.539 147.507 126.152 147.16C125.779 146.8 125.592 146.36 125.592 145.84C125.592 145.307 125.779 144.867 126.152 144.52C126.539 144.16 127.032 143.98 127.632 143.98C128.219 143.98 128.699 144.16 129.072 144.52C129.459 144.867 129.652 145.307 129.652 145.84C129.652 146.36 129.459 146.8 129.072 147.16C128.699 147.507 128.219 147.68 127.632 147.68ZM129.332 148.84V160H125.912V148.84H129.332ZM135.23 150.7C135.63 150.087 136.13 149.607 136.73 149.26C137.33 148.9 137.997 148.72 138.73 148.72V152.34H137.79C136.937 152.34 136.297 152.527 135.87 152.9C135.444 153.26 135.23 153.9 135.23 154.82V160H131.81V148.84H135.23V150.7Z" fill="white"/>
<rect x="16" y="213" width="192" height="58" rx="20" fill="#03626F"/>
<g clip-path="url(#clip1_2221_297)">
<path d="M32.9399 262.006H61.8663H61.9133H61.9603H62.0014H62.0426H62.0837H62.1248H62.1659H62.2071L62.2423 261.976H62.2775L62.3187 261.941L71.718 252.715L71.7591 252.668C71.778 252.649 71.7939 252.627 71.8061 252.603L71.8414 252.55C71.8382 252.535 71.8382 252.519 71.8414 252.503V252.468C71.8414 252.468 71.8414 252.438 71.8414 252.421V252.38C71.8414 252.38 71.8414 252.38 71.8414 252.338C71.8414 252.297 71.8414 252.303 71.8414 252.291C71.8442 252.26 71.8442 252.228 71.8414 252.197V252.127V222.947C71.8414 222.697 71.7425 222.457 71.5664 222.28C71.3903 222.102 71.1513 222.002 70.9014 222H42.1336H42.0925H42.0455H42.0044H41.9574H41.9163H41.8751H41.8399H41.7988L41.7576 222.029H41.7224L41.6813 222.071L32.282 231.303L32.235 231.35L32.1821 231.415L32.1468 231.467V231.503V231.544C32.1468 231.544 32.1468 231.544 32.1468 231.585V231.626V231.673C32.1494 231.685 32.1494 231.697 32.1468 231.709C32.1496 231.726 32.1496 231.744 32.1468 231.762C32.1468 231.762 32.1468 231.821 32.1468 231.85C32.1436 231.871 32.1436 231.893 32.1468 231.915V260.806C32.1083 260.937 32.0989 261.075 32.1192 261.211C32.1396 261.347 32.1893 261.476 32.2649 261.59C32.3404 261.705 32.4399 261.801 32.5565 261.873C32.6731 261.945 32.804 261.99 32.9399 262.006ZM60.7443 260.123H33.8563V233.115H42.8033V247.66L45.2824 245.936L47.1858 247.66L49.0539 245.86L51.9618 247.66V233.115H60.7737L60.7443 260.123ZM62.6418 232.562L70.1377 224.96V251.438L62.6418 258.817V232.562ZM61.2906 231.232H53.0662L60.2919 223.889H68.5164L61.2906 231.232ZM42.6976 223.889H51.0336L43.5905 231.232H35.2427L42.6976 223.889Z" fill="white"/>
</g>
<path d="M97.74 239.8C98.5533 239.973 99.2067 240.38 99.7 241.02C100.193 241.647 100.44 242.367 100.44 243.18C100.44 244.353 100.027 245.287 99.2 245.98C98.3867 246.66 97.2467 247 95.78 247H89.24V232.96H95.56C96.9867 232.96 98.1 233.287 98.9 233.94C99.7133 234.593 100.12 235.48 100.12 236.6C100.12 237.427 99.9 238.113 99.46 238.66C99.0333 239.207 98.46 239.587 97.74 239.8ZM92.66 238.64H94.9C95.46 238.64 95.8867 238.52 96.18 238.28C96.4867 238.027 96.64 237.66 96.64 237.18C96.64 236.7 96.4867 236.333 96.18 236.08C95.8867 235.827 95.46 235.7 94.9 235.7H92.66V238.64ZM95.18 244.24C95.7533 244.24 96.1933 244.113 96.5 243.86C96.82 243.593 96.98 243.213 96.98 242.72C96.98 242.227 96.8133 241.84 96.48 241.56C96.16 241.28 95.7133 241.14 95.14 241.14H92.66V244.24H95.18ZM101.744 241.4C101.744 240.253 101.957 239.247 102.384 238.38C102.824 237.513 103.417 236.847 104.164 236.38C104.91 235.913 105.744 235.68 106.664 235.68C107.45 235.68 108.137 235.84 108.724 236.16C109.324 236.48 109.784 236.9 110.104 237.42V235.84H113.524V247H110.104V245.42C109.77 245.94 109.304 246.36 108.704 246.68C108.117 247 107.43 247.16 106.644 247.16C105.737 247.16 104.91 246.927 104.164 246.46C103.417 245.98 102.824 245.307 102.384 244.44C101.957 243.56 101.744 242.547 101.744 241.4ZM110.104 241.42C110.104 240.567 109.864 239.893 109.384 239.4C108.917 238.907 108.344 238.66 107.664 238.66C106.984 238.66 106.404 238.907 105.924 239.4C105.457 239.88 105.224 240.547 105.224 241.4C105.224 242.253 105.457 242.933 105.924 243.44C106.404 243.933 106.984 244.18 107.664 244.18C108.344 244.18 108.917 243.933 109.384 243.44C109.864 242.947 110.104 242.273 110.104 241.42ZM119.418 237.7C119.818 237.087 120.318 236.607 120.918 236.26C121.518 235.9 122.184 235.72 122.918 235.72V239.34H121.978C121.124 239.34 120.484 239.527 120.058 239.9C119.631 240.26 119.418 240.9 119.418 241.82V247H115.998V235.84H119.418V237.7ZM123.873 241.4C123.873 240.253 124.086 239.247 124.513 238.38C124.953 237.513 125.546 236.847 126.293 236.38C127.039 235.913 127.873 235.68 128.793 235.68C129.579 235.68 130.266 235.84 130.853 236.16C131.453 236.48 131.913 236.9 132.233 237.42V235.84H135.653V247H132.233V245.42C131.899 245.94 131.433 246.36 130.833 246.68C130.246 247 129.559 247.16 128.773 247.16C127.866 247.16 127.039 246.927 126.293 246.46C125.546 245.98 124.953 245.307 124.513 244.44C124.086 243.56 123.873 242.547 123.873 241.4ZM132.233 241.42C132.233 240.567 131.993 239.893 131.513 239.4C131.046 238.907 130.473 238.66 129.793 238.66C129.113 238.66 128.533 238.907 128.053 239.4C127.586 239.88 127.353 240.547 127.353 241.4C127.353 242.253 127.586 242.933 128.053 243.44C128.533 243.933 129.113 244.18 129.793 244.18C130.473 244.18 131.046 243.933 131.513 243.44C131.993 242.947 132.233 242.273 132.233 241.42ZM144.927 235.72C146.233 235.72 147.273 236.147 148.047 237C148.833 237.84 149.227 239 149.227 240.48V247H145.827V240.94C145.827 240.193 145.633 239.613 145.247 239.2C144.86 238.787 144.34 238.58 143.687 238.58C143.033 238.58 142.513 238.787 142.127 239.2C141.74 239.613 141.547 240.193 141.547 240.94V247H138.127V235.84H141.547V237.32C141.893 236.827 142.36 236.44 142.947 236.16C143.533 235.867 144.193 235.72 144.927 235.72ZM155.843 235.68C156.63 235.68 157.317 235.84 157.903 236.16C158.503 236.48 158.963 236.9 159.283 237.42V235.84H162.703V246.98C162.703 248.007 162.497 248.933 162.083 249.76C161.683 250.6 161.063 251.267 160.223 251.76C159.397 252.253 158.363 252.5 157.123 252.5C155.47 252.5 154.13 252.107 153.103 251.32C152.077 250.547 151.49 249.493 151.343 248.16H154.723C154.83 248.587 155.083 248.92 155.483 249.16C155.883 249.413 156.377 249.54 156.963 249.54C157.67 249.54 158.23 249.333 158.643 248.92C159.07 248.52 159.283 247.873 159.283 246.98V245.4C158.95 245.92 158.49 246.347 157.903 246.68C157.317 247 156.63 247.16 155.843 247.16C154.923 247.16 154.09 246.927 153.343 246.46C152.597 245.98 152.003 245.307 151.563 244.44C151.137 243.56 150.923 242.547 150.923 241.4C150.923 240.253 151.137 239.247 151.563 238.38C152.003 237.513 152.597 236.847 153.343 236.38C154.09 235.913 154.923 235.68 155.843 235.68ZM159.283 241.42C159.283 240.567 159.043 239.893 158.563 239.4C158.097 238.907 157.523 238.66 156.843 238.66C156.163 238.66 155.583 238.907 155.103 239.4C154.637 239.88 154.403 240.547 154.403 241.4C154.403 242.253 154.637 242.933 155.103 243.44C155.583 243.933 156.163 244.18 156.843 244.18C157.523 244.18 158.097 243.933 158.563 243.44C159.043 242.947 159.283 242.273 159.283 241.42Z" fill="white"/>
<rect x="16" y="302" width="192" height="58" rx="20" fill="#03626F"/>
<g clip-path="url(#clip2_2221_297)">
<path d="M38.8144 315.832H35.84C35.5745 315.832 35.3116 315.888 35.0664 315.998C34.8213 316.108 34.5987 316.27 34.4116 316.474C34.2246 316.678 34.0767 316.92 33.9766 317.186C33.8766 317.452 33.8263 317.738 33.8286 318.025V349.837C33.8298 350.411 34.0413 350.961 34.4167 351.367C34.7921 351.772 35.3007 352 35.831 352H59.2548C59.7851 352 60.2937 351.772 60.6691 351.367C61.0445 350.961 61.256 350.411 61.2572 349.837V318.025C61.2572 317.74 61.2054 317.458 61.1048 317.195C61.0042 316.932 60.8567 316.693 60.6707 316.492C60.4848 316.29 60.264 316.131 60.0211 316.022C59.7782 315.913 59.5178 315.857 59.2548 315.857H56.2804C56.268 315.296 56.0577 314.762 55.6928 314.364C55.3278 313.966 54.836 313.735 54.3183 313.717H52.3921C52.267 312.951 51.8969 312.256 51.3466 311.755C50.7963 311.254 50.1008 310.979 49.3818 310.977H46.143C45.4246 310.979 44.7297 311.254 44.1801 311.756C43.6306 312.257 43.2614 312.951 43.1372 313.717H40.772C40.2589 313.736 39.7713 313.964 39.4079 314.357C39.0444 314.749 38.8323 315.277 38.8144 315.832ZM56.2266 319.155H57.6735V347.246H37.4123V319.155H38.8995C39.015 319.601 39.2598 319.994 39.5979 320.277C39.936 320.56 40.3492 320.718 40.7765 320.727H54.3228C54.7547 320.724 55.174 320.569 55.5175 320.286C55.861 320.002 56.1099 319.605 56.2266 319.155ZM59.8551 318.001V349.812C59.8539 349.975 59.7934 350.13 59.6869 350.245C59.5803 350.359 59.4363 350.423 59.2862 350.423H35.84C35.6903 350.423 35.5467 350.359 35.4409 350.244C35.335 350.13 35.2755 349.974 35.2755 349.812V318.025C35.2749 317.945 35.2891 317.865 35.3173 317.79C35.3454 317.716 35.387 317.648 35.4395 317.591C35.4921 317.534 35.5545 317.489 35.6233 317.459C35.692 317.428 35.7657 317.413 35.84 317.414H38.8099V317.622H36.7001C36.51 317.622 36.3277 317.704 36.1932 317.85C36.0588 317.995 35.9833 318.193 35.9833 318.398V348.047C35.9827 348.149 36.0009 348.25 36.0367 348.344C36.0725 348.439 36.1252 348.525 36.1919 348.597C36.2586 348.669 36.3378 348.726 36.4251 348.765C36.5123 348.804 36.6058 348.823 36.7001 348.823H58.3723C58.5624 348.823 58.7447 348.741 58.8792 348.595C59.0136 348.45 59.0891 348.252 59.0891 348.047V318.374C59.0891 318.168 59.0136 317.971 58.8792 317.825C58.7447 317.68 58.5624 317.598 58.3723 317.598H56.2983V317.39H59.2638C59.3402 317.389 59.416 317.405 59.4865 317.437C59.557 317.469 59.6208 317.516 59.674 317.575C59.7272 317.635 59.7687 317.705 59.7959 317.782C59.8232 317.86 59.8357 317.942 59.8327 318.025L59.8551 318.001ZM40.2658 315.954C40.2532 315.783 40.3021 315.614 40.4024 315.482C40.5027 315.35 40.6465 315.265 40.8034 315.245H43.8361C44.0266 315.245 44.2093 315.164 44.3444 315.018C44.4796 314.873 44.5561 314.676 44.5573 314.469V314.266C44.5573 313.801 44.7275 313.355 45.0306 313.026C45.3338 312.696 45.7451 312.511 46.1744 312.51H49.4131C49.8429 312.511 50.2546 312.696 50.5585 313.025C50.8624 313.354 51.0336 313.8 51.0348 314.266V314.469C51.0348 314.675 51.1103 314.873 51.2447 315.018C51.3791 315.164 51.5614 315.245 51.7515 315.245H54.3497C54.5062 315.265 54.6495 315.35 54.7491 315.482C54.8487 315.615 54.8966 315.784 54.8827 315.954V316.609V318.462C54.8966 318.632 54.8487 318.801 54.7491 318.933C54.6495 319.065 54.5062 319.15 54.3497 319.17H40.781C40.6241 319.15 40.4803 319.065 40.38 318.933C40.2797 318.801 40.2308 318.632 40.2434 318.462V315.949L40.2658 315.954Z" fill="white"/>
<path d="M47.8108 318.274C48.2256 318.274 48.6311 318.14 48.9759 317.891C49.3208 317.641 49.5895 317.286 49.748 316.871C49.9066 316.456 49.9478 315.999 49.8666 315.559C49.7853 315.118 49.5852 314.714 49.2916 314.397C48.9979 314.079 48.624 313.863 48.217 313.776C47.81 313.689 47.3884 313.735 47.0054 313.908C46.6224 314.08 46.2953 314.372 46.0654 314.746C45.8356 315.12 45.7134 315.559 45.7143 316.008C45.7155 316.61 45.9369 317.186 46.3299 317.61C46.7229 318.035 47.2555 318.274 47.8108 318.274ZM47.8108 315.29C47.9421 315.289 48.0707 315.331 48.1803 315.409C48.2899 315.487 48.3756 315.599 48.4265 315.73C48.4773 315.861 48.4911 316.006 48.466 316.145C48.4409 316.285 48.3782 316.413 48.2856 316.514C48.1931 316.615 48.075 316.684 47.9462 316.712C47.8175 316.74 47.684 316.726 47.5626 316.672C47.4412 316.618 47.3374 316.526 47.2643 316.408C47.1913 316.29 47.1523 316.151 47.1523 316.008C47.1522 315.819 47.2215 315.637 47.3448 315.502C47.4682 315.368 47.6357 315.292 47.8108 315.29Z" fill="white"/>
<path d="M38.5681 325.015C38.5681 325.221 38.6434 325.419 38.7777 325.565C38.912 325.712 39.0943 325.795 39.2848 325.796H55.4696C55.6505 325.78 55.8193 325.692 55.9425 325.547C56.0656 325.403 56.134 325.214 56.134 325.017C56.134 324.821 56.0656 324.632 55.9425 324.487C55.8193 324.343 55.6505 324.254 55.4696 324.239H39.2848C39.0947 324.239 38.9124 324.321 38.778 324.466C38.6436 324.612 38.5681 324.809 38.5681 325.015Z" fill="white"/>
<path d="M48.9876 329.628H39.2848C39.0947 329.628 38.9124 329.71 38.778 329.855C38.6436 330.001 38.5681 330.198 38.5681 330.404C38.5681 330.61 38.6436 330.808 38.778 330.953C38.9124 331.099 39.0947 331.18 39.2848 331.18H48.9876C49.1777 331.18 49.36 331.099 49.4944 330.953C49.6288 330.808 49.7043 330.61 49.7043 330.404C49.7043 330.198 49.6288 330.001 49.4944 329.855C49.36 329.71 49.1777 329.628 48.9876 329.628Z" fill="white"/>
<path d="M48.9876 335.536H39.2848C39.0947 335.536 38.9124 335.618 38.778 335.764C38.6436 335.909 38.5681 336.107 38.5681 336.313C38.5681 336.518 38.6436 336.716 38.778 336.861C38.9124 337.007 39.0947 337.089 39.2848 337.089H48.9876C49.1777 337.089 49.36 337.007 49.4944 336.861C49.6288 336.716 49.7043 336.518 49.7043 336.313C49.7043 336.107 49.6288 335.909 49.4944 335.764C49.36 335.618 49.1777 335.536 48.9876 335.536Z" fill="white"/>
<path d="M48.9876 341.445H39.2848C39.0947 341.445 38.9124 341.526 38.778 341.672C38.6436 341.818 38.5681 342.015 38.5681 342.221C38.5681 342.427 38.6436 342.624 38.778 342.77C38.9124 342.915 39.0947 342.997 39.2848 342.997H48.9876C49.1777 342.997 49.36 342.915 49.4944 342.77C49.6288 342.624 49.7043 342.427 49.7043 342.221C49.7043 342.015 49.6288 341.818 49.4944 341.672C49.36 341.526 49.1777 341.445 48.9876 341.445Z" fill="white"/>
<path d="M54.3451 327.896L52.5219 329.953L52.0202 329.206C51.9036 329.052 51.7368 328.952 51.5543 328.928C51.3718 328.903 51.1875 328.955 51.0395 329.074C50.8916 329.192 50.7914 329.368 50.7597 329.564C50.7279 329.76 50.767 329.962 50.8689 330.128L51.8723 331.631C51.9353 331.722 52.0156 331.796 52.1076 331.85C52.1996 331.903 52.3012 331.935 52.4054 331.942H52.4502C52.5475 331.942 52.6439 331.921 52.7332 331.879C52.8226 331.837 52.9031 331.776 52.9698 331.699L55.3799 328.973C55.4498 328.901 55.5054 328.814 55.5434 328.717C55.5814 328.621 55.601 328.517 55.601 328.412C55.601 328.308 55.5814 328.204 55.5434 328.108C55.5053 328.011 55.4497 327.924 55.3797 327.852C55.3098 327.779 55.2271 327.723 55.1365 327.686C55.0459 327.649 54.9493 327.633 54.8527 327.637C54.756 327.642 54.6612 327.668 54.5739 327.713C54.4867 327.758 54.4088 327.822 54.3451 327.901V327.896Z" fill="white"/>
<path d="M54.3451 334.057L52.5219 336.118L52.0202 335.381C51.9664 335.294 51.8967 335.219 51.8154 335.161C51.7341 335.104 51.6429 335.065 51.5472 335.047C51.4516 335.028 51.3535 335.032 51.259 335.056C51.1645 335.08 51.0755 335.124 50.9974 335.187C50.9193 335.249 50.8537 335.329 50.8047 335.419C50.7557 335.51 50.7242 335.611 50.7122 335.715C50.7002 335.819 50.7079 335.925 50.7349 336.026C50.7618 336.127 50.8074 336.221 50.8689 336.303L51.8724 337.782C51.9351 337.873 52.0152 337.948 52.1072 338.003C52.1992 338.057 52.3009 338.09 52.4054 338.098H52.4502C52.5471 338.098 52.643 338.076 52.7322 338.036C52.8215 337.995 52.9023 337.935 52.9699 337.86L55.3799 335.134C55.4452 335.06 55.4965 334.973 55.5308 334.878C55.5651 334.783 55.5818 334.682 55.5799 334.58C55.5781 334.478 55.5577 334.377 55.5199 334.284C55.4821 334.19 55.4277 334.106 55.3597 334.035C55.2918 333.964 55.2116 333.909 55.1239 333.872C55.0361 333.834 54.9425 333.816 54.8482 333.818C54.754 333.82 54.6611 333.843 54.5748 333.883C54.4884 333.924 54.4104 333.983 54.3451 334.057Z" fill="white"/>
<path d="M54.3451 340.227L52.5219 342.303L52.0202 341.566C51.9664 341.478 51.8967 341.404 51.8154 341.346C51.7341 341.289 51.6429 341.25 51.5472 341.231C51.4516 341.213 51.3535 341.216 51.259 341.24C51.1645 341.265 51.0755 341.309 50.9974 341.372C50.9193 341.434 50.8537 341.513 50.8047 341.604C50.7557 341.695 50.7242 341.795 50.7122 341.9C50.7002 342.004 50.7079 342.11 50.7349 342.211C50.7618 342.312 50.8074 342.406 50.8689 342.488L51.8724 343.943C51.9351 344.034 52.0152 344.109 52.1072 344.163C52.1992 344.218 52.3009 344.25 52.4054 344.258H52.4502C52.5473 344.259 52.6435 344.239 52.7329 344.198C52.8223 344.157 52.9029 344.096 52.9699 344.02L55.3799 341.294C55.4452 341.221 55.4965 341.134 55.5308 341.039C55.5651 340.944 55.5818 340.842 55.5799 340.74C55.5781 340.638 55.5577 340.538 55.5199 340.444C55.4821 340.351 55.4277 340.266 55.3597 340.196C55.2918 340.125 55.2116 340.069 55.1239 340.032C55.0361 339.995 54.9425 339.977 54.8482 339.979C54.754 339.981 54.6611 340.003 54.5748 340.044C54.4884 340.085 54.4104 340.144 54.3451 340.217V340.227Z" fill="white"/>
</g>
<path d="M94.66 335.36H99.14V338H91.24V323.96H94.66V335.36ZM100.091 332.4C100.091 331.253 100.305 330.247 100.731 329.38C101.171 328.513 101.765 327.847 102.511 327.38C103.258 326.913 104.091 326.68 105.011 326.68C105.798 326.68 106.485 326.84 107.071 327.16C107.671 327.48 108.131 327.9 108.451 328.42V326.84H111.871V338H108.451V336.42C108.118 336.94 107.651 337.36 107.051 337.68C106.465 338 105.778 338.16 104.991 338.16C104.085 338.16 103.258 337.927 102.511 337.46C101.765 336.98 101.171 336.307 100.731 335.44C100.305 334.56 100.091 333.547 100.091 332.4ZM108.451 332.42C108.451 331.567 108.211 330.893 107.731 330.4C107.265 329.907 106.691 329.66 106.011 329.66C105.331 329.66 104.751 329.907 104.271 330.4C103.805 330.88 103.571 331.547 103.571 332.4C103.571 333.253 103.805 333.933 104.271 334.44C104.751 334.933 105.331 335.18 106.011 335.18C106.691 335.18 107.265 334.933 107.731 334.44C108.211 333.947 108.451 333.273 108.451 332.42ZM117.765 328.42C118.099 327.9 118.559 327.48 119.145 327.16C119.732 326.84 120.419 326.68 121.205 326.68C122.125 326.68 122.959 326.913 123.705 327.38C124.452 327.847 125.039 328.513 125.465 329.38C125.905 330.247 126.125 331.253 126.125 332.4C126.125 333.547 125.905 334.56 125.465 335.44C125.039 336.307 124.452 336.98 123.705 337.46C122.959 337.927 122.125 338.16 121.205 338.16C120.432 338.16 119.745 338 119.145 337.68C118.559 337.36 118.099 336.947 117.765 336.44V343.32H114.345V326.84H117.765V328.42ZM122.645 332.4C122.645 331.547 122.405 330.88 121.925 330.4C121.459 329.907 120.879 329.66 120.185 329.66C119.505 329.66 118.925 329.907 118.445 330.4C117.979 330.893 117.745 331.567 117.745 332.42C117.745 333.273 117.979 333.947 118.445 334.44C118.925 334.933 119.505 335.18 120.185 335.18C120.865 335.18 121.445 334.933 121.925 334.44C122.405 333.933 122.645 333.253 122.645 332.4ZM133 338.16C131.906 338.16 130.92 337.927 130.04 337.46C129.173 336.993 128.486 336.327 127.98 335.46C127.486 334.593 127.24 333.58 127.24 332.42C127.24 331.273 127.493 330.267 128 329.4C128.506 328.52 129.2 327.847 130.08 327.38C130.96 326.913 131.946 326.68 133.04 326.68C134.133 326.68 135.12 326.913 136 327.38C136.88 327.847 137.573 328.52 138.08 329.4C138.586 330.267 138.84 331.273 138.84 332.42C138.84 333.567 138.58 334.58 138.06 335.46C137.553 336.327 136.853 336.993 135.96 337.46C135.08 337.927 134.093 338.16 133 338.16ZM133 335.2C133.653 335.2 134.206 334.96 134.66 334.48C135.126 334 135.36 333.313 135.36 332.42C135.36 331.527 135.133 330.84 134.68 330.36C134.24 329.88 133.693 329.64 133.04 329.64C132.373 329.64 131.82 329.88 131.38 330.36C130.94 330.827 130.72 331.513 130.72 332.42C130.72 333.313 130.933 334 131.36 334.48C131.8 334.96 132.346 335.2 133 335.2ZM144.074 328.7C144.474 328.087 144.974 327.607 145.574 327.26C146.174 326.9 146.841 326.72 147.574 326.72V330.34H146.634C145.781 330.34 145.141 330.527 144.714 330.9C144.287 331.26 144.074 331.9 144.074 332.82V338H140.654V326.84H144.074V328.7ZM148.529 332.4C148.529 331.253 148.742 330.247 149.169 329.38C149.609 328.513 150.202 327.847 150.949 327.38C151.695 326.913 152.529 326.68 153.449 326.68C154.235 326.68 154.922 326.84 155.509 327.16C156.109 327.48 156.569 327.9 156.889 328.42V326.84H160.309V338H156.889V336.42C156.555 336.94 156.089 337.36 155.489 337.68C154.902 338 154.215 338.16 153.429 338.16C152.522 338.16 151.695 337.927 150.949 337.46C150.202 336.98 149.609 336.307 149.169 335.44C148.742 334.56 148.529 333.547 148.529 332.4ZM156.889 332.42C156.889 331.567 156.649 330.893 156.169 330.4C155.702 329.907 155.129 329.66 154.449 329.66C153.769 329.66 153.189 329.907 152.709 330.4C152.242 330.88 152.009 331.547 152.009 332.4C152.009 333.253 152.242 333.933 152.709 334.44C153.189 334.933 153.769 335.18 154.449 335.18C155.129 335.18 155.702 334.933 156.169 334.44C156.649 333.947 156.889 333.273 156.889 332.42ZM169.583 326.72C170.89 326.72 171.93 327.147 172.703 328C173.49 328.84 173.883 330 173.883 331.48V338H170.483V331.94C170.483 331.193 170.29 330.613 169.903 330.2C169.516 329.787 168.996 329.58 168.343 329.58C167.69 329.58 167.17 329.787 166.783 330.2C166.396 330.613 166.203 331.193 166.203 331.94V338H162.783V326.84H166.203V328.32C166.55 327.827 167.016 327.44 167.603 327.16C168.19 326.867 168.85 326.72 169.583 326.72Z" fill="white"/>
<rect x="16" y="391" width="192" height="58" rx="20" fill="#03626F"/>
<path d="M46.4987 418.204C51.2522 418.204 55.1056 414.353 55.1056 409.602C55.1056 404.851 51.2522 401 46.4987 401C41.7452 401 37.8918 404.851 37.8918 409.602C37.8918 414.353 41.7452 418.204 46.4987 418.204Z" fill="white"/>
<path d="M61 431.703V433.18C60.2162 433.937 59.3752 434.632 58.4844 435.26C54.9734 437.723 50.7882 439.044 46.4988 439.044C42.2093 439.044 38.0241 437.723 34.5131 435.26C33.6227 434.633 32.7825 433.938 32 433.181V431.705C32 426.214 38.0926 420.781 46.4988 420.781C55.1057 420.779 61 426.212 61 431.703Z" fill="white"/>
<path d="M94.6 412.96V421.36C94.6 422.2 94.8067 422.847 95.22 423.3C95.6333 423.753 96.24 423.98 97.04 423.98C97.84 423.98 98.4533 423.753 98.88 423.3C99.3067 422.847 99.52 422.2 99.52 421.36V412.96H102.94V421.34C102.94 422.593 102.673 423.653 102.14 424.52C101.607 425.387 100.887 426.04 99.98 426.48C99.0867 426.92 98.0867 427.14 96.98 427.14C95.8733 427.14 94.88 426.927 94 426.5C93.1333 426.06 92.4467 425.407 91.94 424.54C91.4333 423.66 91.18 422.593 91.18 421.34V412.96H94.6ZM109.882 427.16C108.908 427.16 108.042 426.993 107.282 426.66C106.522 426.327 105.922 425.873 105.482 425.3C105.042 424.713 104.795 424.06 104.742 423.34H108.122C108.162 423.727 108.342 424.04 108.662 424.28C108.982 424.52 109.375 424.64 109.842 424.64C110.268 424.64 110.595 424.56 110.822 424.4C111.062 424.227 111.182 424.007 111.182 423.74C111.182 423.42 111.015 423.187 110.682 423.04C110.348 422.88 109.808 422.707 109.062 422.52C108.262 422.333 107.595 422.14 107.062 421.94C106.528 421.727 106.068 421.4 105.682 420.96C105.295 420.507 105.102 419.9 105.102 419.14C105.102 418.5 105.275 417.92 105.622 417.4C105.982 416.867 106.502 416.447 107.182 416.14C107.875 415.833 108.695 415.68 109.642 415.68C111.042 415.68 112.142 416.027 112.942 416.72C113.755 417.413 114.222 418.333 114.342 419.48H111.182C111.128 419.093 110.955 418.787 110.662 418.56C110.382 418.333 110.008 418.22 109.542 418.22C109.142 418.22 108.835 418.3 108.622 418.46C108.408 418.607 108.302 418.813 108.302 419.08C108.302 419.4 108.468 419.64 108.802 419.8C109.148 419.96 109.682 420.12 110.402 420.28C111.228 420.493 111.902 420.707 112.422 420.92C112.942 421.12 113.395 421.453 113.782 421.92C114.182 422.373 114.388 422.987 114.402 423.76C114.402 424.413 114.215 425 113.842 425.52C113.482 426.027 112.955 426.427 112.262 426.72C111.582 427.013 110.788 427.16 109.882 427.16ZM127.014 421.24C127.014 421.56 126.994 421.893 126.954 422.24H119.214C119.267 422.933 119.487 423.467 119.874 423.84C120.274 424.2 120.761 424.38 121.334 424.38C122.187 424.38 122.781 424.02 123.114 423.3H126.754C126.567 424.033 126.227 424.693 125.734 425.28C125.254 425.867 124.647 426.327 123.914 426.66C123.181 426.993 122.361 427.16 121.454 427.16C120.361 427.16 119.387 426.927 118.534 426.46C117.681 425.993 117.014 425.327 116.534 424.46C116.054 423.593 115.814 422.58 115.814 421.42C115.814 420.26 116.047 419.247 116.514 418.38C116.994 417.513 117.661 416.847 118.514 416.38C119.367 415.913 120.347 415.68 121.454 415.68C122.534 415.68 123.494 415.907 124.334 416.36C125.174 416.813 125.827 417.46 126.294 418.3C126.774 419.14 127.014 420.12 127.014 421.24ZM123.514 420.34C123.514 419.753 123.314 419.287 122.914 418.94C122.514 418.593 122.014 418.42 121.414 418.42C120.841 418.42 120.354 418.587 119.954 418.92C119.567 419.253 119.327 419.727 119.234 420.34H123.514ZM132.238 417.7C132.638 417.087 133.138 416.607 133.738 416.26C134.338 415.9 135.005 415.72 135.738 415.72V419.34H134.798C133.945 419.34 133.305 419.527 132.878 419.9C132.451 420.26 132.238 420.9 132.238 421.82V427H128.818V415.84H132.238V417.7Z" fill="white"/>
<path d="M81.66 690.36H86.14V693H78.24V678.96H81.66V690.36ZM92.8513 693.16C91.7579 693.16 90.7713 692.927 89.8913 692.46C89.0246 691.993 88.3379 691.327 87.8313 690.46C87.3379 689.593 87.0913 688.58 87.0913 687.42C87.0913 686.273 87.3446 685.267 87.8512 684.4C88.3579 683.52 89.0513 682.847 89.9313 682.38C90.8113 681.913 91.7979 681.68 92.8913 681.68C93.9846 681.68 94.9713 681.913 95.8513 682.38C96.7313 682.847 97.4246 683.52 97.9313 684.4C98.4379 685.267 98.6913 686.273 98.6913 687.42C98.6913 688.567 98.4313 689.58 97.9113 690.46C97.4046 691.327 96.7046 691.993 95.8113 692.46C94.9313 692.927 93.9446 693.16 92.8513 693.16ZM92.8513 690.2C93.5046 690.2 94.0579 689.96 94.5113 689.48C94.9779 689 95.2113 688.313 95.2113 687.42C95.2113 686.527 94.9846 685.84 94.5313 685.36C94.0913 684.88 93.5446 684.64 92.8913 684.64C92.2246 684.64 91.6713 684.88 91.2313 685.36C90.7913 685.827 90.5713 686.513 90.5713 687.42C90.5713 688.313 90.7846 689 91.2113 689.48C91.6513 689.96 92.1979 690.2 92.8513 690.2ZM104.746 681.68C105.532 681.68 106.219 681.84 106.806 682.16C107.406 682.48 107.866 682.9 108.186 683.42V681.84H111.606V692.98C111.606 694.007 111.399 694.933 110.986 695.76C110.586 696.6 109.966 697.267 109.126 697.76C108.299 698.253 107.266 698.5 106.026 698.5C104.372 698.5 103.032 698.107 102.006 697.32C100.979 696.547 100.392 695.493 100.246 694.16H103.626C103.732 694.587 103.986 694.92 104.386 695.16C104.786 695.413 105.279 695.54 105.866 695.54C106.572 695.54 107.132 695.333 107.546 694.92C107.972 694.52 108.186 693.873 108.186 692.98V691.4C107.852 691.92 107.392 692.347 106.806 692.68C106.219 693 105.532 693.16 104.746 693.16C103.826 693.16 102.992 692.927 102.246 692.46C101.499 691.98 100.906 691.307 100.466 690.44C100.039 689.56 99.8256 688.547 99.8256 687.4C99.8256 686.253 100.039 685.247 100.466 684.38C100.906 683.513 101.499 682.847 102.246 682.38C102.992 681.913 103.826 681.68 104.746 681.68ZM108.186 687.42C108.186 686.567 107.946 685.893 107.466 685.4C106.999 684.907 106.426 684.66 105.746 684.66C105.066 684.66 104.486 684.907 104.006 685.4C103.539 685.88 103.306 686.547 103.306 687.4C103.306 688.253 103.539 688.933 104.006 689.44C104.486 689.933 105.066 690.18 105.746 690.18C106.426 690.18 106.999 689.933 107.466 689.44C107.946 688.947 108.186 688.273 108.186 687.42ZM119.16 693.16C118.067 693.16 117.08 692.927 116.2 692.46C115.333 691.993 114.647 691.327 114.14 690.46C113.647 689.593 113.4 688.58 113.4 687.42C113.4 686.273 113.653 685.267 114.16 684.4C114.667 683.52 115.36 682.847 116.24 682.38C117.12 681.913 118.107 681.68 119.2 681.68C120.293 681.68 121.28 681.913 122.16 682.38C123.04 682.847 123.733 683.52 124.24 684.4C124.747 685.267 125 686.273 125 687.42C125 688.567 124.74 689.58 124.22 690.46C123.713 691.327 123.013 691.993 122.12 692.46C121.24 692.927 120.253 693.16 119.16 693.16ZM119.16 690.2C119.813 690.2 120.367 689.96 120.82 689.48C121.287 689 121.52 688.313 121.52 687.42C121.52 686.527 121.293 685.84 120.84 685.36C120.4 684.88 119.853 684.64 119.2 684.64C118.533 684.64 117.98 684.88 117.54 685.36C117.1 685.827 116.88 686.513 116.88 687.42C116.88 688.313 117.093 689 117.52 689.48C117.96 689.96 118.507 690.2 119.16 690.2ZM137.834 681.84V693H134.414V691.48C134.068 691.973 133.594 692.373 132.994 692.68C132.408 692.973 131.754 693.12 131.034 693.12C130.181 693.12 129.428 692.933 128.774 692.56C128.121 692.173 127.614 691.62 127.254 690.9C126.894 690.18 126.714 689.333 126.714 688.36V681.84H130.114V687.9C130.114 688.647 130.308 689.227 130.694 689.64C131.081 690.053 131.601 690.26 132.254 690.26C132.921 690.26 133.448 690.053 133.834 689.64C134.221 689.227 134.414 688.647 134.414 687.9V681.84H137.834ZM146.511 690.1V693H144.771C143.531 693 142.564 692.7 141.871 692.1C141.177 691.487 140.831 690.493 140.831 689.12V684.68H139.471V681.84H140.831V679.12H144.251V681.84H146.491V684.68H144.251V689.16C144.251 689.493 144.331 689.733 144.491 689.88C144.651 690.027 144.917 690.1 145.291 690.1H146.511Z" fill="white"/>
<defs>
<clipPath id="clip0_2221_297">
<rect width="32" height="42" fill="white" transform="translate(32 132)"/>
</clipPath>
<clipPath id="clip1_2221_297">
<rect width="40" height="40" fill="white" transform="translate(32 222)"/>
</clipPath>
<clipPath id="clip2_2221_297">
<rect width="32" height="42" fill="white" transform="translate(32 310)"/>
</clipPath>
</defs>
</svg>
