<svg width="1366" height="768" viewBox="0 0 1366 768" fill="none" xmlns="http://www.w3.org/2000/svg">
<rect width="1366" height="768" fill="#03626F"/>
<rect width="224" height="768" fill="#0B3339"/>
<rect x="16" y="35" width="192" height="58" rx="20" fill="#03626F"/>
<path d="M46.9832 84.6399V78.9154C46.9831 77.4593 48.1708 76.2762 49.6422 76.2664H55.0322C56.5107 76.2664 57.7092 77.4524 57.7092 78.9154V78.9154V84.6577C57.7089 85.894 58.706 86.9043 59.955 86.9333H63.5483C67.1304 86.9333 70.0343 84.0599 70.0343 80.5154V80.5154V64.2306C70.0151 62.8362 69.3535 61.5268 68.2376 60.675L55.9485 50.8792C53.7956 49.1736 50.7351 49.1736 48.5822 50.8792L36.347 60.6927C35.2268 61.5411 34.5641 62.8527 34.5503 64.2484V80.5154C34.5503 84.0599 37.4541 86.9333 41.0362 86.9333H44.6295C45.9096 86.9333 46.9472 85.9065 46.9472 84.6399V84.6399" stroke="white" stroke-width="2" stroke-linecap="round" stroke-linejoin="round"/>
<path d="M98.5 56.96C99.98 56.96 101.273 57.2533 102.38 57.84C103.487 58.4267 104.34 59.2533 104.94 60.32C105.553 61.3733 105.86 62.5933 105.86 63.98C105.86 65.3533 105.553 66.5733 104.94 67.64C104.34 68.7067 103.48 69.5333 102.36 70.12C101.253 70.7067 99.9667 71 98.5 71H93.24V56.96H98.5ZM98.28 68.04C99.5733 68.04 100.58 67.6867 101.3 66.98C102.02 66.2733 102.38 65.2733 102.38 63.98C102.38 62.6867 102.02 61.68 101.3 60.96C100.58 60.24 99.5733 59.88 98.28 59.88H96.66V68.04H98.28ZM107.091 65.4C107.091 64.2533 107.305 63.2467 107.731 62.38C108.171 61.5133 108.765 60.8467 109.511 60.38C110.258 59.9133 111.091 59.68 112.011 59.68C112.798 59.68 113.485 59.84 114.071 60.16C114.671 60.48 115.131 60.9 115.451 61.42V59.84H118.871V71H115.451V69.42C115.118 69.94 114.651 70.36 114.051 70.68C113.465 71 112.778 71.16 111.991 71.16C111.085 71.16 110.258 70.9267 109.511 70.46C108.765 69.98 108.171 69.3067 107.731 68.44C107.305 67.56 107.091 66.5467 107.091 65.4ZM115.451 65.42C115.451 64.5667 115.211 63.8933 114.731 63.4C114.265 62.9067 113.691 62.66 113.011 62.66C112.331 62.66 111.751 62.9067 111.271 63.4C110.805 63.88 110.571 64.5467 110.571 65.4C110.571 66.2533 110.805 66.9333 111.271 67.44C111.751 67.9333 112.331 68.18 113.011 68.18C113.691 68.18 114.265 67.9333 114.731 67.44C115.211 66.9467 115.451 66.2733 115.451 65.42ZM125.885 71.16C124.912 71.16 124.045 70.9933 123.285 70.66C122.525 70.3267 121.925 69.8733 121.485 69.3C121.045 68.7133 120.799 68.06 120.745 67.34H124.125C124.165 67.7267 124.345 68.04 124.665 68.28C124.985 68.52 125.379 68.64 125.845 68.64C126.272 68.64 126.599 68.56 126.825 68.4C127.065 68.2267 127.185 68.0067 127.185 67.74C127.185 67.42 127.019 67.1867 126.685 67.04C126.352 66.88 125.812 66.7067 125.065 66.52C124.265 66.3333 123.599 66.14 123.065 65.94C122.532 65.7267 122.072 65.4 121.685 64.96C121.299 64.5067 121.105 63.9 121.105 63.14C121.105 62.5 121.279 61.92 121.625 61.4C121.985 60.8667 122.505 60.4467 123.185 60.14C123.879 59.8333 124.699 59.68 125.645 59.68C127.045 59.68 128.145 60.0267 128.945 60.72C129.759 61.4133 130.225 62.3333 130.345 63.48H127.185C127.132 63.0933 126.959 62.7867 126.665 62.56C126.385 62.3333 126.012 62.22 125.545 62.22C125.145 62.22 124.839 62.3 124.625 62.46C124.412 62.6067 124.305 62.8133 124.305 63.08C124.305 63.4 124.472 63.64 124.805 63.8C125.152 63.96 125.685 64.12 126.405 64.28C127.232 64.4933 127.905 64.7067 128.425 64.92C128.945 65.12 129.399 65.4533 129.785 65.92C130.185 66.3733 130.392 66.9867 130.405 67.76C130.405 68.4133 130.219 69 129.845 69.52C129.485 70.0267 128.959 70.4267 128.265 70.72C127.585 71.0133 126.792 71.16 125.885 71.16ZM139.358 59.72C140.638 59.72 141.664 60.1467 142.438 61C143.211 61.84 143.598 63 143.598 64.48V71H140.198V64.94C140.198 64.1933 140.004 63.6133 139.618 63.2C139.231 62.7867 138.711 62.58 138.058 62.58C137.404 62.58 136.884 62.7867 136.498 63.2C136.111 63.6133 135.918 64.1933 135.918 64.94V71H132.498V56.2H135.918V61.34C136.264 60.8467 136.738 60.4533 137.338 60.16C137.938 59.8667 138.611 59.72 139.358 59.72ZM149.394 61.42C149.714 60.9 150.174 60.48 150.774 60.16C151.374 59.84 152.061 59.68 152.834 59.68C153.754 59.68 154.588 59.9133 155.334 60.38C156.081 60.8467 156.668 61.5133 157.094 62.38C157.534 63.2467 157.754 64.2533 157.754 65.4C157.754 66.5467 157.534 67.56 157.094 68.44C156.668 69.3067 156.081 69.98 155.334 70.46C154.588 70.9267 153.754 71.16 152.834 71.16C152.048 71.16 151.361 71.0067 150.774 70.7C150.188 70.38 149.728 69.96 149.394 69.44V71H145.974V56.2H149.394V61.42ZM154.274 65.4C154.274 64.5467 154.034 63.88 153.554 63.4C153.088 62.9067 152.508 62.66 151.814 62.66C151.134 62.66 150.554 62.9067 150.074 63.4C149.608 63.8933 149.374 64.5667 149.374 65.42C149.374 66.2733 149.608 66.9467 150.074 67.44C150.554 67.9333 151.134 68.18 151.814 68.18C152.494 68.18 153.074 67.9333 153.554 67.44C154.034 66.9333 154.274 66.2533 154.274 65.4ZM164.629 71.16C163.535 71.16 162.549 70.9267 161.669 70.46C160.802 69.9933 160.115 69.3267 159.609 68.46C159.115 67.5933 158.869 66.58 158.869 65.42C158.869 64.2733 159.122 63.2667 159.629 62.4C160.135 61.52 160.829 60.8467 161.709 60.38C162.589 59.9133 163.575 59.68 164.669 59.68C165.762 59.68 166.749 59.9133 167.629 60.38C168.509 60.8467 169.202 61.52 169.709 62.4C170.215 63.2667 170.469 64.2733 170.469 65.42C170.469 66.5667 170.209 67.58 169.689 68.46C169.182 69.3267 168.482 69.9933 167.589 70.46C166.709 70.9267 165.722 71.16 164.629 71.16ZM164.629 68.2C165.282 68.2 165.835 67.96 166.289 67.48C166.755 67 166.989 66.3133 166.989 65.42C166.989 64.5267 166.762 63.84 166.309 63.36C165.869 62.88 165.322 62.64 164.669 62.64C164.002 62.64 163.449 62.88 163.009 63.36C162.569 63.8267 162.349 64.5133 162.349 65.42C162.349 66.3133 162.562 67 162.989 67.48C163.429 67.96 163.975 68.2 164.629 68.2ZM171.603 65.4C171.603 64.2533 171.816 63.2467 172.243 62.38C172.683 61.5133 173.276 60.8467 174.023 60.38C174.77 59.9133 175.603 59.68 176.523 59.68C177.31 59.68 177.996 59.84 178.583 60.16C179.183 60.48 179.643 60.9 179.963 61.42V59.84H183.383V71H179.963V69.42C179.63 69.94 179.163 70.36 178.563 70.68C177.976 71 177.29 71.16 176.503 71.16C175.596 71.16 174.77 70.9267 174.023 70.46C173.276 69.98 172.683 69.3067 172.243 68.44C171.816 67.56 171.603 66.5467 171.603 65.4ZM179.963 65.42C179.963 64.5667 179.723 63.8933 179.243 63.4C178.776 62.9067 178.203 62.66 177.523 62.66C176.843 62.66 176.263 62.9067 175.783 63.4C175.316 63.88 175.083 64.5467 175.083 65.4C175.083 66.2533 175.316 66.9333 175.783 67.44C176.263 67.9333 176.843 68.18 177.523 68.18C178.203 68.18 178.776 67.9333 179.243 67.44C179.723 66.9467 179.963 66.2733 179.963 65.42ZM189.277 61.7C189.677 61.0867 190.177 60.6067 190.777 60.26C191.377 59.9 192.044 59.72 192.777 59.72V63.34H191.837C190.984 63.34 190.344 63.5267 189.917 63.9C189.491 64.26 189.277 64.9 189.277 65.82V71H185.857V59.84H189.277V61.7ZM193.732 65.4C193.732 64.2533 193.945 63.2467 194.372 62.38C194.812 61.5133 195.405 60.8467 196.152 60.38C196.899 59.9133 197.732 59.68 198.652 59.68C199.385 59.68 200.052 59.8333 200.652 60.14C201.265 60.4467 201.745 60.86 202.092 61.38V56.2H205.512V71H202.092V69.4C201.772 69.9333 201.312 70.36 200.712 70.68C200.125 71 199.439 71.16 198.652 71.16C197.732 71.16 196.899 70.9267 196.152 70.46C195.405 69.98 194.812 69.3067 194.372 68.44C193.945 67.56 193.732 66.5467 193.732 65.4ZM202.092 65.42C202.092 64.5667 201.852 63.8933 201.372 63.4C200.905 62.9067 200.332 62.66 199.652 62.66C198.972 62.66 198.392 62.9067 197.912 63.4C197.445 63.88 197.212 64.5467 197.212 65.4C197.212 66.2533 197.445 66.9333 197.912 67.44C198.392 67.9333 198.972 68.18 199.652 68.18C200.332 68.18 200.905 67.9333 201.372 67.44C201.852 66.9467 202.092 66.2733 202.092 65.42Z" fill="white"/>
<rect x="16" y="124" width="192" height="58" rx="20" fill="#03626F"/>
<g clip-path="url(#clip0_2221_727)">
<path d="M63.0826 171.491C63.0818 171.926 62.8999 172.342 62.5768 172.649C62.2536 172.956 61.8155 173.129 61.3585 173.13H34.6397C34.1828 173.129 33.7446 172.956 33.4215 172.649C33.0983 172.342 32.9164 171.926 32.9157 171.491V144.871H63.0826V171.491ZM61.3612 132.871C61.8178 132.872 62.2553 133.044 62.578 133.352C62.9006 133.659 63.0821 134.075 63.0826 134.509V144H32.9157V134.509C32.9161 134.074 33.098 133.658 33.4212 133.351C33.7444 133.043 34.1827 132.871 34.6397 132.871H61.3612ZM61.5544 132.003H34.4465C33.7985 132.003 33.1772 132.248 32.7186 132.683C32.2601 133.119 32.0017 133.709 32 134.325V171.491C32.0017 172.156 32.2804 172.793 32.7752 173.263C33.27 173.733 33.9404 173.997 34.6397 173.998H61.3612C62.0608 173.997 62.7314 173.732 63.2261 173.262C63.7207 172.792 63.9991 172.154 64 171.489V134.325C63.9986 133.709 63.7404 133.119 63.282 132.684C62.8235 132.248 62.2023 132.003 61.5544 132.003Z" fill="white"/>
<path d="M35.5062 135.473C35.5065 135.374 35.5478 135.278 35.6213 135.208C35.6948 135.138 35.7945 135.098 35.8988 135.097H60.0995C60.2043 135.097 60.3047 135.137 60.3788 135.207C60.4528 135.278 60.4945 135.373 60.4948 135.473V141.398C60.4945 141.497 60.4528 141.593 60.3788 141.663C60.3047 141.734 60.2043 141.773 60.0995 141.774H35.8988C35.794 141.774 35.6934 141.734 35.6193 141.664C35.5452 141.593 35.5036 141.498 35.5036 141.398V135.473H35.5062ZM34.5906 141.398C34.591 141.728 34.7289 142.044 34.9741 142.278C35.2193 142.511 35.5517 142.643 35.8988 142.644H60.0995C60.447 142.644 60.7801 142.512 61.0257 142.279C61.2713 142.045 61.4093 141.728 61.4096 141.398V135.473C61.4093 135.142 61.2713 134.826 61.0257 134.592C60.7801 134.358 60.447 134.227 60.0995 134.226H35.8988C35.5513 134.227 35.2181 134.358 34.9724 134.592C34.7266 134.826 34.5884 135.142 34.5879 135.473V141.398H34.5906Z" fill="white"/>
<path d="M35.5062 146.776H38.9561V150.055H35.5062V146.776ZM35.3086 150.926H39.1537C39.3434 150.926 39.5254 150.854 39.6595 150.727C39.7937 150.599 39.8691 150.426 39.8691 150.246V146.59C39.8691 146.41 39.7937 146.237 39.6595 146.109C39.5254 145.982 39.3434 145.91 39.1537 145.91H35.3086C35.1189 145.91 34.9369 145.982 34.8028 146.109C34.6686 146.237 34.5933 146.41 34.5933 146.59V150.246C34.5933 150.426 34.6686 150.599 34.8028 150.727C34.9369 150.854 35.1189 150.926 35.3086 150.926Z" fill="white"/>
<path d="M42.6858 146.776H46.1348V150.055H42.6858V146.776ZM42.4873 150.926H46.3324C46.5221 150.926 46.7041 150.854 46.8383 150.727C46.9724 150.599 47.0478 150.426 47.0478 150.246V146.59C47.0478 146.41 46.9724 146.237 46.8383 146.109C46.7041 145.982 46.5221 145.91 46.3324 145.91H42.4873C42.2976 145.91 42.1157 145.982 41.9815 146.109C41.8473 146.237 41.772 146.41 41.772 146.59V150.246C41.772 150.426 41.8473 150.599 41.9815 150.727C42.1157 150.854 42.2976 150.926 42.4873 150.926Z" fill="white"/>
<path d="M49.8653 146.776H53.3151V150.055H49.8653V146.776ZM49.6695 150.926H53.5145C53.7043 150.926 53.8862 150.854 54.0204 150.727C54.1545 150.599 54.2299 150.426 54.2299 150.246V146.59C54.2299 146.41 54.1545 146.237 54.0204 146.109C53.8862 145.982 53.7043 145.91 53.5145 145.91H49.6695C49.4797 145.91 49.2978 145.982 49.1636 146.109C49.0295 146.237 48.9541 146.41 48.9541 146.59V150.246C48.9541 150.426 49.0295 150.599 49.1636 150.727C49.2978 150.854 49.4797 150.926 49.6695 150.926Z" fill="white"/>
<path d="M57.0447 146.776H60.4946V150.055H57.0447V146.776ZM56.8462 150.926H60.6913C60.881 150.926 61.063 150.854 61.1971 150.727C61.3313 150.599 61.4067 150.426 61.4067 150.246V146.59C61.4067 146.41 61.3313 146.237 61.1971 146.109C61.063 145.982 60.881 145.91 60.6913 145.91H56.8462C56.6565 145.91 56.4745 145.982 56.3404 146.109C56.2062 146.237 56.1309 146.41 56.1309 146.59V150.246C56.1309 150.426 56.2062 150.599 56.3404 150.727C56.4745 150.854 56.6565 150.926 56.8462 150.926Z" fill="white"/>
<path d="M35.5062 153.435H38.9561V156.714H35.5062V153.435ZM35.3086 157.585H39.1537C39.3434 157.585 39.5254 157.513 39.6595 157.385C39.7937 157.258 39.8691 157.085 39.8691 156.904V153.249C39.8691 153.069 39.7937 152.896 39.6595 152.768C39.5254 152.641 39.3434 152.569 39.1537 152.569H35.3086C35.1189 152.569 34.9369 152.641 34.8028 152.768C34.6686 152.896 34.5933 153.069 34.5933 153.249V156.904C34.5933 157.085 34.6686 157.258 34.8028 157.385C34.9369 157.513 35.1189 157.585 35.3086 157.585Z" fill="white"/>
<path d="M42.6858 153.435H46.1348V156.714H42.6858V153.435ZM42.4873 157.585H46.3324C46.5221 157.585 46.7041 157.513 46.8383 157.385C46.9724 157.258 47.0478 157.085 47.0478 156.904V153.249C47.0478 153.069 46.9724 152.896 46.8383 152.768C46.7041 152.641 46.5221 152.569 46.3324 152.569H42.4873C42.2976 152.569 42.1157 152.641 41.9815 152.768C41.8473 152.896 41.772 153.069 41.772 153.249V156.904C41.772 157.085 41.8473 157.258 41.9815 157.385C42.1157 157.513 42.2976 157.585 42.4873 157.585Z" fill="white"/>
<path d="M49.8653 153.435H53.3151V156.714H49.8653V153.435ZM49.6695 157.585H53.5145C53.7043 157.585 53.8862 157.513 54.0204 157.385C54.1545 157.258 54.2299 157.085 54.2299 156.904V153.249C54.2299 153.069 54.1545 152.896 54.0204 152.768C53.8862 152.641 53.7043 152.569 53.5145 152.569H49.6695C49.4797 152.569 49.2978 152.641 49.1636 152.768C49.0295 152.896 48.9541 153.069 48.9541 153.249V156.904C48.9541 157.085 49.0295 157.258 49.1636 157.385C49.2978 157.513 49.4797 157.585 49.6695 157.585Z" fill="white"/>
<path d="M57.0447 153.435H60.4946V156.714H57.0447V153.435ZM56.8462 157.585H60.6913C60.881 157.585 61.063 157.513 61.1971 157.385C61.3313 157.258 61.4067 157.085 61.4067 156.904V153.249C61.4067 153.069 61.3313 152.896 61.1971 152.768C61.063 152.641 60.881 152.569 60.6913 152.569H56.8462C56.6565 152.569 56.4745 152.641 56.3404 152.768C56.2062 152.896 56.1309 153.069 56.1309 153.249V156.904C56.1309 157.085 56.2062 157.258 56.3404 157.385C56.4745 157.513 56.6565 157.585 56.8462 157.585Z" fill="white"/>
<path d="M35.5062 160.094H38.9561V163.371H35.5062V160.094ZM35.3086 164.244H39.1537C39.3434 164.244 39.5254 164.173 39.6595 164.045C39.7937 163.918 39.8691 163.745 39.8691 163.564V159.909C39.8691 159.728 39.7937 159.555 39.6595 159.428C39.5254 159.3 39.3434 159.229 39.1537 159.229H35.3086C35.1189 159.229 34.9369 159.3 34.8028 159.428C34.6686 159.555 34.5933 159.728 34.5933 159.909V163.564C34.5933 163.745 34.6686 163.918 34.8028 164.045C34.9369 164.173 35.1189 164.244 35.3086 164.244Z" fill="white"/>
<path d="M42.6858 160.094H46.1348V163.371H42.6858V160.094ZM42.4873 164.244H46.3324C46.5221 164.244 46.7041 164.173 46.8383 164.045C46.9724 163.918 47.0478 163.745 47.0478 163.564V159.909C47.0478 159.728 46.9724 159.555 46.8383 159.428C46.7041 159.3 46.5221 159.229 46.3324 159.229H42.4873C42.2976 159.229 42.1157 159.3 41.9815 159.428C41.8473 159.555 41.772 159.728 41.772 159.909V163.564C41.772 163.745 41.8473 163.918 41.9815 164.045C42.1157 164.173 42.2976 164.244 42.4873 164.244Z" fill="white"/>
<path d="M49.8653 160.094H53.3151V163.371H49.8653V160.094ZM49.6695 164.244H53.5145C53.7043 164.244 53.8862 164.173 54.0204 164.045C54.1545 163.918 54.2299 163.745 54.2299 163.564V159.909C54.2299 159.728 54.1545 159.555 54.0204 159.428C53.8862 159.3 53.7043 159.229 53.5145 159.229H49.6695C49.4797 159.229 49.2978 159.3 49.1636 159.428C49.0295 159.555 48.9541 159.728 48.9541 159.909V163.564C48.9541 163.745 49.0295 163.918 49.1636 164.045C49.2978 164.173 49.4797 164.244 49.6695 164.244Z" fill="white"/>
<path d="M35.5062 166.754H38.9561V170.033H35.5062V166.754ZM35.3086 170.904H39.1537C39.3434 170.904 39.5254 170.832 39.6595 170.705C39.7937 170.577 39.8691 170.404 39.8691 170.224V166.568C39.8691 166.388 39.7937 166.215 39.6595 166.088C39.5254 165.96 39.3434 165.888 39.1537 165.888H35.3086C35.1189 165.888 34.9369 165.96 34.8028 166.088C34.6686 166.215 34.5933 166.388 34.5933 166.568V170.224C34.5933 170.404 34.6686 170.577 34.8028 170.705C34.9369 170.832 35.1189 170.904 35.3086 170.904Z" fill="white"/>
<path d="M42.6858 166.754H46.1348V170.033H42.6858V166.754ZM42.4873 170.904H46.3324C46.5221 170.904 46.7041 170.832 46.8383 170.705C46.9724 170.577 47.0478 170.404 47.0478 170.224V166.568C47.0478 166.388 46.9724 166.215 46.8383 166.088C46.7041 165.96 46.5221 165.888 46.3324 165.888H42.4873C42.2976 165.888 42.1157 165.96 41.9815 166.088C41.8473 166.215 41.772 166.388 41.772 166.568V170.224C41.772 170.404 41.8473 170.577 41.9815 170.705C42.1157 170.832 42.2976 170.904 42.4873 170.904Z" fill="white"/>
<path d="M49.8653 166.754H53.3151V170.033H49.8653V166.754ZM49.6695 170.904H53.5145C53.7043 170.904 53.8862 170.832 54.0204 170.705C54.1545 170.577 54.2299 170.404 54.2299 170.224V166.568C54.2299 166.388 54.1545 166.215 54.0204 166.088C53.8862 165.96 53.7043 165.888 53.5145 165.888H49.6695C49.4797 165.888 49.2978 165.96 49.1636 166.088C49.0295 166.215 48.9541 166.388 48.9541 166.568V170.224C48.9541 170.404 49.0295 170.577 49.1636 170.705C49.2978 170.832 49.4797 170.904 49.6695 170.904Z" fill="white"/>
<path d="M57.0451 160.094H60.4949V170.033H57.0451V160.094ZM57.0066 170.904H60.5334C60.7658 170.904 60.9887 170.816 61.1531 170.659C61.3174 170.503 61.4097 170.291 61.4097 170.07V160.056C61.4094 159.835 61.317 159.623 61.1527 159.467C60.9885 159.311 60.7657 159.223 60.5334 159.223H57.0066C56.7742 159.223 56.5513 159.311 56.3869 159.467C56.2225 159.623 56.1299 159.835 56.1294 160.056V170.07C56.1296 170.291 56.2221 170.503 56.3866 170.659C56.551 170.816 56.774 170.904 57.0066 170.904Z" fill="white"/>
</g>
<path d="M97.38 160L92.66 153.8V160H89.24V145.96H92.66V152.12L97.34 145.96H101.36L95.92 152.84L101.56 160H97.38ZM102.505 154.4C102.505 153.253 102.719 152.247 103.145 151.38C103.585 150.513 104.179 149.847 104.925 149.38C105.672 148.913 106.505 148.68 107.425 148.68C108.212 148.68 108.899 148.84 109.485 149.16C110.085 149.48 110.545 149.9 110.865 150.42V148.84H114.285V160H110.865V158.42C110.532 158.94 110.065 159.36 109.465 159.68C108.879 160 108.192 160.16 107.405 160.16C106.499 160.16 105.672 159.927 104.925 159.46C104.179 158.98 103.585 158.307 103.145 157.44C102.719 156.56 102.505 155.547 102.505 154.4ZM110.865 154.42C110.865 153.567 110.625 152.893 110.145 152.4C109.679 151.907 109.105 151.66 108.425 151.66C107.745 151.66 107.165 151.907 106.685 152.4C106.219 152.88 105.985 153.547 105.985 154.4C105.985 155.253 106.219 155.933 106.685 156.44C107.165 156.933 107.745 157.18 108.425 157.18C109.105 157.18 109.679 156.933 110.145 156.44C110.625 155.947 110.865 155.273 110.865 154.42ZM121.3 160.16C120.326 160.16 119.46 159.993 118.7 159.66C117.94 159.327 117.34 158.873 116.9 158.3C116.46 157.713 116.213 157.06 116.16 156.34H119.54C119.58 156.727 119.76 157.04 120.08 157.28C120.4 157.52 120.793 157.64 121.26 157.64C121.686 157.64 122.013 157.56 122.24 157.4C122.48 157.227 122.6 157.007 122.6 156.74C122.6 156.42 122.433 156.187 122.1 156.04C121.766 155.88 121.226 155.707 120.48 155.52C119.68 155.333 119.013 155.14 118.48 154.94C117.946 154.727 117.486 154.4 117.1 153.96C116.713 153.507 116.52 152.9 116.52 152.14C116.52 151.5 116.693 150.92 117.04 150.4C117.4 149.867 117.92 149.447 118.6 149.14C119.293 148.833 120.113 148.68 121.06 148.68C122.46 148.68 123.56 149.027 124.36 149.72C125.173 150.413 125.64 151.333 125.76 152.48H122.6C122.546 152.093 122.373 151.787 122.08 151.56C121.8 151.333 121.426 151.22 120.96 151.22C120.56 151.22 120.253 151.3 120.04 151.46C119.826 151.607 119.72 151.813 119.72 152.08C119.72 152.4 119.886 152.64 120.22 152.8C120.566 152.96 121.1 153.12 121.82 153.28C122.646 153.493 123.32 153.707 123.84 153.92C124.36 154.12 124.813 154.453 125.2 154.92C125.6 155.373 125.806 155.987 125.82 156.76C125.82 157.413 125.633 158 125.26 158.52C124.9 159.027 124.373 159.427 123.68 159.72C123 160.013 122.206 160.16 121.3 160.16ZM129.632 147.68C129.032 147.68 128.539 147.507 128.152 147.16C127.779 146.8 127.592 146.36 127.592 145.84C127.592 145.307 127.779 144.867 128.152 144.52C128.539 144.16 129.032 143.98 129.632 143.98C130.219 143.98 130.699 144.16 131.072 144.52C131.459 144.867 131.652 145.307 131.652 145.84C131.652 146.36 131.459 146.8 131.072 147.16C130.699 147.507 130.219 147.68 129.632 147.68ZM131.332 148.84V160H127.912V148.84H131.332ZM137.23 150.7C137.63 150.087 138.13 149.607 138.73 149.26C139.33 148.9 139.997 148.72 140.73 148.72V152.34H139.79C138.937 152.34 138.297 152.527 137.87 152.9C137.444 153.26 137.23 153.9 137.23 154.82V160H133.81V148.84H137.23V150.7Z" fill="white"/>
<rect x="16" y="213" width="192" height="58" rx="20" fill="#03626F"/>
<g clip-path="url(#clip1_2221_727)">
<path d="M32.94 262.006H61.8665H61.9135H61.9604H62.0016H62.0427H62.0838H62.1249H62.1661H62.2072L62.2424 261.976H62.2777L62.3188 261.941L71.7181 252.715L71.7592 252.668C71.7782 252.649 71.794 252.627 71.8062 252.603L71.8415 252.55C71.8383 252.535 71.8383 252.519 71.8415 252.503V252.468C71.8415 252.468 71.8415 252.438 71.8415 252.421V252.38C71.8415 252.38 71.8415 252.38 71.8415 252.338C71.8415 252.297 71.8415 252.303 71.8415 252.291C71.8443 252.26 71.8443 252.228 71.8415 252.197V252.127V222.947C71.8415 222.697 71.7427 222.457 71.5666 222.28C71.3904 222.102 71.1514 222.002 70.9016 222H42.1337H42.0926H42.0456H42.0045H41.9575H41.9164H41.8753H41.84H41.7989L41.7578 222.029H41.7225L41.6814 222.071L32.2821 231.303L32.2351 231.35L32.1822 231.415L32.147 231.467V231.503V231.544C32.147 231.544 32.147 231.544 32.147 231.585V231.626V231.673C32.1495 231.685 32.1495 231.697 32.147 231.709C32.1497 231.726 32.1497 231.744 32.147 231.762C32.147 231.762 32.147 231.821 32.147 231.85C32.1437 231.871 32.1437 231.893 32.147 231.915V260.806C32.1084 260.937 32.099 261.075 32.1194 261.211C32.1398 261.347 32.1895 261.476 32.265 261.59C32.3405 261.705 32.4401 261.801 32.5566 261.873C32.6732 261.945 32.8041 261.99 32.94 262.006ZM60.7444 260.123H33.8565V233.115H42.8034V247.66L45.2825 245.936L47.1859 247.66L49.054 245.86L51.9619 247.66V233.115H60.7738L60.7444 260.123ZM62.6419 232.562L70.1379 224.96V251.438L62.6419 258.817V232.562ZM61.2907 231.232H53.0663L60.2921 223.889H68.5165L61.2907 231.232ZM42.6977 223.889H51.0337L43.5906 231.232H35.2429L42.6977 223.889Z" fill="white"/>
</g>
<path d="M97.74 239.8C98.5533 239.973 99.2067 240.38 99.7 241.02C100.193 241.647 100.44 242.367 100.44 243.18C100.44 244.353 100.027 245.287 99.2 245.98C98.3867 246.66 97.2467 247 95.78 247H89.24V232.96H95.56C96.9867 232.96 98.1 233.287 98.9 233.94C99.7133 234.593 100.12 235.48 100.12 236.6C100.12 237.427 99.9 238.113 99.46 238.66C99.0333 239.207 98.46 239.587 97.74 239.8ZM92.66 238.64H94.9C95.46 238.64 95.8867 238.52 96.18 238.28C96.4867 238.027 96.64 237.66 96.64 237.18C96.64 236.7 96.4867 236.333 96.18 236.08C95.8867 235.827 95.46 235.7 94.9 235.7H92.66V238.64ZM95.18 244.24C95.7533 244.24 96.1933 244.113 96.5 243.86C96.82 243.593 96.98 243.213 96.98 242.72C96.98 242.227 96.8133 241.84 96.48 241.56C96.16 241.28 95.7133 241.14 95.14 241.14H92.66V244.24H95.18ZM101.744 241.4C101.744 240.253 101.957 239.247 102.384 238.38C102.824 237.513 103.417 236.847 104.164 236.38C104.91 235.913 105.744 235.68 106.664 235.68C107.45 235.68 108.137 235.84 108.724 236.16C109.324 236.48 109.784 236.9 110.104 237.42V235.84H113.524V247H110.104V245.42C109.77 245.94 109.304 246.36 108.704 246.68C108.117 247 107.43 247.16 106.644 247.16C105.737 247.16 104.91 246.927 104.164 246.46C103.417 245.98 102.824 245.307 102.384 244.44C101.957 243.56 101.744 242.547 101.744 241.4ZM110.104 241.42C110.104 240.567 109.864 239.893 109.384 239.4C108.917 238.907 108.344 238.66 107.664 238.66C106.984 238.66 106.404 238.907 105.924 239.4C105.457 239.88 105.224 240.547 105.224 241.4C105.224 242.253 105.457 242.933 105.924 243.44C106.404 243.933 106.984 244.18 107.664 244.18C108.344 244.18 108.917 243.933 109.384 243.44C109.864 242.947 110.104 242.273 110.104 241.42ZM119.418 237.7C119.818 237.087 120.318 236.607 120.918 236.26C121.518 235.9 122.184 235.72 122.918 235.72V239.34H121.978C121.124 239.34 120.484 239.527 120.058 239.9C119.631 240.26 119.418 240.9 119.418 241.82V247H115.998V235.84H119.418V237.7ZM123.873 241.4C123.873 240.253 124.086 239.247 124.513 238.38C124.953 237.513 125.546 236.847 126.293 236.38C127.039 235.913 127.873 235.68 128.793 235.68C129.579 235.68 130.266 235.84 130.853 236.16C131.453 236.48 131.913 236.9 132.233 237.42V235.84H135.653V247H132.233V245.42C131.899 245.94 131.433 246.36 130.833 246.68C130.246 247 129.559 247.16 128.773 247.16C127.866 247.16 127.039 246.927 126.293 246.46C125.546 245.98 124.953 245.307 124.513 244.44C124.086 243.56 123.873 242.547 123.873 241.4ZM132.233 241.42C132.233 240.567 131.993 239.893 131.513 239.4C131.046 238.907 130.473 238.66 129.793 238.66C129.113 238.66 128.533 238.907 128.053 239.4C127.586 239.88 127.353 240.547 127.353 241.4C127.353 242.253 127.586 242.933 128.053 243.44C128.533 243.933 129.113 244.18 129.793 244.18C130.473 244.18 131.046 243.933 131.513 243.44C131.993 242.947 132.233 242.273 132.233 241.42ZM144.927 235.72C146.233 235.72 147.273 236.147 148.047 237C148.833 237.84 149.227 239 149.227 240.48V247H145.827V240.94C145.827 240.193 145.633 239.613 145.247 239.2C144.86 238.787 144.34 238.58 143.687 238.58C143.033 238.58 142.513 238.787 142.127 239.2C141.74 239.613 141.547 240.193 141.547 240.94V247H138.127V235.84H141.547V237.32C141.893 236.827 142.36 236.44 142.947 236.16C143.533 235.867 144.193 235.72 144.927 235.72ZM155.843 235.68C156.63 235.68 157.317 235.84 157.903 236.16C158.503 236.48 158.963 236.9 159.283 237.42V235.84H162.703V246.98C162.703 248.007 162.497 248.933 162.083 249.76C161.683 250.6 161.063 251.267 160.223 251.76C159.397 252.253 158.363 252.5 157.123 252.5C155.47 252.5 154.13 252.107 153.103 251.32C152.077 250.547 151.49 249.493 151.343 248.16H154.723C154.83 248.587 155.083 248.92 155.483 249.16C155.883 249.413 156.377 249.54 156.963 249.54C157.67 249.54 158.23 249.333 158.643 248.92C159.07 248.52 159.283 247.873 159.283 246.98V245.4C158.95 245.92 158.49 246.347 157.903 246.68C157.317 247 156.63 247.16 155.843 247.16C154.923 247.16 154.09 246.927 153.343 246.46C152.597 245.98 152.003 245.307 151.563 244.44C151.137 243.56 150.923 242.547 150.923 241.4C150.923 240.253 151.137 239.247 151.563 238.38C152.003 237.513 152.597 236.847 153.343 236.38C154.09 235.913 154.923 235.68 155.843 235.68ZM159.283 241.42C159.283 240.567 159.043 239.893 158.563 239.4C158.097 238.907 157.523 238.66 156.843 238.66C156.163 238.66 155.583 238.907 155.103 239.4C154.637 239.88 154.403 240.547 154.403 241.4C154.403 242.253 154.637 242.933 155.103 243.44C155.583 243.933 156.163 244.18 156.843 244.18C157.523 244.18 158.097 243.933 158.563 243.44C159.043 242.947 159.283 242.273 159.283 241.42Z" fill="white"/>
<rect x="16" y="302" width="192" height="58" rx="20" fill="#03626F"/>
<g clip-path="url(#clip2_2221_727)">
<path d="M38.8145 315.832H35.84C35.5746 315.832 35.3117 315.888 35.0665 315.998C34.8213 316.108 34.5988 316.27 34.4117 316.474C34.2246 316.678 34.0768 316.92 33.9767 317.186C33.8766 317.452 33.8263 317.738 33.8287 318.025V349.837C33.8299 350.411 34.0414 350.961 34.4168 351.367C34.7921 351.772 35.3008 352 35.8311 352H59.2549C59.7852 352 60.2938 351.772 60.6692 351.367C61.0446 350.961 61.2561 350.411 61.2573 349.837V318.025C61.2573 317.74 61.2055 317.458 61.1048 317.195C61.0042 316.932 60.8567 316.693 60.6708 316.492C60.4848 316.29 60.2641 316.131 60.0212 316.022C59.7782 315.913 59.5178 315.857 59.2549 315.857H56.2804C56.2681 315.296 56.0578 314.762 55.6928 314.364C55.3279 313.966 54.836 313.735 54.3184 313.717H52.3921C52.2671 312.951 51.897 312.256 51.3467 311.755C50.7963 311.254 50.1008 310.979 49.3819 310.977H46.1431C45.4247 310.979 44.7298 311.254 44.1802 311.756C43.6306 312.257 43.2614 312.951 43.1373 313.717H40.7721C40.259 313.736 39.7714 313.964 39.4079 314.357C39.0445 314.749 38.8324 315.277 38.8145 315.832ZM56.2267 319.155H57.6736V347.246H37.4124V319.155H38.8996C39.015 319.601 39.2599 319.994 39.598 320.277C39.936 320.56 40.3493 320.718 40.7765 320.727H54.3228C54.7547 320.724 55.1741 320.569 55.5176 320.286C55.8611 320.002 56.11 319.605 56.2267 319.155ZM59.8552 318.001V349.812C59.854 349.975 59.7935 350.13 59.6869 350.245C59.5804 350.359 59.4364 350.423 59.2862 350.423H35.84C35.6903 350.423 35.5468 350.359 35.4409 350.244C35.3351 350.13 35.2756 349.974 35.2756 349.812V318.025C35.275 317.945 35.2892 317.865 35.3174 317.79C35.3455 317.716 35.3871 317.648 35.4396 317.591C35.4921 317.534 35.5546 317.489 35.6233 317.459C35.6921 317.428 35.7657 317.413 35.84 317.414H38.81V317.622H36.7001C36.51 317.622 36.3277 317.704 36.1933 317.85C36.0589 317.995 35.9834 318.193 35.9834 318.398V348.047C35.9828 348.149 36.0009 348.25 36.0367 348.344C36.0725 348.439 36.1253 348.525 36.192 348.597C36.2587 348.669 36.3379 348.726 36.4251 348.765C36.5124 348.804 36.6058 348.823 36.7001 348.823H58.3724C58.5625 348.823 58.7448 348.741 58.8792 348.595C59.0136 348.45 59.0891 348.252 59.0891 348.047V318.374C59.0891 318.168 59.0136 317.971 58.8792 317.825C58.7448 317.68 58.5625 317.598 58.3724 317.598H56.2984V317.39H59.2638C59.3403 317.389 59.416 317.405 59.4865 317.437C59.557 317.469 59.6208 317.516 59.674 317.575C59.7272 317.635 59.7687 317.705 59.796 317.782C59.8233 317.86 59.8358 317.942 59.8328 318.025L59.8552 318.001ZM40.2659 315.954C40.2532 315.783 40.3022 315.614 40.4025 315.482C40.5028 315.35 40.6465 315.265 40.8034 315.245H43.8361C44.0266 315.245 44.2094 315.164 44.3445 315.018C44.4796 314.873 44.5561 314.676 44.5573 314.469V314.266C44.5573 313.801 44.7276 313.355 45.0307 313.026C45.3338 312.696 45.7452 312.511 46.1745 312.51H49.4132C49.8429 312.511 50.2547 312.696 50.5586 313.025C50.8624 313.354 51.0336 313.8 51.0348 314.266V314.469C51.0348 314.675 51.1103 314.873 51.2448 315.018C51.3792 315.164 51.5615 315.245 51.7516 315.245H54.3497C54.5063 315.265 54.6496 315.35 54.7492 315.482C54.8487 315.615 54.8967 315.784 54.8828 315.954V316.609V318.462C54.8967 318.632 54.8487 318.801 54.7492 318.933C54.6496 319.065 54.5063 319.15 54.3497 319.17H40.781C40.6241 319.15 40.4804 319.065 40.3801 318.933C40.2798 318.801 40.2308 318.632 40.2435 318.462V315.949L40.2659 315.954Z" fill="white"/>
<path d="M47.8108 318.274C48.2256 318.274 48.6311 318.14 48.976 317.891C49.3209 317.641 49.5896 317.286 49.7481 316.871C49.9066 316.456 49.9479 315.999 49.8666 315.559C49.7854 315.118 49.5853 314.714 49.2916 314.397C48.998 314.079 48.624 313.863 48.2171 313.776C47.8101 313.689 47.3884 313.735 47.0054 313.908C46.6224 314.08 46.2953 314.372 46.0655 314.746C45.8357 315.12 45.7135 315.559 45.7144 316.008C45.7155 316.61 45.9369 317.186 46.33 317.61C46.723 318.035 47.2556 318.274 47.8108 318.274ZM47.8108 315.29C47.9421 315.289 48.0707 315.331 48.1804 315.409C48.29 315.487 48.3756 315.599 48.4265 315.73C48.4774 315.861 48.4911 316.006 48.4661 316.145C48.441 316.285 48.3782 316.413 48.2857 316.514C48.1931 316.615 48.075 316.684 47.9463 316.712C47.8176 316.74 47.684 316.726 47.5626 316.672C47.4412 316.618 47.3374 316.526 47.2644 316.408C47.1913 316.29 47.1523 316.151 47.1523 316.008C47.1523 315.819 47.2215 315.637 47.3449 315.502C47.4683 315.368 47.6358 315.292 47.8108 315.29Z" fill="white"/>
<path d="M38.5679 325.015C38.5679 325.221 38.6432 325.419 38.7775 325.565C38.9118 325.712 39.0941 325.795 39.2846 325.796H55.4694C55.6503 325.78 55.8191 325.692 55.9423 325.547C56.0654 325.403 56.1338 325.214 56.1338 325.017C56.1338 324.821 56.0654 324.632 55.9423 324.487C55.8191 324.343 55.6503 324.254 55.4694 324.239H39.2846C39.0945 324.239 38.9122 324.321 38.7778 324.466C38.6434 324.612 38.5679 324.809 38.5679 325.015Z" fill="white"/>
<path d="M48.9874 329.628H39.2846C39.0945 329.628 38.9122 329.71 38.7778 329.855C38.6434 330.001 38.5679 330.198 38.5679 330.404C38.5679 330.61 38.6434 330.808 38.7778 330.953C38.9122 331.099 39.0945 331.18 39.2846 331.18H48.9874C49.1775 331.18 49.3598 331.099 49.4942 330.953C49.6286 330.808 49.7042 330.61 49.7042 330.404C49.7042 330.198 49.6286 330.001 49.4942 329.855C49.3598 329.71 49.1775 329.628 48.9874 329.628Z" fill="white"/>
<path d="M48.9874 335.536H39.2846C39.0945 335.536 38.9122 335.618 38.7778 335.764C38.6434 335.909 38.5679 336.107 38.5679 336.313C38.5679 336.518 38.6434 336.716 38.7778 336.861C38.9122 337.007 39.0945 337.089 39.2846 337.089H48.9874C49.1775 337.089 49.3598 337.007 49.4942 336.861C49.6286 336.716 49.7042 336.518 49.7042 336.313C49.7042 336.107 49.6286 335.909 49.4942 335.764C49.3598 335.618 49.1775 335.536 48.9874 335.536Z" fill="white"/>
<path d="M48.9874 341.445H39.2846C39.0945 341.445 38.9122 341.526 38.7778 341.672C38.6434 341.818 38.5679 342.015 38.5679 342.221C38.5679 342.427 38.6434 342.624 38.7778 342.77C38.9122 342.915 39.0945 342.997 39.2846 342.997H48.9874C49.1775 342.997 49.3598 342.915 49.4942 342.77C49.6286 342.624 49.7042 342.427 49.7042 342.221C49.7042 342.015 49.6286 341.818 49.4942 341.672C49.3598 341.526 49.1775 341.445 48.9874 341.445Z" fill="white"/>
<path d="M54.3452 327.896L52.522 329.953L52.0203 329.206C51.9038 329.052 51.737 328.952 51.5544 328.928C51.3719 328.903 51.1876 328.955 51.0397 329.074C50.8918 329.192 50.7916 329.368 50.7598 329.564C50.728 329.76 50.7671 329.962 50.869 330.128L51.8725 331.631C51.9355 331.722 52.0157 331.796 52.1077 331.85C52.1997 331.903 52.3013 331.935 52.4055 331.942H52.4503C52.5477 331.942 52.644 331.921 52.7333 331.879C52.8227 331.837 52.9032 331.776 52.97 331.699L55.38 328.973C55.4499 328.901 55.5055 328.814 55.5435 328.717C55.5815 328.621 55.6011 328.517 55.6011 328.412C55.6011 328.308 55.5815 328.204 55.5435 328.108C55.5054 328.011 55.4498 327.924 55.3799 327.852C55.3099 327.779 55.2272 327.723 55.1366 327.686C55.046 327.649 54.9495 327.633 54.8528 327.637C54.7561 327.642 54.6613 327.668 54.574 327.713C54.4868 327.758 54.409 327.822 54.3452 327.901V327.896Z" fill="white"/>
<path d="M54.3449 334.057L52.5217 336.118L52.02 335.381C51.9662 335.294 51.8965 335.219 51.8152 335.161C51.7339 335.104 51.6427 335.065 51.547 335.047C51.4514 335.028 51.3533 335.032 51.2588 335.056C51.1643 335.08 51.0753 335.124 50.9972 335.187C50.9191 335.249 50.8536 335.329 50.8045 335.419C50.7555 335.51 50.7241 335.611 50.712 335.715C50.7 335.819 50.7077 335.925 50.7347 336.026C50.7616 336.127 50.8072 336.221 50.8687 336.303L51.8722 337.782C51.9349 337.873 52.015 337.948 52.107 338.003C52.199 338.057 52.3007 338.09 52.4053 338.098H52.45C52.5469 338.098 52.6428 338.076 52.7321 338.036C52.8213 337.995 52.9021 337.935 52.9697 337.86L55.3797 335.134C55.445 335.06 55.4963 334.973 55.5306 334.878C55.5649 334.783 55.5816 334.682 55.5798 334.58C55.5779 334.478 55.5575 334.377 55.5197 334.284C55.4819 334.19 55.4275 334.106 55.3595 334.035C55.2916 333.964 55.2115 333.909 55.1237 333.872C55.0359 333.834 54.9423 333.816 54.8481 333.818C54.7538 333.82 54.6609 333.843 54.5746 333.883C54.4883 333.924 54.4102 333.983 54.3449 334.057Z" fill="white"/>
<path d="M54.3449 340.227L52.5217 342.303L52.02 341.566C51.9662 341.478 51.8965 341.404 51.8152 341.346C51.7339 341.289 51.6427 341.25 51.547 341.231C51.4514 341.213 51.3533 341.216 51.2588 341.24C51.1643 341.265 51.0753 341.309 50.9972 341.372C50.9191 341.434 50.8536 341.513 50.8045 341.604C50.7555 341.695 50.7241 341.795 50.712 341.9C50.7 342.004 50.7077 342.11 50.7347 342.211C50.7616 342.312 50.8072 342.406 50.8687 342.488L51.8722 343.943C51.9349 344.034 52.015 344.109 52.107 344.163C52.199 344.218 52.3007 344.25 52.4053 344.258H52.45C52.5471 344.259 52.6433 344.239 52.7327 344.198C52.8221 344.157 52.9027 344.096 52.9697 344.02L55.3797 341.294C55.445 341.221 55.4963 341.134 55.5306 341.039C55.5649 340.944 55.5816 340.842 55.5798 340.74C55.5779 340.638 55.5575 340.538 55.5197 340.444C55.4819 340.351 55.4275 340.266 55.3595 340.196C55.2916 340.125 55.2115 340.069 55.1237 340.032C55.0359 339.995 54.9423 339.977 54.8481 339.979C54.7538 339.981 54.6609 340.003 54.5746 340.044C54.4883 340.085 54.4102 340.144 54.3449 340.217V340.227Z" fill="white"/>
</g>
<path d="M94.66 335.36H99.14V338H91.24V323.96H94.66V335.36ZM100.091 332.4C100.091 331.253 100.305 330.247 100.731 329.38C101.171 328.513 101.765 327.847 102.511 327.38C103.258 326.913 104.091 326.68 105.011 326.68C105.798 326.68 106.485 326.84 107.071 327.16C107.671 327.48 108.131 327.9 108.451 328.42V326.84H111.871V338H108.451V336.42C108.118 336.94 107.651 337.36 107.051 337.68C106.465 338 105.778 338.16 104.991 338.16C104.085 338.16 103.258 337.927 102.511 337.46C101.765 336.98 101.171 336.307 100.731 335.44C100.305 334.56 100.091 333.547 100.091 332.4ZM108.451 332.42C108.451 331.567 108.211 330.893 107.731 330.4C107.265 329.907 106.691 329.66 106.011 329.66C105.331 329.66 104.751 329.907 104.271 330.4C103.805 330.88 103.571 331.547 103.571 332.4C103.571 333.253 103.805 333.933 104.271 334.44C104.751 334.933 105.331 335.18 106.011 335.18C106.691 335.18 107.265 334.933 107.731 334.44C108.211 333.947 108.451 333.273 108.451 332.42ZM117.765 328.42C118.099 327.9 118.559 327.48 119.145 327.16C119.732 326.84 120.419 326.68 121.205 326.68C122.125 326.68 122.959 326.913 123.705 327.38C124.452 327.847 125.039 328.513 125.465 329.38C125.905 330.247 126.125 331.253 126.125 332.4C126.125 333.547 125.905 334.56 125.465 335.44C125.039 336.307 124.452 336.98 123.705 337.46C122.959 337.927 122.125 338.16 121.205 338.16C120.432 338.16 119.745 338 119.145 337.68C118.559 337.36 118.099 336.947 117.765 336.44V343.32H114.345V326.84H117.765V328.42ZM122.645 332.4C122.645 331.547 122.405 330.88 121.925 330.4C121.459 329.907 120.879 329.66 120.185 329.66C119.505 329.66 118.925 329.907 118.445 330.4C117.979 330.893 117.745 331.567 117.745 332.42C117.745 333.273 117.979 333.947 118.445 334.44C118.925 334.933 119.505 335.18 120.185 335.18C120.865 335.18 121.445 334.933 121.925 334.44C122.405 333.933 122.645 333.253 122.645 332.4ZM133 338.16C131.906 338.16 130.92 337.927 130.04 337.46C129.173 336.993 128.486 336.327 127.98 335.46C127.486 334.593 127.24 333.58 127.24 332.42C127.24 331.273 127.493 330.267 128 329.4C128.506 328.52 129.2 327.847 130.08 327.38C130.96 326.913 131.946 326.68 133.04 326.68C134.133 326.68 135.12 326.913 136 327.38C136.88 327.847 137.573 328.52 138.08 329.4C138.586 330.267 138.84 331.273 138.84 332.42C138.84 333.567 138.58 334.58 138.06 335.46C137.553 336.327 136.853 336.993 135.96 337.46C135.08 337.927 134.093 338.16 133 338.16ZM133 335.2C133.653 335.2 134.206 334.96 134.66 334.48C135.126 334 135.36 333.313 135.36 332.42C135.36 331.527 135.133 330.84 134.68 330.36C134.24 329.88 133.693 329.64 133.04 329.64C132.373 329.64 131.82 329.88 131.38 330.36C130.94 330.827 130.72 331.513 130.72 332.42C130.72 333.313 130.933 334 131.36 334.48C131.8 334.96 132.346 335.2 133 335.2ZM144.074 328.7C144.474 328.087 144.974 327.607 145.574 327.26C146.174 326.9 146.841 326.72 147.574 326.72V330.34H146.634C145.781 330.34 145.141 330.527 144.714 330.9C144.287 331.26 144.074 331.9 144.074 332.82V338H140.654V326.84H144.074V328.7ZM148.529 332.4C148.529 331.253 148.742 330.247 149.169 329.38C149.609 328.513 150.202 327.847 150.949 327.38C151.695 326.913 152.529 326.68 153.449 326.68C154.235 326.68 154.922 326.84 155.509 327.16C156.109 327.48 156.569 327.9 156.889 328.42V326.84H160.309V338H156.889V336.42C156.555 336.94 156.089 337.36 155.489 337.68C154.902 338 154.215 338.16 153.429 338.16C152.522 338.16 151.695 337.927 150.949 337.46C150.202 336.98 149.609 336.307 149.169 335.44C148.742 334.56 148.529 333.547 148.529 332.4ZM156.889 332.42C156.889 331.567 156.649 330.893 156.169 330.4C155.702 329.907 155.129 329.66 154.449 329.66C153.769 329.66 153.189 329.907 152.709 330.4C152.242 330.88 152.009 331.547 152.009 332.4C152.009 333.253 152.242 333.933 152.709 334.44C153.189 334.933 153.769 335.18 154.449 335.18C155.129 335.18 155.702 334.933 156.169 334.44C156.649 333.947 156.889 333.273 156.889 332.42ZM169.583 326.72C170.89 326.72 171.93 327.147 172.703 328C173.49 328.84 173.883 330 173.883 331.48V338H170.483V331.94C170.483 331.193 170.29 330.613 169.903 330.2C169.516 329.787 168.996 329.58 168.343 329.58C167.69 329.58 167.17 329.787 166.783 330.2C166.396 330.613 166.203 331.193 166.203 331.94V338H162.783V326.84H166.203V328.32C166.55 327.827 167.016 327.44 167.603 327.16C168.19 326.867 168.85 326.72 169.583 326.72Z" fill="white"/>
<rect x="16" y="391" width="192" height="58" rx="20" fill="#03626F"/>
<path d="M51.2233 418.259C56.8209 418.259 61.3587 413.724 61.3587 408.129C61.3587 402.535 56.8209 398 51.2233 398C45.6257 398 41.0879 402.535 41.0879 408.129C41.0879 413.724 45.6257 418.259 51.2233 418.259Z" fill="white"/>
<path d="M68.2999 434.156V435.895C67.3769 436.786 66.3865 437.605 65.3376 438.344C61.2031 441.244 56.2747 442.8 51.2235 442.8C46.1723 442.8 41.2438 441.244 37.1093 438.344C36.0608 437.606 35.0713 436.788 34.1499 435.896V434.157C34.1499 427.691 41.3244 421.293 51.2235 421.293C61.3588 421.292 68.2999 427.69 68.2999 434.156Z" fill="white"/>
<path d="M94.6 412.96V421.36C94.6 422.2 94.8067 422.847 95.22 423.3C95.6333 423.753 96.24 423.98 97.04 423.98C97.84 423.98 98.4533 423.753 98.88 423.3C99.3067 422.847 99.52 422.2 99.52 421.36V412.96H102.94V421.34C102.94 422.593 102.673 423.653 102.14 424.52C101.607 425.387 100.887 426.04 99.98 426.48C99.0867 426.92 98.0867 427.14 96.98 427.14C95.8733 427.14 94.88 426.927 94 426.5C93.1333 426.06 92.4467 425.407 91.94 424.54C91.4333 423.66 91.18 422.593 91.18 421.34V412.96H94.6ZM109.882 427.16C108.908 427.16 108.042 426.993 107.282 426.66C106.522 426.327 105.922 425.873 105.482 425.3C105.042 424.713 104.795 424.06 104.742 423.34H108.122C108.162 423.727 108.342 424.04 108.662 424.28C108.982 424.52 109.375 424.64 109.842 424.64C110.268 424.64 110.595 424.56 110.822 424.4C111.062 424.227 111.182 424.007 111.182 423.74C111.182 423.42 111.015 423.187 110.682 423.04C110.348 422.88 109.808 422.707 109.062 422.52C108.262 422.333 107.595 422.14 107.062 421.94C106.528 421.727 106.068 421.4 105.682 420.96C105.295 420.507 105.102 419.9 105.102 419.14C105.102 418.5 105.275 417.92 105.622 417.4C105.982 416.867 106.502 416.447 107.182 416.14C107.875 415.833 108.695 415.68 109.642 415.68C111.042 415.68 112.142 416.027 112.942 416.72C113.755 417.413 114.222 418.333 114.342 419.48H111.182C111.128 419.093 110.955 418.787 110.662 418.56C110.382 418.333 110.008 418.22 109.542 418.22C109.142 418.22 108.835 418.3 108.622 418.46C108.408 418.607 108.302 418.813 108.302 419.08C108.302 419.4 108.468 419.64 108.802 419.8C109.148 419.96 109.682 420.12 110.402 420.28C111.228 420.493 111.902 420.707 112.422 420.92C112.942 421.12 113.395 421.453 113.782 421.92C114.182 422.373 114.388 422.987 114.402 423.76C114.402 424.413 114.215 425 113.842 425.52C113.482 426.027 112.955 426.427 112.262 426.72C111.582 427.013 110.788 427.16 109.882 427.16ZM127.014 421.24C127.014 421.56 126.994 421.893 126.954 422.24H119.214C119.267 422.933 119.487 423.467 119.874 423.84C120.274 424.2 120.761 424.38 121.334 424.38C122.187 424.38 122.781 424.02 123.114 423.3H126.754C126.567 424.033 126.227 424.693 125.734 425.28C125.254 425.867 124.647 426.327 123.914 426.66C123.181 426.993 122.361 427.16 121.454 427.16C120.361 427.16 119.387 426.927 118.534 426.46C117.681 425.993 117.014 425.327 116.534 424.46C116.054 423.593 115.814 422.58 115.814 421.42C115.814 420.26 116.047 419.247 116.514 418.38C116.994 417.513 117.661 416.847 118.514 416.38C119.367 415.913 120.347 415.68 121.454 415.68C122.534 415.68 123.494 415.907 124.334 416.36C125.174 416.813 125.827 417.46 126.294 418.3C126.774 419.14 127.014 420.12 127.014 421.24ZM123.514 420.34C123.514 419.753 123.314 419.287 122.914 418.94C122.514 418.593 122.014 418.42 121.414 418.42C120.841 418.42 120.354 418.587 119.954 418.92C119.567 419.253 119.327 419.727 119.234 420.34H123.514ZM132.238 417.7C132.638 417.087 133.138 416.607 133.738 416.26C134.338 415.9 135.005 415.72 135.738 415.72V419.34H134.798C133.945 419.34 133.305 419.527 132.878 419.9C132.451 420.26 132.238 420.9 132.238 421.82V427H128.818V415.84H132.238V417.7Z" fill="white"/>
<rect x="16" y="646" width="192" height="58" rx="20" fill="#03626F"/>
<path d="M81.66 679.36H86.14V682H78.24V667.96H81.66V679.36ZM92.8513 682.16C91.7579 682.16 90.7713 681.927 89.8913 681.46C89.0246 680.993 88.3379 680.327 87.8313 679.46C87.3379 678.593 87.0913 677.58 87.0913 676.42C87.0913 675.273 87.3446 674.267 87.8512 673.4C88.3579 672.52 89.0513 671.847 89.9313 671.38C90.8113 670.913 91.7979 670.68 92.8913 670.68C93.9846 670.68 94.9713 670.913 95.8513 671.38C96.7313 671.847 97.4246 672.52 97.9313 673.4C98.4379 674.267 98.6913 675.273 98.6913 676.42C98.6913 677.567 98.4313 678.58 97.9113 679.46C97.4046 680.327 96.7046 680.993 95.8113 681.46C94.9313 681.927 93.9446 682.16 92.8513 682.16ZM92.8513 679.2C93.5046 679.2 94.0579 678.96 94.5113 678.48C94.9779 678 95.2113 677.313 95.2113 676.42C95.2113 675.527 94.9846 674.84 94.5313 674.36C94.0913 673.88 93.5446 673.64 92.8913 673.64C92.2246 673.64 91.6713 673.88 91.2313 674.36C90.7913 674.827 90.5713 675.513 90.5713 676.42C90.5713 677.313 90.7846 678 91.2113 678.48C91.6513 678.96 92.1979 679.2 92.8513 679.2ZM104.746 670.68C105.532 670.68 106.219 670.84 106.806 671.16C107.406 671.48 107.866 671.9 108.186 672.42V670.84H111.606V681.98C111.606 683.007 111.399 683.933 110.986 684.76C110.586 685.6 109.966 686.267 109.126 686.76C108.299 687.253 107.266 687.5 106.026 687.5C104.372 687.5 103.032 687.107 102.006 686.32C100.979 685.547 100.392 684.493 100.246 683.16H103.626C103.732 683.587 103.986 683.92 104.386 684.16C104.786 684.413 105.279 684.54 105.866 684.54C106.572 684.54 107.132 684.333 107.546 683.92C107.972 683.52 108.186 682.873 108.186 681.98V680.4C107.852 680.92 107.392 681.347 106.806 681.68C106.219 682 105.532 682.16 104.746 682.16C103.826 682.16 102.992 681.927 102.246 681.46C101.499 680.98 100.906 680.307 100.466 679.44C100.039 678.56 99.8256 677.547 99.8256 676.4C99.8256 675.253 100.039 674.247 100.466 673.38C100.906 672.513 101.499 671.847 102.246 671.38C102.992 670.913 103.826 670.68 104.746 670.68ZM108.186 676.42C108.186 675.567 107.946 674.893 107.466 674.4C106.999 673.907 106.426 673.66 105.746 673.66C105.066 673.66 104.486 673.907 104.006 674.4C103.539 674.88 103.306 675.547 103.306 676.4C103.306 677.253 103.539 677.933 104.006 678.44C104.486 678.933 105.066 679.18 105.746 679.18C106.426 679.18 106.999 678.933 107.466 678.44C107.946 677.947 108.186 677.273 108.186 676.42ZM119.16 682.16C118.067 682.16 117.08 681.927 116.2 681.46C115.333 680.993 114.647 680.327 114.14 679.46C113.647 678.593 113.4 677.58 113.4 676.42C113.4 675.273 113.653 674.267 114.16 673.4C114.667 672.52 115.36 671.847 116.24 671.38C117.12 670.913 118.107 670.68 119.2 670.68C120.293 670.68 121.28 670.913 122.16 671.38C123.04 671.847 123.733 672.52 124.24 673.4C124.747 674.267 125 675.273 125 676.42C125 677.567 124.74 678.58 124.22 679.46C123.713 680.327 123.013 680.993 122.12 681.46C121.24 681.927 120.253 682.16 119.16 682.16ZM119.16 679.2C119.813 679.2 120.367 678.96 120.82 678.48C121.287 678 121.52 677.313 121.52 676.42C121.52 675.527 121.293 674.84 120.84 674.36C120.4 673.88 119.853 673.64 119.2 673.64C118.533 673.64 117.98 673.88 117.54 674.36C117.1 674.827 116.88 675.513 116.88 676.42C116.88 677.313 117.093 678 117.52 678.48C117.96 678.96 118.507 679.2 119.16 679.2ZM137.834 670.84V682H134.414V680.48C134.068 680.973 133.594 681.373 132.994 681.68C132.408 681.973 131.754 682.12 131.034 682.12C130.181 682.12 129.428 681.933 128.774 681.56C128.121 681.173 127.614 680.62 127.254 679.9C126.894 679.18 126.714 678.333 126.714 677.36V670.84H130.114V676.9C130.114 677.647 130.308 678.227 130.694 678.64C131.081 679.053 131.601 679.26 132.254 679.26C132.921 679.26 133.448 679.053 133.834 678.64C134.221 678.227 134.414 677.647 134.414 676.9V670.84H137.834ZM146.511 679.1V682H144.771C143.531 682 142.564 681.7 141.871 681.1C141.177 680.487 140.831 679.493 140.831 678.12V673.68H139.471V670.84H140.831V668.12H144.251V670.84H146.491V673.68H144.251V678.16C144.251 678.493 144.331 678.733 144.491 678.88C144.651 679.027 144.917 679.1 145.291 679.1H146.511Z" fill="white"/>
<defs>
<clipPath id="clip0_2221_727">
<rect width="32" height="42" fill="white" transform="translate(32 132)"/>
</clipPath>
<clipPath id="clip1_2221_727">
<rect width="40" height="40" fill="white" transform="translate(32 222)"/>
</clipPath>
<clipPath id="clip2_2221_727">
<rect width="32" height="42" fill="white" transform="translate(32 310)"/>
</clipPath>
</defs>
</svg>
