<svg width="22" height="22" viewBox="0 0 22 22" fill="none" xmlns="http://www.w3.org/2000/svg">
<path d="M16.8971 10.0069H4.44661C3.4643 10.0069 2.66797 10.8215 2.66797 11.8264V18.1944C2.66797 19.1993 3.4643 20.0139 4.44661 20.0139H16.8971C17.8795 20.0139 18.6758 19.1993 18.6758 18.1944V11.8264C18.6758 10.8215 17.8795 10.0069 16.8971 10.0069Z" stroke="white" stroke-linecap="round" stroke-linejoin="round"/>
<path d="M6.22526 10.0069V6.36805C6.22526 5.16169 6.69374 4.00473 7.52764 3.1517C8.36154 2.29867 9.49256 1.81944 10.6719 1.81944C11.8512 1.81944 12.9822 2.29867 13.8161 3.1517C14.65 4.00473 15.1185 5.16169 15.1185 6.36805V10.0069" stroke="white" stroke-linecap="round" stroke-linejoin="round"/>
</svg>
