<svg width="1366" height="768" viewBox="0 0 1366 768" fill="none" xmlns="http://www.w3.org/2000/svg">
<g clip-path="url(#clip0_1_2)">
<rect width="1366" height="768" fill="#03626F"/>
<circle cx="131" cy="718" r="362" fill="#3F95A1"/>
<circle cx="131" cy="718" r="286" fill="#03626F"/>
<circle cx="131" cy="718" r="219" fill="#3F95A1"/>
<path d="M831.5 137C695.9 149.8 603.667 49 574.5 -3L1438.5 0.5V718.5H1342C1043.2 680.5 1093.5 529 1156 458C1192.5 408.167 1258.5 288.1 1230.5 206.5C1195.5 104.5 1001 121 831.5 137Z" fill="#3F95A1"/>
<path d="M657.871 500.8H659.951V510.24H665.807V512H657.871V500.8ZM672.478 512.16C671.337 512.16 670.308 511.915 669.39 511.424C668.473 510.923 667.753 510.235 667.23 509.36C666.708 508.475 666.446 507.488 666.446 506.4C666.446 505.312 666.708 504.331 667.23 503.456C667.753 502.571 668.473 501.883 669.39 501.392C670.308 500.891 671.337 500.64 672.478 500.64C673.62 500.64 674.649 500.891 675.566 501.392C676.484 501.883 677.204 502.565 677.726 503.44C678.249 504.315 678.51 505.301 678.51 506.4C678.51 507.499 678.249 508.485 677.726 509.36C677.204 510.235 676.484 510.923 675.566 511.424C674.649 511.915 673.62 512.16 672.478 512.16ZM672.478 510.336C673.225 510.336 673.897 510.171 674.494 509.84C675.092 509.499 675.561 509.029 675.902 508.432C676.244 507.824 676.414 507.147 676.414 506.4C676.414 505.653 676.244 504.981 675.902 504.384C675.561 503.776 675.092 503.307 674.494 502.976C673.897 502.635 673.225 502.464 672.478 502.464C671.732 502.464 671.06 502.635 670.462 502.976C669.865 503.307 669.396 503.776 669.054 504.384C668.713 504.981 668.542 505.653 668.542 506.4C668.542 507.147 668.713 507.824 669.054 508.432C669.396 509.029 669.865 509.499 670.462 509.84C671.06 510.171 671.732 510.336 672.478 510.336ZM688.363 506.272H690.331V510.736C689.755 511.195 689.083 511.547 688.315 511.792C687.547 512.037 686.758 512.16 685.947 512.16C684.806 512.16 683.776 511.915 682.859 511.424C681.942 510.923 681.222 510.235 680.699 509.36C680.176 508.485 679.915 507.499 679.915 506.4C679.915 505.301 680.176 504.315 680.699 503.44C681.222 502.565 681.942 501.883 682.859 501.392C683.787 500.891 684.827 500.64 685.979 500.64C686.918 500.64 687.771 500.795 688.539 501.104C689.307 501.413 689.952 501.867 690.475 502.464L689.163 503.744C688.31 502.891 687.28 502.464 686.075 502.464C685.286 502.464 684.582 502.629 683.963 502.96C683.355 503.291 682.875 503.755 682.523 504.352C682.182 504.949 682.011 505.632 682.011 506.4C682.011 507.147 682.182 507.819 682.523 508.416C682.875 509.013 683.355 509.483 683.963 509.824C684.582 510.165 685.28 510.336 686.059 510.336C686.934 510.336 687.702 510.144 688.363 509.76V506.272ZM693.074 500.8H695.154V512H693.074V500.8ZM708.136 500.8V512H706.424L700.248 504.416V512H698.184V500.8H699.896L706.072 508.384V500.8H708.136Z" fill="#03626F"/>
<rect x="533.5" y="364.767" width="299" height="44" rx="3.5" stroke="white"/>
<rect x="533.5" y="429.767" width="299" height="44" rx="3.5" stroke="white"/>
<path d="M646.995 391.337C645.754 391.337 644.788 390.977 644.097 390.259C643.416 389.54 643.075 388.49 643.075 387.109V381.467H643.789V387.081C643.789 388.285 644.065 389.185 644.615 389.783C645.166 390.38 645.964 390.679 647.009 390.679C648.045 390.679 648.839 390.38 649.389 389.783C649.94 389.185 650.215 388.285 650.215 387.081V381.467H650.929V387.109C650.929 388.49 650.584 389.54 649.893 390.259C649.203 390.977 648.237 391.337 646.995 391.337ZM656.837 391.337C656.118 391.337 655.432 391.215 654.779 390.973C654.135 390.721 653.631 390.399 653.267 390.007L653.589 389.475C653.934 389.839 654.396 390.137 654.975 390.371C655.563 390.595 656.179 390.707 656.823 390.707C657.756 390.707 658.461 390.529 658.937 390.175C659.413 389.82 659.651 389.358 659.651 388.789C659.651 388.35 659.525 388 659.273 387.739C659.021 387.477 658.708 387.277 658.335 387.137C657.961 386.997 657.457 386.852 656.823 386.703C656.104 386.525 655.525 386.353 655.087 386.185C654.657 386.017 654.289 385.76 653.981 385.415C653.682 385.06 653.533 384.589 653.533 384.001C653.533 383.525 653.659 383.091 653.911 382.699C654.163 382.297 654.545 381.98 655.059 381.747C655.581 381.513 656.23 381.397 657.005 381.397C657.546 381.397 658.078 381.476 658.601 381.635C659.123 381.793 659.576 382.008 659.959 382.279L659.693 382.853C659.301 382.582 658.867 382.377 658.391 382.237C657.924 382.097 657.462 382.027 657.005 382.027C656.099 382.027 655.413 382.209 654.947 382.573C654.48 382.937 654.247 383.408 654.247 383.987C654.247 384.425 654.373 384.775 654.625 385.037C654.877 385.298 655.189 385.499 655.563 385.639C655.936 385.779 656.445 385.928 657.089 386.087C657.807 386.264 658.381 386.437 658.811 386.605C659.24 386.773 659.604 387.029 659.903 387.375C660.211 387.711 660.365 388.168 660.365 388.747C660.365 389.223 660.234 389.657 659.973 390.049C659.721 390.441 659.329 390.753 658.797 390.987C658.265 391.22 657.611 391.337 656.837 391.337ZM669.554 390.623V391.267H662.792V381.467H669.344V382.111H663.506V385.975H668.728V386.605H663.506V390.623H669.554ZM678.961 391.267L676.623 387.991C676.278 388.037 675.961 388.061 675.671 388.061H672.871V391.267H672.157V381.467H675.671C676.903 381.467 677.869 381.761 678.569 382.349C679.269 382.927 679.619 383.735 679.619 384.771C679.619 385.545 679.419 386.199 679.017 386.731C678.625 387.253 678.061 387.622 677.323 387.837L679.773 391.267H678.961ZM675.671 387.431C676.717 387.431 677.515 387.202 678.065 386.745C678.616 386.278 678.891 385.62 678.891 384.771C678.891 383.921 678.616 383.268 678.065 382.811C677.515 382.344 676.717 382.111 675.671 382.111H672.871V387.431H675.671ZM690.213 381.467V391.267H689.625L682.947 382.755V391.267H682.233V381.467H682.835L689.499 389.979V381.467H690.213ZM699.698 388.509H694.014L692.768 391.267H691.998L696.506 381.467H697.22L701.728 391.267H700.958L699.698 388.509ZM699.432 387.907L696.856 382.251L694.294 387.907H699.432ZM712.775 391.267L712.761 382.881L708.659 389.965H708.309L704.207 382.909V391.267H703.507V381.467H704.109L708.491 389.041L712.873 381.467H713.461L713.475 391.267H712.775ZM723.654 390.623V391.267H716.892V381.467H723.444V382.111H717.606V385.975H722.828V386.605H717.606V390.623H723.654Z" fill="white"/>
<path d="M569.167 397.642V395.225C569.167 393.943 568.657 392.714 567.751 391.807C566.845 390.901 565.615 390.392 564.333 390.392H554.667C553.385 390.392 552.155 390.901 551.249 391.807C550.343 392.714 549.833 393.943 549.833 395.225V397.642" stroke="white" stroke-linecap="round" stroke-linejoin="round"/>
<path d="M559.5 385.558C562.169 385.558 564.333 383.394 564.333 380.725C564.333 378.056 562.169 375.892 559.5 375.892C556.831 375.892 554.667 378.056 554.667 380.725C554.667 383.394 556.831 385.558 559.5 385.558Z" stroke="white" stroke-linecap="round" stroke-linejoin="round"/>
<path d="M646.346 447.467C647.578 447.467 648.544 447.761 649.244 448.349C649.944 448.927 650.294 449.735 650.294 450.771C650.294 451.797 649.944 452.605 649.244 453.193C648.544 453.771 647.578 454.061 646.346 454.061H643.546V457.267H642.832V447.467H646.346ZM646.346 453.417C647.391 453.417 648.189 453.188 648.74 452.731C649.291 452.273 649.566 451.62 649.566 450.771C649.566 449.921 649.291 449.268 648.74 448.811C648.189 448.344 647.391 448.111 646.346 448.111H643.546V453.417H646.346ZM658.273 454.509H652.589L651.343 457.267H650.573L655.081 447.467H655.795L660.303 457.267H659.533L658.273 454.509ZM658.007 453.907L655.431 448.251L652.869 453.907H658.007ZM664.658 457.337C663.939 457.337 663.253 457.215 662.6 456.973C661.956 456.721 661.452 456.399 661.088 456.007L661.41 455.475C661.755 455.839 662.217 456.137 662.796 456.371C663.384 456.595 664 456.707 664.644 456.707C665.577 456.707 666.282 456.529 666.758 456.175C667.234 455.82 667.472 455.358 667.472 454.789C667.472 454.35 667.346 454 667.094 453.739C666.842 453.477 666.529 453.277 666.156 453.137C665.783 452.997 665.279 452.852 664.644 452.703C663.925 452.525 663.347 452.353 662.908 452.185C662.479 452.017 662.11 451.76 661.802 451.415C661.503 451.06 661.354 450.589 661.354 450.001C661.354 449.525 661.48 449.091 661.732 448.699C661.984 448.297 662.367 447.98 662.88 447.747C663.403 447.513 664.051 447.397 664.826 447.397C665.367 447.397 665.899 447.476 666.422 447.635C666.945 447.793 667.397 448.008 667.78 448.279L667.514 448.853C667.122 448.582 666.688 448.377 666.212 448.237C665.745 448.097 665.283 448.027 664.826 448.027C663.921 448.027 663.235 448.209 662.768 448.573C662.301 448.937 662.068 449.408 662.068 449.987C662.068 450.425 662.194 450.775 662.446 451.037C662.698 451.298 663.011 451.499 663.384 451.639C663.757 451.779 664.266 451.928 664.91 452.087C665.629 452.264 666.203 452.437 666.632 452.605C667.061 452.773 667.425 453.029 667.724 453.375C668.032 453.711 668.186 454.168 668.186 454.747C668.186 455.223 668.055 455.657 667.794 456.049C667.542 456.441 667.15 456.753 666.618 456.987C666.086 457.22 665.433 457.337 664.658 457.337ZM673.189 457.337C672.471 457.337 671.785 457.215 671.131 456.973C670.487 456.721 669.983 456.399 669.619 456.007L669.941 455.475C670.287 455.839 670.749 456.137 671.327 456.371C671.915 456.595 672.531 456.707 673.175 456.707C674.109 456.707 674.813 456.529 675.289 456.175C675.765 455.82 676.003 455.358 676.003 454.789C676.003 454.35 675.877 454 675.625 453.739C675.373 453.477 675.061 453.277 674.687 453.137C674.314 452.997 673.81 452.852 673.175 452.703C672.457 452.525 671.878 452.353 671.439 452.185C671.01 452.017 670.641 451.76 670.333 451.415C670.035 451.06 669.885 450.589 669.885 450.001C669.885 449.525 670.011 449.091 670.263 448.699C670.515 448.297 670.898 447.98 671.411 447.747C671.934 447.513 672.583 447.397 673.357 447.397C673.899 447.397 674.431 447.476 674.953 447.635C675.476 447.793 675.929 448.008 676.311 448.279L676.045 448.853C675.653 448.582 675.219 448.377 674.743 448.237C674.277 448.097 673.815 448.027 673.357 448.027C672.452 448.027 671.766 448.209 671.299 448.573C670.833 448.937 670.599 449.408 670.599 449.987C670.599 450.425 670.725 450.775 670.977 451.037C671.229 451.298 671.542 451.499 671.915 451.639C672.289 451.779 672.797 451.928 673.441 452.087C674.16 452.264 674.734 452.437 675.163 452.605C675.593 452.773 675.957 453.029 676.255 453.375C676.563 453.711 676.717 454.168 676.717 454.747C676.717 455.223 676.587 455.657 676.325 456.049C676.073 456.441 675.681 456.753 675.149 456.987C674.617 457.22 673.964 457.337 673.189 457.337ZM692.249 447.467L688.931 457.267H688.175L685.137 448.475L682.085 457.267H681.329L677.997 447.467H678.753L681.735 456.287L684.801 447.467H685.487L688.539 456.301L691.549 447.467H692.249ZM698.369 457.337C697.408 457.337 696.54 457.122 695.765 456.693C694.99 456.254 694.379 455.657 693.931 454.901C693.492 454.145 693.273 453.3 693.273 452.367C693.273 451.433 693.492 450.589 693.931 449.833C694.379 449.077 694.99 448.484 695.765 448.055C696.54 447.616 697.408 447.397 698.369 447.397C699.33 447.397 700.198 447.611 700.973 448.041C701.748 448.47 702.354 449.063 702.793 449.819C703.241 450.575 703.465 451.424 703.465 452.367C703.465 453.309 703.241 454.159 702.793 454.915C702.354 455.671 701.748 456.263 700.973 456.693C700.198 457.122 699.33 457.337 698.369 457.337ZM698.369 456.679C699.19 456.679 699.932 456.492 700.595 456.119C701.258 455.745 701.78 455.232 702.163 454.579C702.546 453.916 702.737 453.179 702.737 452.367C702.737 451.555 702.546 450.822 702.163 450.169C701.78 449.506 701.258 448.988 700.595 448.615C699.932 448.241 699.19 448.055 698.369 448.055C697.548 448.055 696.801 448.241 696.129 448.615C695.466 448.988 694.944 449.506 694.561 450.169C694.178 450.822 693.987 451.555 693.987 452.367C693.987 453.179 694.178 453.916 694.561 454.579C694.944 455.232 695.466 455.745 696.129 456.119C696.801 456.492 697.548 456.679 698.369 456.679ZM712.745 457.267L710.407 453.991C710.062 454.037 709.745 454.061 709.455 454.061H706.655V457.267H705.941V447.467H709.455C710.687 447.467 711.653 447.761 712.353 448.349C713.053 448.927 713.403 449.735 713.403 450.771C713.403 451.545 713.203 452.199 712.801 452.731C712.409 453.253 711.845 453.622 711.107 453.837L713.557 457.267H712.745ZM709.455 453.431C710.501 453.431 711.299 453.202 711.849 452.745C712.4 452.278 712.675 451.62 712.675 450.771C712.675 449.921 712.4 449.268 711.849 448.811C711.299 448.344 710.501 448.111 709.455 448.111H706.655V453.431H709.455ZM716.018 447.467H719.896C720.913 447.467 721.814 447.677 722.598 448.097C723.391 448.517 724.007 449.1 724.446 449.847C724.884 450.584 725.104 451.424 725.104 452.367C725.104 453.309 724.884 454.154 724.446 454.901C724.007 455.638 723.391 456.217 722.598 456.637C721.814 457.057 720.913 457.267 719.896 457.267H716.018V447.467ZM719.84 456.623C720.745 456.623 721.543 456.445 722.234 456.091C722.924 455.727 723.456 455.223 723.83 454.579C724.203 453.935 724.39 453.197 724.39 452.367C724.39 451.536 724.203 450.799 723.83 450.155C723.456 449.511 722.924 449.011 722.234 448.657C721.543 448.293 720.745 448.111 719.84 448.111H716.732V456.623H719.84Z" fill="white"/>
<path d="M567.277 450.511H552.336C551.157 450.511 550.202 451.426 550.202 452.556V459.711C550.202 460.84 551.157 461.756 552.336 461.756H567.277C568.455 461.756 569.411 460.84 569.411 459.711V452.556C569.411 451.426 568.455 450.511 567.277 450.511Z" stroke="white" stroke-linecap="round" stroke-linejoin="round"/>
<path d="M554.47 450.511V446.422C554.47 445.067 555.032 443.767 556.033 442.808C557.034 441.85 558.391 441.311 559.806 441.311C561.221 441.311 562.579 441.85 563.579 442.808C564.58 443.767 565.142 445.067 565.142 446.422V450.511" stroke="white" stroke-linecap="round" stroke-linejoin="round"/>
<g filter="url(#filter0_d_1_2)">
<rect x="533" y="517.267" width="300" height="45" rx="4" fill="white"/>
</g>
<path d="M619 206H633.57C635.895 206 637.946 207.522 638.623 209.748L661.431 284.827C662.107 287.053 664.159 288.575 666.484 288.575H717.873C720.29 288.575 722.399 286.934 722.993 284.59L732.194 248.3C732.788 245.956 734.897 244.315 737.313 244.315H746.407" stroke="white" stroke-width="3.75648" stroke-linecap="round"/>
<path d="M694.336 227.059C693.563 226.285 692.309 226.285 691.536 227.059L678.932 239.671C678.159 240.445 678.159 241.7 678.932 242.474C679.706 243.248 680.96 243.248 681.733 242.474L692.936 231.263L704.139 242.474C704.912 243.248 706.166 243.248 706.94 242.474C707.713 241.7 707.713 240.445 706.94 239.671L694.336 227.059ZM694.916 265.454V228.46H690.956V265.454H694.916Z" fill="white"/>
<path d="M679.073 310.375C682.354 310.375 685.014 307.713 685.014 304.429C685.014 301.146 682.354 298.484 679.073 298.484C675.792 298.484 673.132 301.146 673.132 304.429C673.132 307.713 675.792 310.375 679.073 310.375Z" stroke="white" stroke-width="3.00518"/>
<path d="M708.119 310.375C711.4 310.375 714.06 307.713 714.06 304.429C714.06 301.146 711.4 298.484 708.119 298.484C704.838 298.484 702.178 301.146 702.178 304.429C702.178 307.713 704.838 310.375 708.119 310.375Z" stroke="white" stroke-width="3.00518"/>
</g>
<defs>
<filter id="filter0_d_1_2" x="529" y="517.267" width="308" height="53" filterUnits="userSpaceOnUse" color-interpolation-filters="sRGB">
<feFlood flood-opacity="0" result="BackgroundImageFix"/>
<feColorMatrix in="SourceAlpha" type="matrix" values="0 0 0 0 0 0 0 0 0 0 0 0 0 0 0 0 0 0 127 0" result="hardAlpha"/>
<feOffset dy="4"/>
<feGaussianBlur stdDeviation="2"/>
<feColorMatrix type="matrix" values="0 0 0 0 0 0 0 0 0 0 0 0 0 0 0 0 0 0 0.3 0"/>
<feBlend mode="normal" in2="BackgroundImageFix" result="effect1_dropShadow_1_2"/>
<feBlend mode="normal" in="SourceGraphic" in2="effect1_dropShadow_1_2" result="shape"/>
</filter>
<clipPath id="clip0_1_2">
<rect width="1366" height="768" fill="white"/>
</clipPath>
</defs>
</svg>
