<svg width="1366" height="768" viewBox="0 0 1366 768" fill="none" xmlns="http://www.w3.org/2000/svg">
<g clip-path="url(#clip0_2207_2)">
<rect width="1366" height="768" fill="#03626F"/>
<circle cx="131" cy="718" r="362" fill="#3F95A1"/>
<circle cx="131" cy="718" r="286" fill="#03626F"/>
<circle cx="131" cy="718" r="219" fill="#3F95A1"/>
<path d="M831.5 137C695.9 149.8 603.667 49 574.5 -3L1438.5 0.5V718.5H1342C1043.2 680.5 1093.5 529 1156 458C1192.5 408.167 1258.5 288.1 1230.5 206.5C1195.5 104.5 1001 121 831.5 137Z" fill="#3F95A1"/>
<rect x="198" y="68" width="970" height="632" rx="50" fill="#0A3238"/>
<rect x="343" y="203" width="680" height="70" fill="#D9D9D9"/>
<rect x="343" y="306" width="680" height="70" fill="#D9D9D9"/>
<rect x="343" y="409" width="680" height="70" fill="#D9D9D9"/>
<rect x="343" y="512" width="680" height="70" fill="#D9D9D9"/>
<path d="M532.941 125.76V131.04H527.301V147H520.641V131.04H515.061V125.76H532.941ZM533.847 138.54C533.847 136.76 534.147 135.22 534.747 133.92C535.367 132.6 536.207 131.6 537.267 130.92C538.327 130.22 539.517 129.87 540.837 129.87C541.937 129.87 542.887 130.1 543.687 130.56C544.487 131 545.097 131.61 545.517 132.39V130.08H552.147V147H545.517V144.69C545.097 145.47 544.487 146.09 543.687 146.55C542.887 146.99 541.937 147.21 540.837 147.21C539.517 147.21 538.327 146.87 537.267 146.19C536.207 145.49 535.367 144.49 534.747 143.19C534.147 141.87 533.847 140.32 533.847 138.54ZM545.517 138.54C545.517 137.64 545.287 136.94 544.827 136.44C544.367 135.94 543.777 135.69 543.057 135.69C542.337 135.69 541.747 135.94 541.287 136.44C540.827 136.94 540.597 137.64 540.597 138.54C540.597 139.44 540.827 140.14 541.287 140.64C541.747 141.14 542.337 141.39 543.057 141.39C543.777 141.39 544.367 141.14 544.827 140.64C545.287 140.14 545.517 139.44 545.517 138.54ZM577.728 129.96C579.888 129.96 581.558 130.61 582.738 131.91C583.938 133.21 584.538 134.97 584.538 137.19V147H577.908V138.03C577.908 137.31 577.688 136.75 577.248 136.35C576.828 135.93 576.258 135.72 575.538 135.72C574.798 135.72 574.218 135.93 573.798 136.35C573.378 136.75 573.168 137.31 573.168 138.03V147H566.538V138.03C566.538 137.31 566.318 136.75 565.878 136.35C565.458 135.93 564.888 135.72 564.168 135.72C563.428 135.72 562.848 135.93 562.428 136.35C562.008 136.75 561.798 137.31 561.798 138.03V147H555.138V130.08H561.798V132.36C562.278 131.64 562.928 131.06 563.748 130.62C564.588 130.18 565.568 129.96 566.688 129.96C567.908 129.96 568.988 130.23 569.928 130.77C570.868 131.29 571.618 132.03 572.178 132.99C572.798 132.11 573.588 131.39 574.548 130.83C575.508 130.25 576.568 129.96 577.728 129.96ZM594.083 132.39C594.503 131.61 595.103 131 595.883 130.56C596.683 130.1 597.633 129.87 598.733 129.87C600.053 129.87 601.243 130.22 602.303 130.92C603.363 131.6 604.193 132.6 604.793 133.92C605.413 135.22 605.723 136.76 605.723 138.54C605.723 140.32 605.413 141.87 604.793 143.19C604.193 144.49 603.363 145.49 602.303 146.19C601.243 146.87 600.053 147.21 598.733 147.21C597.633 147.21 596.683 146.99 595.883 146.55C595.103 146.09 594.503 145.47 594.083 144.69V147H587.423V124.8H594.083V132.39ZM598.973 138.54C598.973 137.64 598.743 136.94 598.283 136.44C597.823 135.94 597.233 135.69 596.513 135.69C595.793 135.69 595.203 135.94 594.743 136.44C594.283 136.94 594.053 137.64 594.053 138.54C594.053 139.44 594.283 140.14 594.743 140.64C595.203 141.14 595.793 141.39 596.513 141.39C597.233 141.39 597.823 141.14 598.283 140.64C598.743 140.14 598.973 139.44 598.973 138.54ZM606.913 138.54C606.913 136.76 607.213 135.22 607.813 133.92C608.433 132.6 609.273 131.6 610.333 130.92C611.393 130.22 612.583 129.87 613.903 129.87C615.003 129.87 615.953 130.1 616.753 130.56C617.553 131 618.163 131.61 618.583 132.39V130.08H625.213V147H618.583V144.69C618.163 145.47 617.553 146.09 616.753 146.55C615.953 146.99 615.003 147.21 613.903 147.21C612.583 147.21 611.393 146.87 610.333 146.19C609.273 145.49 608.433 144.49 607.813 143.19C607.213 141.87 606.913 140.32 606.913 138.54ZM618.583 138.54C618.583 137.64 618.353 136.94 617.893 136.44C617.433 135.94 616.843 135.69 616.123 135.69C615.403 135.69 614.813 135.94 614.353 136.44C613.893 136.94 613.663 137.64 613.663 138.54C613.663 139.44 613.893 140.14 614.353 140.64C614.813 141.14 615.403 141.39 616.123 141.39C616.843 141.39 617.433 141.14 617.893 140.64C618.353 140.14 618.583 139.44 618.583 138.54ZM640.054 129.96C641.994 129.96 643.504 130.61 644.584 131.91C645.684 133.21 646.234 134.97 646.234 137.19V147H639.604V138.03C639.604 137.23 639.384 136.6 638.944 136.14C638.524 135.66 637.954 135.42 637.234 135.42C636.494 135.42 635.914 135.66 635.494 136.14C635.074 136.6 634.864 137.23 634.864 138.03V147H628.204V124.8H634.864V132.66C635.384 131.86 636.074 131.21 636.934 130.71C637.814 130.21 638.854 129.96 640.054 129.96ZM668.44 136.11C669.72 136.41 670.71 137.03 671.41 137.97C672.13 138.89 672.49 139.96 672.49 141.18C672.49 143.04 671.87 144.48 670.63 145.5C669.41 146.5 667.65 147 665.35 147H654.22V125.76H665.05C667.21 125.76 668.91 126.23 670.15 127.17C671.39 128.11 672.01 129.48 672.01 131.28C672.01 132.52 671.68 133.57 671.02 134.43C670.38 135.27 669.52 135.83 668.44 136.11ZM660.88 134.04H663.46C664.06 134.04 664.5 133.92 664.78 133.68C665.08 133.44 665.23 133.07 665.23 132.57C665.23 132.05 665.08 131.67 664.78 131.43C664.5 131.17 664.06 131.04 663.46 131.04H660.88V134.04ZM663.91 141.66C664.51 141.66 664.95 141.55 665.23 141.33C665.53 141.09 665.68 140.71 665.68 140.19C665.68 139.17 665.09 138.66 663.91 138.66H660.88V141.66H663.91ZM673.828 138.54C673.828 136.76 674.128 135.22 674.728 133.92C675.348 132.6 676.188 131.6 677.248 130.92C678.308 130.22 679.498 129.87 680.818 129.87C681.918 129.87 682.868 130.1 683.668 130.56C684.468 131 685.078 131.61 685.498 132.39V130.08H692.128V147H685.498V144.69C685.078 145.47 684.468 146.09 683.668 146.55C682.868 146.99 681.918 147.21 680.818 147.21C679.498 147.21 678.308 146.87 677.248 146.19C676.188 145.49 675.348 144.49 674.728 143.19C674.128 141.87 673.828 140.32 673.828 138.54ZM685.498 138.54C685.498 137.64 685.268 136.94 684.808 136.44C684.348 135.94 683.758 135.69 683.038 135.69C682.318 135.69 681.728 135.94 681.268 136.44C680.808 136.94 680.578 137.64 680.578 138.54C680.578 139.44 680.808 140.14 681.268 140.64C681.728 141.14 682.318 141.39 683.038 141.39C683.758 141.39 684.348 141.14 684.808 140.64C685.268 140.14 685.498 139.44 685.498 138.54ZM701.778 133.2C702.458 132.22 703.288 131.44 704.268 130.86C705.248 130.26 706.268 129.96 707.328 129.96V137.07H705.438C704.178 137.07 703.248 137.29 702.648 137.73C702.068 138.17 701.778 138.95 701.778 140.07V147H695.118V130.08H701.778V133.2ZM708.222 138.54C708.222 136.76 708.522 135.22 709.122 133.92C709.742 132.6 710.582 131.6 711.642 130.92C712.702 130.22 713.892 129.87 715.212 129.87C716.312 129.87 717.262 130.1 718.062 130.56C718.862 131 719.472 131.61 719.892 132.39V130.08H726.522V147H719.892V144.69C719.472 145.47 718.862 146.09 718.062 146.55C717.262 146.99 716.312 147.21 715.212 147.21C713.892 147.21 712.702 146.87 711.642 146.19C710.582 145.49 709.742 144.49 709.122 143.19C708.522 141.87 708.222 140.32 708.222 138.54ZM719.892 138.54C719.892 137.64 719.662 136.94 719.202 136.44C718.742 135.94 718.152 135.69 717.432 135.69C716.712 135.69 716.122 135.94 715.662 136.44C715.202 136.94 714.972 137.64 714.972 138.54C714.972 139.44 715.202 140.14 715.662 140.64C716.122 141.14 716.712 141.39 717.432 141.39C718.152 141.39 718.742 141.14 719.202 140.64C719.662 140.14 719.892 139.44 719.892 138.54ZM741.363 129.96C743.303 129.96 744.813 130.61 745.893 131.91C746.993 133.21 747.543 134.97 747.543 137.19V147H740.913V138.03C740.913 137.23 740.693 136.6 740.253 136.14C739.833 135.66 739.263 135.42 738.543 135.42C737.803 135.42 737.223 135.66 736.803 136.14C736.383 136.6 736.173 137.23 736.173 138.03V147H729.513V130.08H736.173V132.66C736.693 131.86 737.383 131.21 738.243 130.71C739.123 130.21 740.163 129.96 741.363 129.96ZM756.521 129.87C757.621 129.87 758.571 130.1 759.371 130.56C760.171 131 760.781 131.61 761.201 132.39V130.08H767.831V146.7C767.831 148.28 767.541 149.72 766.961 151.02C766.381 152.32 765.441 153.36 764.141 154.14C762.861 154.92 761.211 155.31 759.191 155.31C756.471 155.31 754.311 154.67 752.711 153.39C751.131 152.13 750.231 150.41 750.011 148.23H756.551C756.731 149.11 757.451 149.55 758.711 149.55C759.491 149.55 760.101 149.35 760.541 148.95C760.981 148.55 761.201 147.8 761.201 146.7V144.69C760.781 145.47 760.171 146.09 759.371 146.55C758.571 146.99 757.621 147.21 756.521 147.21C755.201 147.21 754.011 146.87 752.951 146.19C751.891 145.49 751.051 144.49 750.431 143.19C749.831 141.87 749.531 140.32 749.531 138.54C749.531 136.76 749.831 135.22 750.431 133.92C751.051 132.6 751.891 131.6 752.951 130.92C754.011 130.22 755.201 129.87 756.521 129.87ZM761.201 138.54C761.201 137.64 760.971 136.94 760.511 136.44C760.051 135.94 759.461 135.69 758.741 135.69C758.021 135.69 757.431 135.94 756.971 136.44C756.511 136.94 756.281 137.64 756.281 138.54C756.281 139.44 756.511 140.14 756.971 140.64C757.431 141.14 758.021 141.39 758.741 141.39C759.461 141.39 760.051 141.14 760.511 140.64C760.971 140.14 761.201 139.44 761.201 138.54ZM790.139 136.11C791.419 136.41 792.409 137.03 793.109 137.97C793.829 138.89 794.189 139.96 794.189 141.18C794.189 143.04 793.569 144.48 792.329 145.5C791.109 146.5 789.349 147 787.049 147H775.919V125.76H786.749C788.909 125.76 790.609 126.23 791.849 127.17C793.089 128.11 793.709 129.48 793.709 131.28C793.709 132.52 793.379 133.57 792.719 134.43C792.079 135.27 791.219 135.83 790.139 136.11ZM782.579 134.04H785.159C785.759 134.04 786.199 133.92 786.479 133.68C786.779 133.44 786.929 133.07 786.929 132.57C786.929 132.05 786.779 131.67 786.479 131.43C786.199 131.17 785.759 131.04 785.159 131.04H782.579V134.04ZM785.609 141.66C786.209 141.66 786.649 141.55 786.929 141.33C787.229 141.09 787.379 140.71 787.379 140.19C787.379 139.17 786.789 138.66 785.609 138.66H782.579V141.66H785.609ZM795.527 138.54C795.527 136.76 795.827 135.22 796.427 133.92C797.047 132.6 797.887 131.6 798.947 130.92C800.007 130.22 801.197 129.87 802.517 129.87C803.617 129.87 804.567 130.1 805.367 130.56C806.167 131 806.777 131.61 807.197 132.39V130.08H813.827V147H807.197V144.69C806.777 145.47 806.167 146.09 805.367 146.55C804.567 146.99 803.617 147.21 802.517 147.21C801.197 147.21 800.007 146.87 798.947 146.19C797.887 145.49 797.047 144.49 796.427 143.19C795.827 141.87 795.527 140.32 795.527 138.54ZM807.197 138.54C807.197 137.64 806.967 136.94 806.507 136.44C806.047 135.94 805.457 135.69 804.737 135.69C804.017 135.69 803.427 135.94 802.967 136.44C802.507 136.94 802.277 137.64 802.277 138.54C802.277 139.44 802.507 140.14 802.967 140.64C803.427 141.14 804.017 141.39 804.737 141.39C805.457 141.39 806.047 141.14 806.507 140.64C806.967 140.14 807.197 139.44 807.197 138.54ZM823.477 133.2C824.157 132.22 824.987 131.44 825.967 130.86C826.947 130.26 827.967 129.96 829.027 129.96V137.07H827.137C825.877 137.07 824.947 137.29 824.347 137.73C823.767 138.17 823.477 138.95 823.477 140.07V147H816.817V130.08H823.477V133.2ZM848.731 130.08V147H842.071V144.42C841.551 145.22 840.851 145.87 839.971 146.37C839.111 146.87 838.081 147.12 836.881 147.12C834.941 147.12 833.421 146.47 832.321 145.17C831.241 143.87 830.701 142.11 830.701 139.89V130.08H837.331V139.05C837.331 139.85 837.541 140.49 837.961 140.97C838.401 141.43 838.981 141.66 839.701 141.66C840.441 141.66 841.021 141.43 841.441 140.97C841.861 140.49 842.071 139.85 842.071 139.05V130.08H848.731Z" fill="white"/>
<rect x="531" y="622" width="304" height="51" fill="#D9D9D9"/>
</g>
<defs>
<clipPath id="clip0_2207_2">
<rect width="1366" height="768" fill="white"/>
</clipPath>
</defs>
</svg>
