<svg width="1366" height="768" viewBox="0 0 1366 768" fill="none" xmlns="http://www.w3.org/2000/svg">
<g clip-path="url(#clip0_2207_2)">
<rect width="1366" height="768" fill="#03626F"/>
<circle cx="131" cy="718" r="362" fill="#3F95A1"/>
<circle cx="131" cy="718" r="286" fill="#03626F"/>
<circle cx="131" cy="718" r="219" fill="#3F95A1"/>
<path d="M831.5 137C695.9 149.8 603.667 49 574.5 -3L1438.5 0.5V718.5H1342C1043.2 680.5 1093.5 529 1156 458C1192.5 408.167 1258.5 288.1 1230.5 206.5C1195.5 104.5 1001 121 831.5 137Z" fill="#3F95A1"/>
<rect x="198" y="68" width="970" height="632" rx="50" fill="#0A3238"/>
<rect x="373" y="204" width="620" height="52.1615" fill="#D9D9D9"/>
<rect x="373" y="280.96" width="620" height="52.1615" fill="#D9D9D9"/>
<rect x="373" y="357.919" width="620" height="52.1615" fill="#D9D9D9"/>
<rect x="373" y="434.879" width="620" height="52.1615" fill="#D9D9D9"/>
<rect x="373" y="511.839" width="620" height="52.1615" fill="#D9D9D9"/>
<path d="M595.988 125.76V131.04H590.348V147H583.688V131.04H578.108V125.76H595.988ZM596.894 138.54C596.894 136.76 597.194 135.22 597.794 133.92C598.414 132.6 599.254 131.6 600.314 130.92C601.374 130.22 602.564 129.87 603.884 129.87C604.984 129.87 605.934 130.1 606.734 130.56C607.534 131 608.144 131.61 608.564 132.39V130.08H615.194V147H608.564V144.69C608.144 145.47 607.534 146.09 606.734 146.55C605.934 146.99 604.984 147.21 603.884 147.21C602.564 147.21 601.374 146.87 600.314 146.19C599.254 145.49 598.414 144.49 597.794 143.19C597.194 141.87 596.894 140.32 596.894 138.54ZM608.564 138.54C608.564 137.64 608.334 136.94 607.874 136.44C607.414 135.94 606.824 135.69 606.104 135.69C605.384 135.69 604.794 135.94 604.334 136.44C603.874 136.94 603.644 137.64 603.644 138.54C603.644 139.44 603.874 140.14 604.334 140.64C604.794 141.14 605.384 141.39 606.104 141.39C606.824 141.39 607.414 141.14 607.874 140.64C608.334 140.14 608.564 139.44 608.564 138.54ZM640.775 129.96C642.935 129.96 644.605 130.61 645.785 131.91C646.985 133.21 647.585 134.97 647.585 137.19V147H640.955V138.03C640.955 137.31 640.735 136.75 640.295 136.35C639.875 135.93 639.305 135.72 638.585 135.72C637.845 135.72 637.265 135.93 636.845 136.35C636.425 136.75 636.215 137.31 636.215 138.03V147H629.585V138.03C629.585 137.31 629.365 136.75 628.925 136.35C628.505 135.93 627.935 135.72 627.215 135.72C626.475 135.72 625.895 135.93 625.475 136.35C625.055 136.75 624.845 137.31 624.845 138.03V147H618.185V130.08H624.845V132.36C625.325 131.64 625.975 131.06 626.795 130.62C627.635 130.18 628.615 129.96 629.735 129.96C630.955 129.96 632.035 130.23 632.975 130.77C633.915 131.29 634.665 132.03 635.225 132.99C635.845 132.11 636.635 131.39 637.595 130.83C638.555 130.25 639.615 129.96 640.775 129.96ZM657.13 132.39C657.55 131.61 658.15 131 658.93 130.56C659.73 130.1 660.68 129.87 661.78 129.87C663.1 129.87 664.29 130.22 665.35 130.92C666.41 131.6 667.24 132.6 667.84 133.92C668.46 135.22 668.77 136.76 668.77 138.54C668.77 140.32 668.46 141.87 667.84 143.19C667.24 144.49 666.41 145.49 665.35 146.19C664.29 146.87 663.1 147.21 661.78 147.21C660.68 147.21 659.73 146.99 658.93 146.55C658.15 146.09 657.55 145.47 657.13 144.69V147H650.47V124.8H657.13V132.39ZM662.02 138.54C662.02 137.64 661.79 136.94 661.33 136.44C660.87 135.94 660.28 135.69 659.56 135.69C658.84 135.69 658.25 135.94 657.79 136.44C657.33 136.94 657.1 137.64 657.1 138.54C657.1 139.44 657.33 140.14 657.79 140.64C658.25 141.14 658.84 141.39 659.56 141.39C660.28 141.39 660.87 141.14 661.33 140.64C661.79 140.14 662.02 139.44 662.02 138.54ZM669.96 138.54C669.96 136.76 670.26 135.22 670.86 133.92C671.48 132.6 672.32 131.6 673.38 130.92C674.44 130.22 675.63 129.87 676.95 129.87C678.05 129.87 679 130.1 679.8 130.56C680.6 131 681.21 131.61 681.63 132.39V130.08H688.26V147H681.63V144.69C681.21 145.47 680.6 146.09 679.8 146.55C679 146.99 678.05 147.21 676.95 147.21C675.63 147.21 674.44 146.87 673.38 146.19C672.32 145.49 671.48 144.49 670.86 143.19C670.26 141.87 669.96 140.32 669.96 138.54ZM681.63 138.54C681.63 137.64 681.4 136.94 680.94 136.44C680.48 135.94 679.89 135.69 679.17 135.69C678.45 135.69 677.86 135.94 677.4 136.44C676.94 136.94 676.71 137.64 676.71 138.54C676.71 139.44 676.94 140.14 677.4 140.64C677.86 141.14 678.45 141.39 679.17 141.39C679.89 141.39 680.48 141.14 680.94 140.64C681.4 140.14 681.63 139.44 681.63 138.54ZM703.101 129.96C705.041 129.96 706.551 130.61 707.631 131.91C708.731 133.21 709.281 134.97 709.281 137.19V147H702.651V138.03C702.651 137.23 702.431 136.6 701.991 136.14C701.571 135.66 701.001 135.42 700.281 135.42C699.541 135.42 698.961 135.66 698.541 136.14C698.121 136.6 697.911 137.23 697.911 138.03V147H691.251V124.8H697.911V132.66C698.431 131.86 699.121 131.21 699.981 130.71C700.861 130.21 701.901 129.96 703.101 129.96ZM723.777 125.76V137.73C723.777 138.71 723.987 139.49 724.407 140.07C724.847 140.63 725.547 140.91 726.507 140.91C727.467 140.91 728.177 140.63 728.637 140.07C729.097 139.49 729.327 138.71 729.327 137.73V125.76H735.957V137.73C735.957 139.75 735.537 141.48 734.697 142.92C733.857 144.34 732.707 145.41 731.247 146.13C729.787 146.85 728.157 147.21 726.357 147.21C724.557 147.21 722.957 146.85 721.557 146.13C720.177 145.41 719.097 144.34 718.317 142.92C717.537 141.5 717.147 139.77 717.147 137.73V125.76H723.777ZM746.359 147.21C744.759 147.21 743.339 146.95 742.099 146.43C740.879 145.91 739.909 145.19 739.189 144.27C738.469 143.35 738.059 142.31 737.959 141.15H744.349C744.429 141.65 744.639 142.02 744.979 142.26C745.339 142.5 745.789 142.62 746.329 142.62C746.669 142.62 746.939 142.55 747.139 142.41C747.339 142.25 747.439 142.06 747.439 141.84C747.439 141.46 747.229 141.19 746.809 141.03C746.389 140.87 745.679 140.69 744.679 140.49C743.459 140.25 742.449 139.99 741.649 139.71C740.869 139.43 740.179 138.95 739.579 138.27C738.999 137.59 738.709 136.65 738.709 135.45C738.709 134.41 738.979 133.47 739.519 132.63C740.079 131.77 740.899 131.1 741.979 130.62C743.059 130.12 744.369 129.87 745.909 129.87C748.189 129.87 749.969 130.43 751.249 131.55C752.549 132.67 753.329 134.13 753.589 135.93H747.679C747.579 135.47 747.369 135.12 747.049 134.88C746.729 134.62 746.299 134.49 745.759 134.49C745.419 134.49 745.159 134.56 744.979 134.7C744.799 134.82 744.709 135.01 744.709 135.27C744.709 135.61 744.919 135.87 745.339 136.05C745.759 136.21 746.429 136.38 747.349 136.56C748.569 136.8 749.599 137.07 750.439 137.37C751.279 137.67 752.009 138.19 752.629 138.93C753.249 139.65 753.559 140.65 753.559 141.93C753.559 142.93 753.269 143.83 752.689 144.63C752.109 145.43 751.269 146.06 750.169 146.52C749.089 146.98 747.819 147.21 746.359 147.21ZM772.582 138.39C772.582 138.85 772.552 139.29 772.492 139.71H761.782C761.882 141.17 762.492 141.9 763.612 141.9C764.332 141.9 764.852 141.57 765.172 140.91H772.222C771.982 142.11 771.472 143.19 770.692 144.15C769.932 145.09 768.962 145.84 767.782 146.4C766.622 146.94 765.342 147.21 763.942 147.21C762.262 147.21 760.762 146.86 759.442 146.16C758.142 145.46 757.122 144.46 756.382 143.16C755.662 141.84 755.302 140.3 755.302 138.54C755.302 136.78 755.662 135.25 756.382 133.95C757.122 132.63 758.142 131.62 759.442 130.92C760.762 130.22 762.262 129.87 763.942 129.87C765.622 129.87 767.112 130.22 768.412 130.92C769.732 131.6 770.752 132.58 771.472 133.86C772.212 135.14 772.582 136.65 772.582 138.39ZM765.832 136.8C765.832 136.24 765.652 135.82 765.292 135.54C764.932 135.24 764.482 135.09 763.942 135.09C762.762 135.09 762.072 135.66 761.872 136.8H765.832ZM781.348 133.2C782.028 132.22 782.858 131.44 783.838 130.86C784.818 130.26 785.838 129.96 786.898 129.96V137.07H785.008C783.748 137.07 782.818 137.29 782.218 137.73C781.638 138.17 781.348 138.95 781.348 140.07V147H774.688V130.08H781.348V133.2Z" fill="white"/>
<rect x="531" y="622" width="304" height="51" fill="#D9D9D9"/>
</g>
<defs>
<clipPath id="clip0_2207_2">
<rect width="1366" height="768" fill="white"/>
</clipPath>
</defs>
</svg>
